SplineFontDB: 3.2
FontName: SeriousShannsBold
FullName: Serious Shanns Bold
FamilyName: Serious Shanns Bold
Weight: Bold
Copyright: https://github.com/kaBeech/serious-shanns/blob/main/LICENSE
Version: 6.0.0
ItalicAngle: 0
UnderlinePosition: 0
UnderlineWidth: 0
Ascent: 800
Descent: 200
InvalidEm: 0
sfntRevision: 0x00003333
LayerCount: 2
Layer: 0 0 "Back" 1
Layer: 1 0 "Fore" 0
XUID: [1021 45 630387186 1689187]
StyleMap: 0x0040
FSType: 0
OS2Version: 3
OS2_WeightWidthSlopeOnly: 0
OS2_UseTypoMetrics: 0
CreationTime: 1532631502
ModificationTime: 315532800
PfmFamily: 49
TTFWeight: 700
TTFWidth: 5
LineGap: 0
VLineGap: 0
Panose: 0 0 0 0 0 0 0 0 0 0
OS2TypoAscent: 613
OS2TypoAOffset: 0
OS2TypoDescent: -188
OS2TypoDOffset: 0
OS2TypoLinegap: 98
OS2WinAscent: 778
OS2WinAOffset: 0
OS2WinDescent: 308
OS2WinDOffset: 0
HheadAscent: 796
HheadAOffset: 0
HheadDescent: -317
HheadDOffset: 0
OS2SubXSize: 317
OS2SubYSize: 293
OS2SubXOff: 0
OS2SubYOff: 37
OS2SupXSize: 317
OS2SupYSize: 293
OS2SupXOff: 0
OS2SupYOff: 171
OS2StrikeYSize: 0
OS2StrikeYPos: 132
OS2CapHeight: 576
OS2XHeight: 485
OS2Vendor: 'NONE'
OS2CodePages: 00000001.00000000
OS2UnicodeRanges: 00000001.00000000.00000000.00000000
MarkAttachClasses: 1
DEI: 91125
LangName: 1033 "" "" "Normal" "" "" "Version 0.2.0"
Encoding: UnicodeBmp
Compacted: 1
UnicodeInterp: none
NameList: AGL For New Fonts
DisplaySize: -48
AntiAlias: 1
FitToEm: 0
WinInfo: 0 16 9
BeginPrivate: 9
BlueValues 32 [-39 -6 502 523 708 718 765 769]
OtherBlues 11 [-297 -287]
BlueScale 9 0.0291667
BlueShift 1 2
StdHW 5 [110]
StdVW 5 [128]
StemSnapH 5 [110]
StemSnapV 9 [128 134]
ForceBold 4 true
EndPrivate
BeginChars: 65537 107

StartChar: .notdef
Encoding: 65536 -1 0
Width: 548
VWidth: 886
GlyphClass: 1
Flags: W
HStem: -201.925 66.2998<171.2 422.8> 616.625 66.2998<171.2 422.8>
VStem: 104.9 66.2998<-135.625 616.625> 422.8 66.2998<-135.625 616.625>
LayerCount: 2
Fore
SplineSet
104.900390625 -201.924804688 m 1
 104.900390625 682.924804688 l 1
 489.099609375 682.924804688 l 1
 489.099609375 -201.924804688 l 1
 104.900390625 -201.924804688 l 1
171.200195312 616.625 m 1
 171.200195312 -135.625 l 1
 422.799804688 -135.625 l 1
 422.799804688 616.625 l 1
 171.200195312 616.625 l 1
EndSplineSet
Validated: 1
EndChar

StartChar: exclam
Encoding: 33 33 1
Width: 548
VWidth: 907
GlyphClass: 2
Flags: W
HStem: 25.9229 152.151<244.182 351.342>
VStem: 217.029 158.981<52.3986 151.517> 252.728 97.751<287.195 724.144>
LayerCount: 2
Fore
SplineSet
356.427734375 684.674804688 m 0xa0
 356.427734375 679.575195312 355.295898438 647.83984375 353.029296875 589.473632812 c 0
 351.329101562 531.106445312 350.478515625 484.356445312 350.478515625 449.223632812 c 0
 350.478515625 432.790039062 350.76171875 415.506835938 351.329101562 397.374023438 c 0
 351.895507812 379.806640625 352.178710938 364.506835938 352.178710938 351.473632812 c 0
 352.178710938 338.44140625 351.612304688 329.658203125 350.478515625 325.125 c 0
 349.912109375 320.591796875 349.62890625 314.641601562 349.62890625 307.274414062 c 0
 349.62890625 299.908203125 349.912109375 293.107421875 350.478515625 286.875 c 0
 348.779296875 271.0078125 342.545898438 258.825195312 331.779296875 250.325195312 c 0
 322.145507812 242.391601562 310.529296875 238.141601562 296.928710938 237.575195312 c 2
 293.529296875 237.575195312 l 2
 279.362304688 237.575195312 267.745117188 242.674804688 258.677734375 252.875 c 0
 250.177734375 261.375 245.927734375 272.708007812 245.927734375 286.875 c 0
 245.927734375 293.674804688 247.061523438 302.458007812 249.328125 313.224609375 c 0
 251.028320312 324.557617188 252.161132812 332.774414062 252.727539062 337.875 c 0
 253.294921875 342.974609375 253.578125 351.7578125 253.578125 364.224609375 c 2
 253.578125 399.075195312 l 2
 253.578125 410.408203125 253.294921875 427.69140625 252.727539062 450.923828125 c 0
 251.594726562 478.124023438 251.028320312 504.19140625 251.028320312 529.124023438 c 2
 251.028320312 587.774414062 l 2
 251.594726562 601.94140625 252.162109375 619.5078125 252.728515625 640.474609375 c 0
 253.295898438 661.44140625 253.579101562 675.325195312 253.579101562 682.125 c 1
 254.145507812 700.2578125 259.529296875 714.424804688 269.728515625 724.625 c 0
 279.362304688 734.2578125 291.544921875 739.075195312 306.278320312 739.075195312 c 2
 308.828125 739.075195312 l 2
 322.427734375 739.075195312 333.760742188 734.541992188 342.828125 725.474609375 c 0
 351.89453125 716.408203125 356.427734375 702.807617188 356.427734375 684.674804688 c 0xa0
290.12890625 25.9228515625 m 2
 270.295898438 25.9228515625 253.580078125 32.7236328125 239.979492188 46.32421875 c 0
 224.6796875 62.19140625 217.029296875 81.173828125 217.029296875 103.274414062 c 0
 217.029296875 123.673828125 225.529296875 140.95703125 242.529296875 155.124023438 c 0
 260.096679688 170.423828125 279.646484375 178.07421875 301.1796875 178.07421875 c 0
 322.712890625 178.07421875 340.5625 171.274414062 354.729492188 157.673828125 c 0
 368.916992188 143.487304688 376.010742188 126.409179688 376.010742188 106.442382812 c 0xc0
 376.010742188 95.34765625 375.526367188 72.2021484375 355.579101562 51.4228515625 c 0
 341.412109375 37.255859375 322.711914062 28.755859375 299.478515625 25.9228515625 c 2
 290.12890625 25.9228515625 l 2
EndSplineSet
Validated: 1
EndChar

StartChar: quotedbl
Encoding: 34 34 2
Width: 548
VWidth: 941
GlyphClass: 2
Flags: W
HStem: 450.974 317.052<190.384 269.786 327.208 406.251>
VStem: 176.225 107.95<464.098 759.08> 309.676 110.5<464.098 759.436>
LayerCount: 2
Fore
SplineSet
420.17578125 718.724609375 m 2
 420.17578125 702.575195312 l 2
 420.17578125 673.674804688 419.89453125 636.841796875 419.327148438 592.075195312 c 0
 418.194335938 545.041992188 416.494140625 512.174804688 414.227539062 493.474609375 c 0
 411.9609375 479.307617188 405.443359375 468.541015625 394.676757812 461.173828125 c 0
 385.609375 454.374023438 375.692382812 450.973632812 364.92578125 450.973632812 c 0
 350.758789062 450.973632812 338.008789062 455.223632812 326.67578125 463.723632812 c 0
 315.909179688 471.657226562 310.526367188 482.423828125 310.526367188 496.024414062 c 2
 310.526367188 501.124023438 l 2
 311.659179688 520.390625 312.225585938 543.624023438 312.225585938 570.82421875 c 0
 312.225585938 628.057617188 311.375976562 678.774414062 309.67578125 722.973632812 c 2
 309.67578125 725.524414062 l 2
 309.67578125 733.45703125 311.659179688 740.682617188 315.625976562 747.19921875 c 0
 319.592773438 753.715820312 325.259765625 758.390625 332.626953125 761.223632812 c 0
 342.827148438 765.19140625 353.026367188 767.458007812 363.2265625 768.025390625 c 0
 371.7265625 768.025390625 378.668945312 767.174804688 384.051757812 765.474609375 c 0
 389.434570312 763.775390625 394.676757812 761.5078125 399.776367188 758.674804688 c 0
 406.009765625 755.275390625 410.967773438 750.033203125 414.651367188 742.950195312 c 0
 418.333984375 735.8671875 420.17578125 727.791992188 420.17578125 718.724609375 c 2
284.174804688 719.575195312 m 2
 284.174804688 683.875 l 2
 284.174804688 667.44140625 283.609375 636.841796875 282.475585938 592.075195312 c 0
 281.342773438 545.041992188 279.642578125 512.174804688 277.375976562 493.474609375 c 0
 275.109375 479.307617188 268.875976562 468.541015625 258.67578125 461.173828125 c 0
 249.609375 454.374023438 239.692382812 450.973632812 228.924804688 450.973632812 c 0
 214.7578125 450.973632812 201.724609375 455.223632812 189.825195312 463.723632812 c 0
 179.05859375 471.657226562 173.674804688 482.423828125 173.674804688 496.024414062 c 0
 173.674804688 497.723632812 173.958007812 499.70703125 174.525390625 501.973632812 c 0
 175.799804688 518.548828125 176.4375 537.83203125 176.4375 559.825195312 c 0
 176.4375 567.157226562 176.3671875 574.790039062 176.224609375 582.723632812 c 2
 176.224609375 611.624023438 l 2
 175.658203125 668.857421875 174.525390625 707.107421875 172.825195312 726.374023438 c 0
 172.825195312 733.741210938 174.80859375 740.541015625 178.775390625 746.774414062 c 0
 183.30859375 753.57421875 188.974609375 758.390625 195.775390625 761.223632812 c 0
 205.974609375 765.19140625 216.458007812 767.458007812 227.224609375 768.025390625 c 0
 235.724609375 768.025390625 242.666992188 767.174804688 248.049804688 765.474609375 c 0
 253.43359375 763.775390625 258.958007812 761.224609375 264.625 757.825195312 c 0
 270.291992188 754.424804688 274.825195312 749.325195312 278.224609375 742.525390625 c 0
 281.625 735.724609375 283.608398438 728.075195312 284.174804688 719.575195312 c 2
EndSplineSet
Validated: 1
EndChar

StartChar: numbersign
Encoding: 35 35 3
Width: 548
VWidth: 904
GlyphClass: 2
Flags: W
HStem: 206.368 90.9531<69.8244 127 252.803 314.85 438.1 501.641> 422.271 92.6494<102.94 170.35 295.299 353.952 476.35 524.197>
VStem: 102.35 107.1<56.8194 184.967> 291.899 107.101<54.336 196.003> 391.352 107.099<592.441 664.382>
LayerCount: 2
Fore
SplineSet
353.952148438 422.271484375 m 1xe0
 277.452148438 422.271484375 l 1
 252.802734375 297.321289062 l 1
 273.202148438 297.887695312 299.26953125 298.169921875 331.002929688 298.169921875 c 1
 338.935546875 338.40234375 346.5859375 379.771484375 353.952148438 422.271484375 c 1xe0
60.7001953125 248.017578125 m 2
 60.7001953125 258.198876461 64.4232019076 290.767617627 111.700195312 293.91796875 c 0
 116.233398438 293.91796875 122.182617188 294.201171875 129.549804688 294.767578125 c 2
 145.700195312 294.767578125 l 1
 170.349609375 420.567382812 l 1
 155.049804688 420.000976562 146.552734375 420.000976562 144.852539062 420.567382812 c 0
 135.6271917 420.567382812 95.6366721366 422.937064721 93.8525390625 463.919921875 c 1
 93.8525390625 466.469726562 l 2
 93.8525390625 482.283752932 104.303632676 510.962460996 146.552734375 512.370117188 c 0
 156.185546875 512.9375 170.068359375 513.220703125 188.201171875 513.220703125 c 1
 211.151367188 637.3203125 l 1
 215.867909137 653.564975171 228.677736439 678.525813563 263.001953125 680.669921875 c 0
 281.453089629 680.669921875 317.401367188 667.96288704 317.401367188 629.670898438 c 0
 317.401367188 624.571289062 316.834960938 619.470703125 315.701171875 614.37109375 c 2
 295.298828125 514.920898438 l 1
 370.1015625 514.920898438 l 1
 391.3515625 630.521484375 l 1
 395.522694042 645.352884313 408.201234948 674.720703125 443.201171875 674.720703125 c 0
 459.421917721 674.720703125 496.223492307 665.452706157 498.450195312 625.421875 c 0xe8
 498.450195312 608.797834388 493.690425974 610.47247895 476.349609375 515.771484375 c 1
 511.83690689 514.45781112 532.298194253 490.914524011 533.299804688 469.872070312 c 0
 533.299804688 460.205873252 530.111427034 423.864472711 482.299804688 422.271484375 c 1
 459.349609375 422.271484375 l 1
 438.099609375 297.321289062 l 1
 461.049804688 297.321289062 l 2
 471.40980802 297.321289062 503.835053898 297.321289062 507.799804688 255.670898438 c 1
 507.799804688 254.821289062 l 2
 507.799804688 235.208680246 500.830653027 207.220703125 461.049804688 207.220703125 c 2
 422.799804688 207.220703125 l 1
 412.033203125 147.154296875 404.099609375 105.787109375 399 83.1201171875 c 0
 387.666124679 52.5208022413 359.653215135 42.2333984375 344.767578125 42.2333984375 c 2
 342.048828125 42.318359375 l 1
 300.146800994 42.318359375 292.836741999 81.0398898692 291.899414062 94.1689453125 c 0xf0
 291.899414062 98.9056714169 314.628044804 205.244577503 314.849609375 206.368164062 c 1
 274.899414062 206.368164062 l 2
 258.465820312 206.368164062 245.149414062 206.0859375 234.94921875 205.518554688 c 1
 219.649414062 129.018554688 211.149414062 89.068359375 209.44921875 85.6689453125 c 0
 199.056386124 56.7970910594 169.068651841 42.318359375 151.649414062 42.318359375 c 0
 107.544387092 42.318359375 102.349609375 86.6064360284 102.349609375 95.0185546875 c 0
 102.349609375 110.93911069 102.875426448 95.3932377786 127 204.66796875 c 1
 114.25 204.66796875 l 2
 101.858937388 204.66796875 60.7001953125 207.523887354 60.7001953125 245.467773438 c 2
 60.7001953125 248.017578125 l 2
EndSplineSet
Validated: 1
EndChar

StartChar: dollar
Encoding: 36 36 4
Width: 548
VWidth: 901
GlyphClass: 2
Flags: W
HStem: 23.9473 90.9482<190.933 244.301>
VStem: 83.6514 100.3<460.688 548.901> 248.551 99.4512<-23.1391 23.9473 130.197 321.447 439.598 574.747> 425.378 100.272<172.193 287.919>
LayerCount: 2
Fore
SplineSet
327.174804688 -59.3505859375 m 0
 316.125 -67.8505859375 303.234375 -72.1025390625 288.500976562 -72.1025390625 c 2
 286.80078125 -72.1025390625 l 2
 271.500976562 -72.1025390625 259.883789062 -67.0029296875 251.951171875 -56.802734375 c 0
 245.717773438 -49.435546875 242.600585938 -39.5185546875 242.600585938 -27.0517578125 c 0
 242.600585938 -24.21875 242.883789062 -19.2607421875 243.451171875 -12.177734375 c 0
 244.017578125 -5.0947265625 244.30078125 6.947265625 244.30078125 23.947265625 c 1
 223.901367188 24.513671875 204.350585938 27.34765625 185.651367188 32.447265625 c 0
 166.951171875 37.546875 150.80078125 44.34765625 137.201171875 52.84765625 c 0
 110.000976562 69.84765625 89.8837890625 90.2470703125 76.8505859375 114.046875 c 0
 71.18359375 126.513671875 68.3505859375 137.84765625 68.3505859375 148.046875 c 0
 68.3505859375 151.447265625 68.6337890625 154.564453125 69.201171875 157.397460938 c 0
 72.0341796875 170.430664062 79.966796875 179.780273438 93 185.447265625 c 0
 100.3671875 188.84765625 106.034179688 190.97265625 110.000976562 191.822265625 c 0
 113.967773438 192.671875 117.368164062 193.09765625 120.201171875 193.09765625 c 0
 123.034179688 193.09765625 125.583984375 192.814453125 127.850585938 192.247070312 c 0
 134.651367188 191.680664062 140.883789062 188.98828125 146.55078125 184.170898438 c 0
 152.217773438 179.354492188 158.16796875 172.979492188 164.401367188 165.046875 c 0
 175.734375 149.1796875 188.484375 136.712890625 202.651367188 127.645507812 c 0
 214.55078125 120.278320312 229.284179688 116.028320312 246.850585938 114.895507812 c 1
 247.984375 199.328125 248.55078125 275.26171875 248.55078125 342.694335938 c 1
 246.850585938 342.694335938 243.734375 343.26171875 239.201171875 344.39453125 c 0
 235.80078125 344.961914062 231.267578125 345.245117188 225.600585938 345.245117188 c 0
 202.368164062 347.51171875 181.118164062 353.178710938 161.850585938 362.245117188 c 0
 144.284179688 371.3125 129.833984375 382.079101562 118.500976562 394.546875 c 0
 107.16796875 407.013671875 98.5263671875 420.330078125 92.576171875 434.497070312 c 0
 86.6259765625 448.6640625 83.6513671875 463.114257812 83.6513671875 477.84765625 c 0
 83.6513671875 498.814453125 86.9091796875 518.930664062 93.42578125 538.198242188 c 0
 99.9423828125 557.46484375 110.000976562 575.45703125 123.600585938 592.173828125 c 0
 137.201171875 608.890625 155.333984375 623.19921875 178.000976562 635.098632812 c 0
 199.534179688 645.866210938 223.6171875 653.798828125 250.25 658.8984375 c 1
 250.817382812 670.232421875 251.099609375 683.548828125 251.099609375 698.848632812 c 1
 251.666992188 726.048828125 261.016601562 743.33203125 279.150390625 750.69921875 c 0
 285.3828125 752.965820312 293.033203125 754.098632812 302.099609375 754.098632812 c 0
 320.799804688 754.098632812 334.400390625 748.1484375 342.900390625 736.249023438 c 0
 349.1328125 727.749023438 352.533203125 716.131835938 353.099609375 701.3984375 c 2
 353.099609375 666.548828125 l 1
 366.1328125 665.416015625 383.416015625 662.298828125 404.94921875 657.19921875 c 0
 426.482421875 652.666015625 442.915039062 648.416015625 454.248046875 644.44921875 c 0
 467.28125 639.916015625 476.9140625 632.265625 483.147460938 621.499023438 c 0
 487.680664062 613.565429688 489.947265625 605.348632812 489.947265625 596.848632812 c 0
 489.947265625 594.015625 489.6640625 591.182617188 489.09765625 588.349609375 c 0
 487.96484375 579.849609375 484.706054688 572.908203125 479.323242188 567.524414062 c 0
 473.940429688 562.141601562 467.282226562 558.883789062 459.349609375 557.750976562 c 0
 455.381835938 557.18359375 451.982421875 556.900390625 449.149414062 556.900390625 c 0
 446.31640625 556.900390625 443.05859375 557.04296875 439.375 557.325195312 c 0
 435.692382812 557.608398438 431.016601562 558.600585938 425.349609375 560.30078125 c 0
 419.1171875 561.43359375 411.75 563.983398438 403.25 567.950195312 c 0
 386.25 575.317382812 368.966796875 579.567382812 351.400390625 580.700195312 c 1
 350.266601562 525.733398438 349.416992188 473.600585938 348.849609375 424.30078125 c 1
 374.349609375 420.333984375 397.8671875 414.383789062 419.400390625 406.450195312 c 0
 439.799804688 397.950195312 456.658203125 387.750976562 469.974609375 375.850585938 c 0
 483.291992188 363.950195312 494.341796875 350.350585938 503.125 335.05078125 c 0
 511.908203125 319.750976562 517.858398438 304.733398438 520.974609375 290.000976562 c 0
 524.091796875 275.267578125 525.650390625 259.967773438 525.650390625 244.100585938 c 0
 525.650390625 217.467773438 520.974609375 192.392578125 511.625 168.875976562 c 0
 502.275390625 145.358398438 489.2421875 124.81640625 472.525390625 107.25 c 0
 455.80859375 89.6826171875 436.400390625 74.666015625 414.299804688 62.19921875 c 0
 393.333007812 50.8662109375 370.3828125 42.0830078125 345.450195312 35.849609375 c 1
 345.450195312 6.94921875 346.016601562 -12.8837890625 347.150390625 -23.650390625 c 0
 344.8828125 -38.9501953125 338.224609375 -50.8505859375 327.174804688 -59.3505859375 c 0
205.201171875 548.397460938 m 0
 191.034179688 535.364257812 183.951171875 520.064453125 183.951171875 502.497070312 c 0
 183.951171875 487.197265625 190.467773438 473.879882812 203.500976562 462.546875 c 0
 214.833984375 452.34765625 229.850585938 444.697265625 248.55078125 439.59765625 c 1
 249.118164062 474.73046875 249.401367188 519.780273438 249.401367188 574.747070312 c 1
 231.833984375 567.947265625 217.100585938 559.1640625 205.201171875 548.397460938 c 0
399.850585938 167.59765625 m 0
 416.869140625 184.615234375 425.377929688 204.026367188 425.377929688 225.830078125 c 0
 425.377929688 233.450195312 425.05859375 243.42578125 421.952148438 254.297851562 c 0
 419.684570312 262.231445312 415.434570312 271.013671875 409.202148438 280.647460938 c 0
 398.434570312 296.513671875 378.03515625 310.114257812 348.001953125 321.447265625 c 1
 347.434570312 256.280273438 347.009765625 213.780273438 346.7265625 193.947265625 c 0
 346.443359375 174.114257812 346.018554688 152.864257812 345.452148438 130.197265625 c 1
 366.984375 140.397460938 385.118164062 152.864257812 399.850585938 167.59765625 c 0
EndSplineSet
Validated: 1
EndChar

StartChar: percent
Encoding: 37 37 5
Width: 548
VWidth: 899
GlyphClass: 2
Flags: W
HStem: 15.0469 85.8506<390.302 445.535> 184.197 83.2998<392.119 451.507> 406.05 84.1465<145.065 201.531> 565.847 82.4531<145.881 206.263>
VStem: 56.4482 81.6006<499.788 556.149> 212.848 87.5508<499.017 556.64> 293.598 89.25<110.954 172.747> 456.799 80.749<109.745 171.977>
LayerCount: 2
Fore
SplineSet
68.7744140625 466.825195312 m 0xfd
 60.5576171875 484.108398438 56.4482421875 502.3828125 56.4482421875 521.650390625 c 2
 56.4482421875 523.349609375 l 2
 56.4482421875 559.049804688 67.0732421875 588.799804688 88.3232421875 612.599609375 c 0
 109.573242188 636.400390625 140.315429688 648.299804688 180.547851562 648.299804688 c 0
 215.115234375 648.299804688 243.732421875 638.099609375 266.3984375 617.700195312 c 0
 278.298828125 606.932617188 287.366210938 593.049804688 293.598632812 576.049804688 c 0
 298.131835938 562.450195312 300.3984375 547.150390625 300.3984375 530.150390625 c 0
 300.3984375 487.650390625 288.215820312 455.6328125 263.848632812 434.099609375 c 0
 242.315429688 415.400390625 210.298828125 406.049804688 167.798828125 406.049804688 c 0
 144.565429688 406.049804688 124.307617188 411.858398438 107.024414062 423.474609375 c 0
 89.7412109375 435.091796875 76.9912109375 449.541992188 68.7744140625 466.825195312 c 0xfd
97.248046875 10.7998046875 m 0
 89.880859375 14.2001953125 83.9306640625 18.4462890625 79.3984375 23.546875 c 0
 73.1650390625 30.3466796875 70.0478515625 38.421875 70.0478515625 47.771484375 c 0
 70.0478515625 57.1220703125 72.880859375 67.1796875 78.5478515625 77.9462890625 c 0
 90.4482421875 101.747070312 118.78125 151.330078125 163.547851562 226.696289062 c 0
 259.880859375 378.563476562 308.047851562 454.780273438 308.047851562 455.34765625 c 0
 356.21484375 531.84765625 388.514648438 586.814453125 404.948242188 620.247070312 c 1
 404.948242188 614.014648438 405.231445312 614.297851562 405.797851562 621.09765625 c 1
 414.865234375 633.564453125 426.482421875 640.931640625 440.6484375 643.198242188 c 0
 444.616210938 644.331054688 448.583007812 644.8984375 452.549804688 644.8984375 c 0
 461.616210938 644.8984375 470.399414062 642.631835938 478.899414062 638.098632812 c 0
 491.932617188 631.865234375 499.299804688 623.08203125 501 611.749023438 c 0
 501.56640625 609.482421875 501.849609375 607.21484375 501.849609375 604.948242188 c 0
 501.849609375 595.315429688 498.166992188 584.83203125 490.799804688 573.499023438 c 0
 469.833007812 540.06640625 417.416015625 454.783203125 333.548828125 317.650390625 c 0
 247.982421875 180.516601562 191.315429688 87.8671875 163.547851562 39.7001953125 c 0
 150.514648438 17.033203125 135.21484375 5.7001953125 117.6484375 5.7001953125 c 0
 111.415039062 5.7001953125 104.615234375 7.400390625 97.248046875 10.7998046875 c 0
203.073242188 556.921875 m 0
 196.555664062 562.872070312 186.498046875 565.846679688 172.8984375 565.846679688 c 0
 162.130859375 565.846679688 154.198242188 562.729492188 149.09765625 556.497070312 c 0
 142.865234375 549.129882812 139.181640625 538.646484375 138.048828125 525.046875 c 2
 138.048828125 522.497070312 l 2
 138.048828125 512.296875 140.315429688 504.646484375 144.848632812 499.546875 c 0
 149.381835938 494.446289062 159.865234375 491.330078125 176.297851562 490.196289062 c 2
 177.1484375 490.196289062 l 2
 187.915039062 490.196289062 196.131835938 493.029296875 201.798828125 498.696289062 c 0
 208.032226562 505.497070312 211.71484375 514.563476562 212.84765625 525.896484375 c 2
 212.84765625 528.446289062 l 2
 212.84765625 541.479492188 209.58984375 550.971679688 203.073242188 556.921875 c 0
306.7734375 78.3720703125 m 0
 297.990234375 96.2216796875 293.59765625 115.34765625 293.59765625 135.747070312 c 2
 293.59765625 137.447265625 l 2xfb
 293.59765625 174.84765625 305.21484375 205.872070312 328.448242188 230.522460938 c 0
 351.680664062 255.172851562 383.981445312 267.497070312 425.34765625 267.497070312 c 0
 457.6484375 267.497070312 484.84765625 257.014648438 506.948242188 236.047851562 c 0
 518.28125 225.280273438 526.498046875 210.547851562 531.59765625 191.84765625 c 0
 535.565429688 178.247070312 537.547851562 163.23046875 537.547851562 146.797851562 c 0
 537.547851562 141.130859375 537.264648438 135.463867188 536.698242188 129.796875 c 0
 534.998046875 92.396484375 524.231445312 63.921875 504.3984375 44.3720703125 c 0
 484.565429688 24.8212890625 454.815429688 15.046875 415.1484375 15.046875 c 2
 410.8984375 15.046875 l 2
 387.09765625 15.61328125 365.990234375 21.8466796875 347.573242188 33.7470703125 c 0
 329.15625 45.646484375 315.555664062 60.521484375 306.7734375 78.3720703125 c 0
421.09765625 100.897460938 m 0
 421.665039062 100.897460938 422.516601562 100.614257812 423.649414062 100.047851562 c 0
 433.849609375 100.047851562 441.216796875 103.1640625 445.75 109.397460938 c 0
 451.982421875 116.764648438 455.666015625 126.96484375 456.798828125 139.997070312 c 2
 456.798828125 141.697265625 l 2
 456.798828125 155.297851562 454.249023438 165.497070312 449.1484375 172.297851562 c 0
 443.482421875 180.23046875 433.565429688 184.197265625 419.3984375 184.197265625 c 0
 408.630859375 184.197265625 400.4140625 180.514648438 394.747070312 173.147460938 c 0
 387.947265625 164.647460938 383.98046875 153.314453125 382.84765625 139.147460938 c 2
 382.84765625 136.59765625 l 2
 382.84765625 125.264648438 385.254882812 116.622070312 390.072265625 110.672851562 c 0
 394.888671875 104.72265625 405.231445312 101.46484375 421.09765625 100.897460938 c 0
EndSplineSet
Validated: 1
EndChar

StartChar: ampersand
Encoding: 38 38 6
Width: 548
VWidth: 901
GlyphClass: 2
Flags: W
HStem: 5.25684 100.3<198.114 313.256> 589.205 87.5498<248.473 326.326>
VStem: 66.6484 105.4<132.585 288.834> 140.599 101.15<474.607 579.961> 339.499 91.7998<480.245 577.151>
LayerCount: 2
Fore
SplineSet
515.450195312 60.5009765625 m 0xd8
 515.450195312 57.66796875 515.166015625 54.5546875 514.598632812 51.1552734375 c 0
 512.33203125 31.322265625 505.532226562 18.2890625 494.19921875 12.0556640625 c 0
 483.432617188 8.0888671875 476.631835938 6.10546875 473.798828125 6.10546875 c 2
 472.94921875 6.10546875 l 2
 465.58203125 6.10546875 457.649414062 8.0888671875 449.149414062 12.0556640625 c 0
 434.416015625 19.4228515625 421.94921875 32.1728515625 411.749023438 50.3056640625 c 0
 410.048828125 53.138671875 407.357421875 59.513671875 403.673828125 69.4306640625 c 0
 399.991210938 79.34765625 397.298828125 86.5732421875 395.598632812 91.10546875 c 1
 382.848632812 74.53125 l 2
 380.015625 70.84765625 375.19921875 65.46484375 368.399414062 58.3818359375 c 0
 361.598632812 51.298828125 355.791015625 45.7734375 350.973632812 41.806640625 c 0
 346.157226562 37.83984375 339.640625 33.1650390625 331.422851562 27.78125 c 0
 323.206054688 22.3984375 315.130859375 18.431640625 307.198242188 15.8818359375 c 0
 299.265625 13.33203125 290.198242188 10.923828125 279.998046875 8.65625 c 0
 269.797851562 6.3896484375 259.315429688 5.2568359375 248.547851562 5.2568359375 c 0
 214.547851562 5.2568359375 183.5234375 13.8984375 155.473632812 31.181640625 c 0
 127.422851562 48.46484375 105.606445312 71.2724609375 90.0234375 99.60546875 c 0
 74.4404296875 127.938476562 66.6484375 158.5390625 66.6484375 191.40625 c 0xe8
 66.6484375 240.706054688 75.71484375 282.922851562 93.8486328125 318.055664062 c 0
 115.380859375 359.422851562 149.098632812 391.72265625 194.998046875 414.956054688 c 1
 180.123046875 438.331054688 l 2
 174.172851562 447.680664062 169.640625 454.90625 166.5234375 460.005859375 c 0
 163.40625 465.10546875 159.723632812 471.763671875 155.473632812 479.98046875 c 0
 151.223632812 488.198242188 148.248046875 495.422851562 146.547851562 501.65625 c 0
 142.581054688 518.65625 140.598632812 535.373046875 140.598632812 551.805664062 c 0
 140.598632812 562.573242188 142.015625 573.48046875 144.848632812 584.53125 c 0
 147.681640625 595.581054688 152.78125 606.772460938 160.1484375 618.10546875 c 0
 167.515625 629.438476562 176.58203125 639.497070312 187.348632812 648.280273438 c 0
 198.116210938 657.063476562 211.999023438 664.004882812 228.999023438 669.10546875 c 0
 245.999023438 674.205078125 264.982421875 676.754882812 285.94921875 676.754882812 c 0
 303.515625 676.754882812 320.798828125 674.063476562 337.798828125 668.6796875 c 0
 354.798828125 663.296875 370.381835938 655.221679688 384.548828125 644.455078125 c 0
 398.715820312 633.688476562 410.048828125 619.521484375 418.548828125 601.954101562 c 0
 427.048828125 584.387695312 431.298828125 564.836914062 431.298828125 543.303710938 c 0
 431.298828125 524.037109375 428.749023438 506.044921875 423.649414062 489.328125 c 0
 418.548828125 472.611328125 412.173828125 458.5859375 404.524414062 447.252929688 c 0
 396.874023438 435.919921875 387.381835938 425.294921875 376.048828125 415.377929688 c 0
 364.715820312 405.4609375 355.083007812 397.953125 347.150390625 392.853515625 c 0
 339.216796875 387.752929688 331 383.220703125 322.5 379.252929688 c 1
 332.700195312 362.252929688 347.0078125 340.861328125 365.424804688 315.078125 c 0
 383.841796875 289.294921875 397.299804688 270.169921875 405.799804688 257.703125 c 1
 407.5 261.103515625 409.908203125 266.345703125 413.025390625 273.428710938 c 0
 416.141601562 280.51171875 419.258789062 287.453125 422.375976562 294.252929688 c 0
 425.493164062 301.053710938 428.184570312 306.153320312 430.451171875 309.553710938 c 0
 441.784179688 326.553710938 453.118164062 337.036132812 464.451171875 341.002929688 c 0
 468.983398438 342.703125 473.80078125 343.553710938 478.900390625 343.553710938 c 0
 486.833984375 343.553710938 494.766601562 341.5703125 502.700195312 337.603515625 c 0
 515.733398438 331.370117188 523.3828125 320.603515625 525.650390625 305.303710938 c 0
 526.216796875 301.903320312 526.784179688 298.220703125 527.350585938 294.252929688 c 0
 527.350585938 282.353515625 523.951171875 269.88671875 517.150390625 256.853515625 c 0
 514.317382812 251.186523438 506.100585938 239.994140625 492.500976562 223.27734375 c 0
 478.900390625 206.560546875 467.850585938 191.96875 459.350585938 179.501953125 c 1
 465.583984375 169.301757812 473.94140625 154.993164062 484.424804688 136.577148438 c 0
 494.908203125 118.16015625 501.283203125 106.967773438 503.549804688 103.000976562 c 0
 511.483398438 89.400390625 515.450195312 75.234375 515.450195312 60.5009765625 c 0xd8
241.749023438 537.35546875 m 0xd8
 241.749023438 524.887695312 245.149414062 511.2890625 251.94921875 496.555664062 c 0
 258.749023438 481.823242188 266.399414062 469.073242188 274.899414062 458.305664062 c 1
 283.965820312 461.138671875 292.041015625 464.396484375 299.124023438 468.080078125 c 0
 306.20703125 471.762695312 313.149414062 476.438476562 319.94921875 482.10546875 c 0
 326.749023438 487.771484375 331.70703125 494.85546875 334.82421875 503.35546875 c 0
 337.94140625 511.85546875 339.499023438 522.337890625 339.499023438 534.8046875 c 0
 339.499023438 552.372070312 334.116210938 565.830078125 323.348632812 575.1796875 c 0
 312.58203125 584.530273438 299.407226562 589.205078125 283.82421875 589.205078125 c 0
 268.241210938 589.205078125 257.048828125 584.387695312 250.249023438 574.754882812 c 0
 244.58203125 566.254882812 241.749023438 553.788085938 241.749023438 537.35546875 c 0xd8
172.048828125 199.055664062 m 0xe8
 172.048828125 171.85546875 179.278320312 149.473632812 193.728515625 131.90625 c 0
 208.178710938 114.33984375 226.736328125 105.556640625 249.403320312 105.556640625 c 0
 261.870117188 105.556640625 274.903320312 107.823242188 288.502929688 112.356445312 c 0
 293.036132812 114.056640625 297.994140625 116.749023438 303.376953125 120.431640625 c 0
 308.760742188 124.114257812 312.868164062 127.08984375 315.701171875 129.356445312 c 0
 318.534179688 131.624023438 322.217773438 135.306640625 326.750976562 140.40625 c 0
 331.284179688 145.506835938 334.400390625 149.048828125 336.100585938 151.03125 c 0
 337.80078125 153.014648438 340.067382812 156.131835938 342.900390625 160.381835938 c 0
 345.733398438 164.631835938 347.716796875 167.323242188 348.849609375 168.45703125 c 0
 340.916992188 185.45703125 333.266601562 200.756835938 325.900390625 214.356445312 c 0
 319.099609375 227.389648438 306.349609375 247.22265625 287.650390625 273.85546875 c 0
 268.950195312 300.489257812 255.06640625 320.888671875 246 335.055664062 c 1
 233.533203125 328.823242188 222.765625 321.456054688 213.69921875 312.956054688 c 0
 202.932617188 302.755859375 194.57421875 291.706054688 188.624023438 279.805664062 c 0
 182.673828125 267.90625 178.423828125 255.438476562 175.874023438 242.40625 c 0
 173.32421875 229.373046875 172.048828125 214.922851562 172.048828125 199.055664062 c 0xe8
EndSplineSet
Validated: 1
EndChar

StartChar: quotesingle
Encoding: 39 39 7
Width: 548
VWidth: 941
GlyphClass: 2
Flags: W
HStem: 460.326 298.349<258.432 326.323>
VStem: 241.749 110.501<473.45 750.054>
LayerCount: 2
Fore
SplineSet
352.25 710.224609375 m 2
 352.25 675.375976562 l 2
 352.25 660.076171875 351.96484375 636.55859375 351.3984375 604.826171875 c 0
 350.265625 555.526367188 348.282226562 521.526367188 345.44921875 502.826171875 c 0
 343.182617188 488.092773438 336.94921875 477.04296875 326.749023438 469.67578125 c 0
 317.682617188 463.442382812 307.765625 460.326171875 296.998046875 460.326171875 c 0
 282.265625 460.326171875 269.232421875 464.576171875 257.899414062 473.076171875 c 0
 247.131835938 481.008789062 241.749023438 492.05859375 241.749023438 506.225585938 c 0
 241.749023438 507.92578125 242.032226562 509.342773438 242.598632812 510.475585938 c 0
 243.732421875 533.142578125 244.298828125 558.642578125 244.298828125 586.975585938 c 0
 244.298828125 627.208984375 243.44921875 669.42578125 241.749023438 713.625976562 c 2
 241.749023438 716.17578125 l 2
 241.749023438 724.109375 243.44921875 731.192382812 246.848632812 737.424804688 c 0
 250.81640625 744.224609375 256.483398438 749.325195312 263.849609375 752.724609375 c 0
 274.049804688 756.692382812 284.533203125 758.674804688 295.299804688 758.674804688 c 0
 303.799804688 758.674804688 310.599609375 757.825195312 315.700195312 756.125 c 0
 321.3671875 754.424804688 326.75 752.158203125 331.849609375 749.325195312 c 0
 338.083007812 745.924804688 342.900390625 740.541992188 346.299804688 733.174804688 c 0
 349.700195312 726.375 351.682617188 718.724609375 352.25 710.224609375 c 2
EndSplineSet
Validated: 1
EndChar

StartChar: parenleft
Encoding: 40 40 8
Width: 548
VWidth: 901
GlyphClass: 2
Flags: W
HStem: -71.2461 92.6504<351.792 421.55> 664.004 89.2949<339.671 419.823>
VStem: 159.298 104.338<168.879 531.798>
LayerCount: 2
Fore
SplineSet
433.849609375 -27.896484375 m 0
 433.849609375 -40.36328125 429.030273438 -50.5634765625 419.397460938 -58.49609375 c 0
 409.764648438 -66.4287109375 399.564453125 -70.6787109375 388.796875 -71.24609375 c 0
 347.997070312 -71.24609375 311.447265625 -56.7958984375 279.147460938 -27.896484375 c 0
 246.84765625 1.00390625 220.780273438 40.103515625 200.947265625 89.404296875 c 0
 181.114257812 138.704101562 168.081054688 195.37109375 161.84765625 259.404296875 c 0
 160.1484375 276.970703125 159.297851562 298.788085938 159.297851562 324.854492188 c 0
 159.297851562 350.921875 160.998046875 383.504882812 164.3984375 422.604492188 c 0
 170.065429688 490.038085938 181.3984375 545.571289062 198.3984375 589.204101562 c 0
 205.764648438 609.037109375 215.681640625 628.303710938 228.149414062 647.00390625 c 0
 240.616210938 665.704101562 255.348632812 683.270507812 272.348632812 699.704101562 c 0
 288.782226562 715.571289062 307.19921875 728.603515625 327.598632812 738.803710938 c 0
 347.461914062 748.466796875 367.0703125 753.298828125 386.423828125 753.298828125 c 0
 387.5 753.298828125 388.575195312 753.284179688 389.649414062 753.25390625 c 0
 405.515625 753.25390625 417.416015625 748.436523438 425.348632812 738.803710938 c 0
 431.58203125 731.436523438 434.69921875 721.237304688 434.69921875 708.204101562 c 0
 434.69921875 692.904296875 429.881835938 681.571289062 420.249023438 674.204101562 c 0
 411.181640625 667.404296875 400.415039062 664.00390625 387.948242188 664.00390625 c 0
 375.481445312 664.00390625 363.581054688 660.037109375 352.248046875 652.103515625 c 0
 340.915039062 644.737304688 330.71484375 634.25390625 321.6484375 620.654296875 c 0
 303.514648438 593.454101562 289.915039062 559.454101562 280.84765625 518.654296875 c 0
 273.481445312 488.62109375 268.380859375 448.670898438 265.547851562 398.803710938 c 0
 264.2734375 379.25390625 263.635742188 361.298828125 263.635742188 344.936523438 c 0
 263.635742188 339.482421875 263.706054688 334.204101562 263.84765625 329.103515625 c 0
 263.84765625 308.704101562 264.415039062 290.571289062 265.547851562 274.704101562 c 0
 268.380859375 241.270507812 274.331054688 208.404296875 283.3984375 176.103515625 c 0
 292.46484375 143.803710938 303.232421875 116.603515625 315.69921875 94.50390625 c 0
 327.598632812 71.8369140625 340.348632812 53.7041015625 353.94921875 40.103515625 c 0
 366.416015625 27.63671875 378.033203125 21.404296875 388.799804688 21.404296875 c 0
 402.399414062 21.404296875 413.450195312 17.720703125 421.950195312 10.353515625 c 0
 429.8828125 2.9873046875 433.849609375 -9.7626953125 433.849609375 -27.896484375 c 0
EndSplineSet
Validated: 1
EndChar

StartChar: parenright
Encoding: 41 41 9
Width: 548
VWidth: 901
GlyphClass: 2
Flags: W
HStem: -71.2422 92.6494<172.4 242.122> 664.009 89.335<174.176 254.895>
VStem: 330.363 104.336<171.545 530.138>
LayerCount: 2
Fore
SplineSet
205.200195312 -71.2421875 m 0
 194.432617188 -71.2421875 184.233398438 -66.9912109375 174.600585938 -58.4912109375 c 0
 164.967773438 -50.55859375 160.150390625 -40.3583984375 160.150390625 -27.8916015625 c 0
 160.150390625 -9.7587890625 164.118164062 2.9912109375 172.05078125 10.3583984375 c 0
 179.455078125 17.7626953125 189.573242188 21.4638671875 202.407226562 21.4638671875 c 0
 203.325195312 21.4638671875 204.255859375 21.4453125 205.201171875 21.4072265625 c 0
 215.400390625 21.4072265625 226.733398438 27.640625 239.201171875 40.107421875 c 0
 253.368164062 53.7080078125 266.400390625 71.8408203125 278.30078125 94.5078125 c 0
 290.201171875 117.174804688 300.967773438 144.375 310.600585938 176.107421875 c 0
 319.66796875 208.407226562 325.618164062 241.274414062 328.451171875 274.708007812 c 0
 329.725585938 287.45703125 330.36328125 301.163085938 330.36328125 315.825195312 c 0
 330.36328125 320.712890625 330.29296875 325.70703125 330.150390625 330.807617188 c 0
 330.150390625 350.640625 329.583984375 373.307617188 328.451171875 398.807617188 c 0
 325.618164062 448.674804688 320.517578125 488.625 313.150390625 518.657226562 c 0
 304.083984375 558.890625 290.483398438 592.890625 272.350585938 620.657226562 c 0
 263.850585938 634.2578125 253.650390625 644.740234375 241.750976562 652.107421875 c 0
 230.41796875 659.474609375 218.517578125 663.44140625 206.05078125 664.008789062 c 0
 193.583984375 664.008789062 182.81640625 667.408203125 173.75 674.208007812 c 0
 164.1171875 681.575195312 159.299804688 692.908203125 159.299804688 708.208007812 c 0
 159.299804688 716.708007812 160.716796875 724.358398438 163.549804688 731.158203125 c 0
 166.3828125 737.391601562 170.6328125 742.491210938 176.299804688 746.458007812 c 0
 183.439453125 751.047851562 191.7265625 753.34375 201.161132812 753.34375 c 0
 202.209960938 753.34375 203.272460938 753.315429688 204.349609375 753.258789062 c 0
 225.31640625 753.258789062 246 748.44140625 266.400390625 738.80859375 c 0
 286.799804688 728.608398438 305.216796875 715.575195312 321.650390625 699.708007812 c 0
 338.083007812 683.841796875 352.533203125 666.274414062 365 647.0078125 c 0
 377.466796875 628.307617188 387.666992188 609.041015625 395.599609375 589.208007812 c 0
 412.033203125 545.57421875 423.366210938 490.041015625 429.598632812 422.608398438 c 0
 432.999023438 383.508789062 434.69921875 350.92578125 434.69921875 324.858398438 c 0
 434.69921875 298.791015625 433.848632812 276.974609375 432.149414062 259.407226562 c 0
 425.916015625 195.375 412.8828125 138.708007812 393.049804688 89.4072265625 c 0
 373.216796875 40.107421875 346.8671875 1.0078125 314 -27.892578125 c 0
 282.266601562 -56.7919921875 246 -71.2421875 205.200195312 -71.2421875 c 0
EndSplineSet
Validated: 1
EndChar

StartChar: asterisk
Encoding: 42 42 10
Width: 548
VWidth: 902
GlyphClass: 2
Flags: W
HStem: 297.702 101.15<87.5012 209.427 413.809 512.055> 301.951 85.8516<376.05 474.54>
LayerCount: 2
Fore
SplineSet
223.049804688 138.75 m 2x40
 214.546875 138.75 l 2
 210.580078125 138.75 205.622070312 139.3203125 199.671875 140.453125 c 0
 193.72265625 141.586914062 187.9140625 143.850585938 182.247070312 147.25 c 0
 176.580078125 150.650390625 171.48046875 155.75390625 166.947265625 162.553710938 c 0
 162.4140625 169.353515625 159.296875 177.287109375 157.59765625 186.353515625 c 2
 157.59765625 192.303710938 l 2
 157.59765625 200.803710938 159.864257812 209.583984375 164.397460938 218.651367188 c 2
 211.147460938 294.303710938 l 1
 174.314453125 292.037109375 146.264648438 290.903320312 126.997070312 290.903320312 c 0
 109.997070312 290.903320312 96.6806640625 296.5703125 87.046875 307.903320312 c 0
 78.546875 318.103515625 74.0146484375 330.00390625 73.447265625 343.603515625 c 2
 73.447265625 346.153320312 l 2
 73.447265625 357.486328125 76.564453125 368.819335938 82.796875 380.15234375 c 0
 86.7646484375 386.953125 92.7138671875 392.052734375 100.647460938 395.453125 c 0
 106.879882812 398.286132812 113.680664062 399.703125 121.046875 399.703125 c 2
 125.296875 399.703125 l 2
 147.963867188 398.002929688 179.981445312 395.736328125 221.34765625 392.90234375 c 1
 201.514648438 425.76953125 184.797851562 451.552734375 171.198242188 470.252929688 c 0
 163.264648438 483.286132812 159.297851562 496.036132812 159.297851562 508.502929688 c 0
 159.297851562 510.76953125 159.581054688 513.037109375 160.1484375 515.303710938 c 0
 161.84765625 531.170898438 168.6484375 542.220703125 180.547851562 548.453125 c 0
 187.915039062 552.986328125 196.2734375 555.25390625 205.623046875 555.25390625 c 0
 214.97265625 555.25390625 224.46484375 552.419921875 234.09765625 546.752929688 c 0
 243.731445312 541.0859375 251.380859375 532.870117188 257.047851562 522.102539062 c 0
 262.71484375 510.203125 276.315429688 483.569335938 297.84765625 442.203125 c 1
 314.28125 471.669921875 327.880859375 498.01953125 338.6484375 521.252929688 c 0
 343.748046875 532.01953125 350.831054688 540.094726562 359.8984375 545.477539062 c 0
 368.96484375 550.861328125 377.748046875 553.552734375 386.248046875 553.552734375 c 0
 395.315429688 553.552734375 403.815429688 551.286132812 411.748046875 546.752929688 c 0
 419.115234375 542.786132812 425.065429688 536.977539062 429.59765625 529.328125 c 0
 434.130859375 521.677734375 436.3984375 512.752929688 436.3984375 502.552734375 c 0
 436.3984375 491.219726562 432.998046875 480.736328125 426.198242188 471.103515625 c 0
 410.8984375 448.436523438 393.8984375 420.669921875 375.198242188 387.802734375 c 1x40
 414.297851562 388.370117188 442.630859375 391.203125 460.198242188 396.302734375 c 0
 467.565429688 398.002929688 472.381835938 398.852539062 474.6484375 398.852539062 c 0x80
 485.416015625 398.852539062 494.765625 395.169921875 502.69921875 387.802734375 c 0x40
 514.032226562 377.036132812 519.982421875 365.418945312 520.548828125 352.952148438 c 0
 520.548828125 340.485351562 517.431640625 328.584960938 511.19921875 317.251953125 c 0
 507.232421875 310.452148438 501.848632812 305.069335938 495.048828125 301.1015625 c 0
 489.94921875 298.834960938 484.565429688 297.702148438 478.8984375 297.702148438 c 0x80
 476.065429688 297.702148438 473.232421875 297.985351562 470.399414062 298.551757812 c 0
 458.594726562 300.913085938 439.315429688 302.092773438 412.560546875 302.092773438 c 0
 407.206054688 302.092773438 401.552734375 302.045898438 395.599609375 301.951171875 c 2
 376.049804688 301.951171875 l 1
 424.5 218.651367188 l 2
 430.732421875 206.184570312 433.849609375 194.8515625 433.849609375 184.651367188 c 0
 433.849609375 182.383789062 433.56640625 180.1171875 433 177.850585938 c 0
 431.299804688 164.25 425.349609375 154.6171875 415.149414062 148.950195312 c 0
 407.216796875 143.850585938 397.299804688 141.30078125 385.399414062 141.30078125 c 0
 376.333007812 141.30078125 367.265625 143.283203125 358.19921875 147.25 c 0
 346.866210938 152.350585938 339.215820312 160.850585938 335.249023438 172.75 c 0
 329.015625 191.450195312 317.682617188 217.517578125 301.25 250.950195312 c 1
 280.283203125 209.017578125 266.965820312 180.966796875 261.298828125 166.80078125 c 0
 258.465820312 157.733398438 253.5078125 150.93359375 246.424804688 146.400390625 c 0
 239.341796875 141.8671875 231.549804688 139.317382812 223.049804688 138.75 c 2x40
EndSplineSet
Validated: 1
EndChar

StartChar: plus
Encoding: 43 43 11
Width: 548
VWidth: 909
GlyphClass: 2
Flags: W
HStem: 354.024 90.0986<137.601 251.099 340.349 458.177>
VStem: 251.099 89.25<237.896 353.173 444.973 564.475>
LayerCount: 2
Fore
SplineSet
339.5 354.875 m 1
 340.348632812 272.423828125 l 2
 340.348632812 255.991210938 336.381835938 244.374023438 328.44921875 237.57421875 c 0
 320.515625 230.20703125 310.598632812 226.240234375 298.69921875 225.672851562 c 2
 297.848632812 225.672851562 l 2
 284.249023438 225.672851562 273.765625 228.790039062 266.399414062 235.0234375 c 0
 256.19921875 242.956054688 251.098632812 255.422851562 251.098632812 272.422851562 c 2
 251.098632812 353.172851562 l 1
 175.44921875 352.323242188 l 2
 158.44921875 352.323242188 145.69921875 356.856445312 137.19921875 365.922851562 c 0
 128.131835938 374.990234375 123.598632812 386.040039062 123.598632812 399.073242188 c 2
 123.598632812 401.623046875 l 2
 123.598632812 413.5234375 127.56640625 424.005859375 135.499023438 433.073242188 c 0
 143.999023438 442.139648438 156.181640625 446.672851562 172.048828125 446.672851562 c 0
 173.181640625 446.672851562 182.249023438 446.389648438 199.249023438 445.823242188 c 0
 216.249023438 445.255859375 233.532226562 444.97265625 251.098632812 444.97265625 c 1
 251.098632812 478.40625 250.249023438 506.739257812 248.548828125 529.97265625 c 0
 248.548828125 545.838867188 253.931640625 557.456054688 264.69921875 564.823242188 c 0
 272.631835938 570.490234375 282.83203125 573.323242188 295.298828125 573.323242188 c 2
 298.69921875 573.323242188 l 2
 310.598632812 573.323242188 320.798828125 570.490234375 329.298828125 564.823242188 c 0
 338.931640625 558.0234375 343.749023438 546.97265625 343.749023438 531.672851562 c 2
 343.749023438 526.573242188 l 2
 342.048828125 497.672851562 340.916015625 470.190429688 340.348632812 444.123046875 c 1
 423.649414062 444.123046875 l 2
 440.08203125 444.123046875 451.69921875 440.15625 458.499023438 432.22265625 c 0
 465.298828125 424.290039062 469.265625 414.373046875 470.399414062 402.47265625 c 2
 470.399414062 401.623046875 l 2
 470.399414062 395.389648438 469.83203125 390.006835938 468.69921875 385.473632812 c 0
 467.56640625 380.374023438 465.298828125 375.2734375 461.899414062 370.173828125 c 0
 457.931640625 363.940429688 452.548828125 359.408203125 445.749023438 356.57421875 c 0
 440.649414062 354.875 434.982421875 354.024414062 428.749023438 354.024414062 c 2
 422.798828125 354.024414062 l 2
 414.298828125 355.158203125 402.116210938 355.724609375 386.249023438 355.724609375 c 0
 369.81640625 355.724609375 354.232421875 355.44140625 339.5 354.875 c 1
EndSplineSet
Validated: 1
EndChar

StartChar: comma
Encoding: 44 44 12
Width: 548
VWidth: 845
GlyphClass: 2
Flags: W
VStem: 199.253 195.499
LayerCount: 2
Fore
SplineSet
272.350585938 -194.5 m 0
 263.283203125 -197.900390625 255.3515625 -199.598632812 248.551757812 -199.598632812 c 0
 241.751953125 -199.598632812 235.801757812 -198.465820312 230.702148438 -196.19921875 c 0
 223.334960938 -193.932617188 216.53515625 -189.682617188 210.301757812 -183.44921875 c 0
 204.069335938 -177.215820312 200.385742188 -169.283203125 199.252929688 -159.650390625 c 2
 199.252929688 -154.549804688 l 2
 199.252929688 -146.049804688 202.0859375 -137.549804688 207.752929688 -129.049804688 c 0
 219.0859375 -113.182617188 234.953125 -76.6328125 255.352539062 -19.400390625 c 0
 275.752929688 36.7001953125 288.502929688 76.650390625 293.602539062 100.450195312 c 0
 295.870117188 110.650390625 300.969726562 118.583007812 308.903320312 124.25 c 0
 316.8359375 130.483398438 325.619140625 133.599609375 335.251953125 133.599609375 c 2
 336.952148438 133.599609375 l 2
 343.751953125 133.599609375 350.834960938 133.033203125 358.202148438 131.900390625 c 0
 369.53515625 128.5 378.884765625 121.700195312 386.251953125 111.5 c 0
 391.918945312 103.567382812 394.751953125 94.7841796875 394.751953125 85.1513671875 c 0
 394.751953125 81.18359375 394.46875 77.7841796875 393.90234375 74.951171875 c 0
 388.235351562 47.18359375 375.768554688 4.1171875 356.500976562 -54.25 c 0
 337.234375 -113.182617188 322.500976562 -149.733398438 312.30078125 -163.900390625 c 0
 301.534179688 -178.6328125 288.217773438 -188.833007812 272.350585938 -194.5 c 0
EndSplineSet
Validated: 1
EndChar

StartChar: hyphen
Encoding: 45 45 13
Width: 548
VWidth: 893
GlyphClass: 2
Flags: W
HStem: 238.626 95.1992<170.723 426.728> 246.277 90.0996<308.672 426.728>
VStem: 155.05 283.9<262.774 324.103>
LayerCount: 2
Fore
SplineSet
200.950195312 333.825195312 m 0xa0
 233.25 333.825195312 271.5 334.109375 315.700195312 334.67578125 c 0
 360.466796875 335.243164062 385.966796875 335.809570312 392.200195312 336.376953125 c 0
 408.6328125 336.376953125 420.25 332.41015625 427.049804688 324.4765625 c 0
 433.849609375 316.543945312 437.817382812 306.626953125 438.950195312 294.7265625 c 2
 438.950195312 293.876953125 l 2
 438.950195312 280.27734375 435.833007812 269.793945312 429.599609375 262.426757812 c 0
 421.666992188 252.2265625 409.200195312 246.84375 392.200195312 246.27734375 c 0x60
 384.833007812 246.27734375 356.215820312 245.143554688 306.349609375 242.876953125 c 0
 256.482421875 240.610351562 221.631835938 239.193359375 201.798828125 238.625976562 c 0
 188.765625 238.625976562 178.283203125 242.026367188 170.349609375 248.826171875 c 0
 160.150390625 256.758789062 155.049804688 268.942382812 155.049804688 285.375 c 2
 155.049804688 289.625 l 2
 155.049804688 305.4921875 160.150390625 317.392578125 170.349609375 325.325195312 c 0
 177.716796875 330.9921875 187.916992188 333.825195312 200.950195312 333.825195312 c 0xa0
EndSplineSet
Validated: 1
EndChar

StartChar: period
Encoding: 46 46 14
Width: 548
VWidth: 859
GlyphClass: 2
Flags: W
HStem: -12.6475 151.331<243.324 351.341>
VStem: 217.028 158.981<13.8255 112.81>
LayerCount: 2
Fore
SplineSet
290.127929688 -12.6474609375 m 2
 270.294921875 -12.6474609375 253.579101562 -5.84765625 239.978515625 7.7529296875 c 0
 224.678710938 23.6201171875 217.028320312 42.037109375 217.028320312 63.00390625 c 0
 217.028320312 83.970703125 225.528320312 101.8203125 242.528320312 116.553710938 c 0
 259.467773438 131.306640625 278.250976562 138.68359375 298.877929688 138.68359375 c 0
 299.642578125 138.68359375 300.409179688 138.673828125 301.178710938 138.653320312 c 0
 322.711914062 138.653320312 340.561523438 131.853515625 354.728515625 118.25390625 c 0
 368.916015625 104.06640625 376.009765625 87.251953125 376.009765625 67.8095703125 c 0
 376.009765625 56.6474609375 375.46875 33.5732421875 355.578125 12.8525390625 c 0
 341.411132812 -1.314453125 322.7109375 -9.814453125 299.477539062 -12.6474609375 c 2
 290.127929688 -12.6474609375 l 2
EndSplineSet
Validated: 1
EndChar

StartChar: slash
Encoding: 47 47 15
Width: 548
VWidth: 901
GlyphClass: 2
Flags: W
HStem: -10.9971 21G<112.795 120.728>
LayerCount: 2
Fore
SplineSet
140.5625 -5.0498046875 m 0
 132.629882812 -9.0166015625 124.694335938 -10.9970703125 116.76171875 -10.9970703125 c 0
 108.828125 -10.9970703125 101.461914062 -8.73046875 94.662109375 -4.197265625 c 0
 83.328125 2.6025390625 76.5283203125 15.6357421875 74.26171875 34.9033203125 c 0
 73.6943359375 37.736328125 73.6943359375 40.8525390625 74.26171875 44.2529296875 c 0
 74.26171875 59.552734375 78.228515625 73.7197265625 86.162109375 86.7529296875 c 0
 168.89453125 222.752929688 239.727539062 343.453125 298.661132812 448.852539062 c 1
 335.494140625 513.453125 374.59375 587.120117188 415.9609375 669.852539062 c 0
 421.627929688 680.620117188 428.995117188 688.552734375 438.061523438 693.653320312 c 0
 447.12890625 699.3203125 456.1953125 702.436523438 465.262695312 703.00390625 c 0
 474.329101562 703.00390625 483.396484375 701.020507812 492.462890625 697.053710938 c 0
 505.49609375 690.25390625 513.99609375 680.053710938 517.962890625 666.454101562 c 0
 519.096679688 662.487304688 519.663085938 658.51953125 519.663085938 654.552734375 c 0
 519.663085938 644.919921875 516.830078125 634.153320312 511.163085938 622.252929688 c 0
 496.430664062 592.786132812 455.063476562 521.668945312 387.063476562 408.90234375 c 0
 319.063476562 296.134765625 277.696289062 225.868164062 262.962890625 198.1015625 c 0
 253.896484375 180.534179688 239.163085938 150.784179688 218.763671875 108.8515625 c 0
 198.36328125 66.91796875 185.61328125 41.41796875 180.513671875 32.3515625 c 0
 169.74609375 14.7841796875 156.4296875 2.3173828125 140.5625 -5.0498046875 c 0
EndSplineSet
Validated: 1
EndChar

StartChar: zero
Encoding: 48 48 16
Width: 548
VWidth: 902
GlyphClass: 2
Flags: W
HStem: 31.6494 91.7959<216.997 361.883> 572.246 90.1035<230.319 367.044>
VStem: 76.001 101.151<246.696 504.098> 416.284 101.718<188.819 441.346>
LayerCount: 2
Fore
SplineSet
415.151367188 441.345703125 m 1
 353.383789062 333.112304688 282.268554688 240.74609375 201.801757812 164.24609375 c 1
 217.1015625 137.612304688 242.034179688 124.012695312 276.600585938 123.4453125 c 0
 293.034179688 123.4453125 307.202148438 124.720703125 319.1015625 127.270507812 c 0
 331.001953125 129.8203125 342.334960938 133.928710938 353.1015625 139.595703125 c 0
 374.634765625 150.928710938 391.068359375 173.87890625 402.401367188 208.4453125 c 0
 404.66796875 215.24609375 407.217773438 233.520507812 410.05078125 263.270507812 c 0
 412.883789062 293.020507812 414.8671875 327.4453125 416 366.545898438 c 0
 416.189453125 375.049804688 416.284179688 383.491210938 416.284179688 391.869140625 c 0
 416.284179688 408.61328125 415.90625 425.10546875 415.151367188 441.345703125 c 1
348.8515625 562.047851562 m 0
 334.119140625 568.84765625 317.967773438 572.24609375 300.401367188 572.24609375 c 0
 269.234375 572.24609375 245.008789062 564.454101562 227.725585938 548.87109375 c 0
 210.443359375 533.288085938 196.985351562 506.795898438 187.3515625 469.395507812 c 0
 183.384765625 454.663085938 180.551757812 439.080078125 178.8515625 422.646484375 c 0
 177.71875 405.646484375 177.15234375 386.379882812 177.15234375 364.846679688 c 0
 177.15234375 330.846679688 178.000976562 291.463867188 179.701171875 246.696289062 c 1
 253.368164062 340.763671875 320.801757812 437.380859375 382.001953125 536.547851562 c 1
 372.369140625 547.314453125 361.318359375 555.814453125 348.8515625 562.047851562 c 0
513.75 469.395507812 m 2
 513.75 468.547851562 l 2
 516.583007812 435.115234375 518.001953125 401.112304688 518.001953125 366.545898438 c 0
 518.001953125 331.978515625 516.869140625 297.981445312 514.6015625 264.547851562 c 0
 512.334960938 231.115234375 508.65234375 204.765625 503.551757812 185.498046875 c 0
 493.3515625 149.231445312 480.6015625 119.764648438 465.301757812 97.09765625 c 0
 457.369140625 85.7646484375 448.443359375 76.130859375 438.52734375 68.1982421875 c 0
 428.610351562 60.265625 418.267578125 54.0322265625 407.500976562 49.4990234375 c 0
 396.16796875 44.9658203125 383.41796875 40.9990234375 369.250976562 37.5986328125 c 0
 354.517578125 34.765625 340.068359375 33.06640625 325.901367188 32.4990234375 c 0
 311.734375 31.9326171875 295.30078125 31.6494140625 276.600585938 31.6494140625 c 0
 246.000976562 31.6494140625 217.66796875 36.4658203125 191.600585938 46.0986328125 c 0
 167.234375 55.732421875 146.55078125 69.4736328125 129.55078125 87.32421875 c 0
 112.55078125 105.173828125 99.517578125 126.56640625 90.451171875 151.499023438 c 0
 81.3837890625 176.432617188 76.8505859375 203.348632812 76.8505859375 232.249023438 c 2
 76.8505859375 237.348632812 l 2
 76.8505859375 265.116210938 76.568359375 291.182617188 76.0009765625 315.549804688 c 0
 76.0009765625 333.1171875 76.42578125 354.650390625 77.2763671875 380.150390625 c 0
 78.1259765625 405.650390625 79.54296875 426.7578125 81.5263671875 443.474609375 c 0
 83.5087890625 460.19140625 86.484375 478.18359375 90.451171875 497.451171875 c 0
 94.41796875 517.284179688 99.517578125 534.56640625 105.750976562 549.299804688 c 0
 120.484375 586.1328125 145.133789062 614.182617188 179.701171875 633.450195312 c 0
 217.100585938 652.716796875 262.434570312 662.349609375 315.701171875 662.349609375 c 0
 342.333984375 662.349609375 367.267578125 658.3828125 390.5 650.450195312 c 0
 413.166992188 642.516601562 433.142578125 630.6171875 450.424804688 614.75 c 0
 467.708007812 598.8828125 481.875 578.625 492.924804688 553.974609375 c 0
 503.975585938 529.325195312 510.916992188 501.12890625 513.75 469.395507812 c 2
EndSplineSet
Validated: 1
EndChar

StartChar: one
Encoding: 49 49 17
Width: 548
VWidth: 904
GlyphClass: 2
Flags: W
HStem: 46.4307 94.3516<80.6209 243.446 354.8 510.824>
VStem: 242.597 109.653<145.032 487.007> 252.797 104.553<380.243 526.682>
LayerCount: 2
Fore
SplineSet
524.799804688 96.5810546875 m 1xc0
 524.799804688 94.03125 l 2
 524.799804688 80.998046875 520.830078125 69.9482421875 512.897460938 60.880859375 c 0
 504.397460938 51.248046875 489.947265625 46.4306640625 469.546875 46.4306640625 c 0
 254.780273438 48.130859375 136.913085938 49.263671875 115.946289062 49.8310546875 c 0
 100.079101562 49.8310546875 88.1796875 54.3642578125 80.24609375 63.4306640625 c 0
 72.8798828125 72.498046875 69.1962890625 83.5478515625 69.1962890625 96.5810546875 c 2
 69.1962890625 99.130859375 l 2
 69.1962890625 111.59765625 72.5966796875 122.365234375 79.396484375 131.431640625 c 0
 87.3291015625 141.631835938 99.796875 146.731445312 116.795898438 146.731445312 c 0
 140.596679688 146.731445312 182.813476562 146.165039062 243.446289062 145.032226562 c 1
 243.446289062 162.032226562 243.163085938 176.198242188 242.596679688 187.532226562 c 0
 242.029296875 192.631835938 241.74609375 207.365234375 241.74609375 231.731445312 c 0
 241.74609375 253.264648438 242.029296875 270.83203125 242.596679688 284.431640625 c 0xc0
 242.596679688 299.731445312 243.729492188 330.33203125 245.99609375 376.231445312 c 0
 249.962890625 462.365234375 252.23046875 512.514648438 252.796875 526.681640625 c 1
 215.963867188 501.181640625 187.9140625 485.032226562 168.647460938 478.231445312 c 0
 161.84765625 476.532226562 157.314453125 475.681640625 155.046875 475.681640625 c 0
 144.84765625 475.681640625 134.647460938 479.931640625 124.447265625 488.431640625 c 0
 110.84765625 499.764648438 104.046875 511.381835938 104.046875 523.282226562 c 0
 104.046875 534.615234375 106.59765625 544.389648438 111.697265625 552.606445312 c 0
 116.796875 560.823242188 125.013671875 569.181640625 136.34765625 577.681640625 c 0
 152.213867188 589.58203125 173.180664062 605.448242188 199.248046875 625.282226562 c 1
 210.014648438 626.981445312 220.782226562 634.631835938 231.548828125 648.231445312 c 0
 241.181640625 655.032226562 251.098632812 661.264648438 261.298828125 666.931640625 c 0
 270.571289062 672.083007812 279.375 674.659179688 287.7109375 674.659179688 c 0
 288.544921875 674.659179688 289.374023438 674.633789062 290.19921875 674.58203125 c 0
 306.065429688 674.58203125 321.932617188 668.915039062 337.799804688 657.58203125 c 0
 346.299804688 651.348632812 352.674804688 645.681640625 356.924804688 640.58203125 c 0
 361.174804688 635.481445312 363.299804688 630.381835938 363.299804688 625.282226562 c 2
 363.299804688 624.431640625 l 2
 362.732421875 611.3984375 360.75 566.7734375 357.349609375 490.556640625 c 0xa0
 353.94921875 414.33984375 352.25 369.71484375 352.25 356.681640625 c 0
 352.25 302.282226562 352.533203125 256.948242188 353.099609375 220.681640625 c 0
 353.099609375 201.981445312 353.666992188 175.631835938 354.799804688 141.631835938 c 1
 385.399414062 141.064453125 404.94921875 140.782226562 413.44921875 140.782226562 c 0
 421.3828125 140.782226562 432.0078125 140.639648438 445.32421875 140.356445312 c 0
 458.641601562 140.073242188 467.283203125 139.931640625 471.250976562 139.931640625 c 0
 489.950195312 139.931640625 503.267578125 135.823242188 511.200195312 127.606445312 c 0
 519.133789062 119.389648438 523.666992188 109.33203125 524.799804688 97.431640625 c 2
 524.799804688 96.5810546875 l 1xc0
EndSplineSet
Validated: 1
EndChar

StartChar: two
Encoding: 50 50 18
Width: 548
VWidth: 902
GlyphClass: 2
Flags: W
HStem: 37.3477 92.166<185.304 451.793> 42.4473 96.8994<454.516 503.232> 573.698 92.6504<231.574 375.136>
VStem: 396.452 107.1<437.124 554.868>
LayerCount: 2
Fore
SplineSet
454.25 138.5 m 1xb0
 459.916992188 145.866210938 465.870117188 146.146484375 472.102539062 139.346679688 c 0
 473.802734375 139.346679688 477.060546875 139.204101562 481.877929688 138.921875 c 0
 486.694335938 138.638671875 490.51953125 137.788085938 493.352539062 136.37109375 c 0
 496.185546875 134.954101562 499.018554688 133.396484375 501.8515625 131.696289062 c 0
 506.384765625 128.86328125 509.501953125 125.462890625 511.202148438 121.49609375 c 0
 514.6015625 114.696289062 516.301757812 106.763671875 516.301757812 97.6962890625 c 0
 516.301757812 81.263671875 512.051757812 67.3798828125 503.551757812 56.046875 c 0
 496.751953125 46.98046875 487.96875 42.447265625 477.202148438 42.447265625 c 0x70
 436.96875 42.447265625 372.369140625 40.7470703125 283.40234375 37.34765625 c 0
 253.369140625 36.2138671875 222.486328125 35.6474609375 190.752929688 35.6474609375 c 0
 161.286132812 35.6474609375 138.3359375 36.7802734375 121.903320312 39.046875 c 0
 112.8359375 40.1806640625 104.903320312 43.86328125 98.1025390625 50.0966796875 c 0
 93.0029296875 54.6298828125 89.0361328125 60.5791015625 86.203125 67.9462890625 c 0
 80.5361328125 82.6796875 77.703125 103.079101562 77.703125 129.146484375 c 0
 77.703125 155.212890625 83.0859375 181.563476562 93.8525390625 208.196289062 c 0
 104.620117188 234.829101562 120.76953125 260.471679688 142.302734375 285.12109375 c 0
 163.8359375 309.771484375 189.619140625 329.74609375 219.65234375 345.046875 c 0
 285.952148438 377.346679688 328.452148438 400.013671875 347.15234375 413.046875 c 0
 369.819335938 428.913085938 384.551757812 445.629882812 391.3515625 463.197265625 c 0
 394.751953125 473.963867188 396.452148438 487.28125 396.452148438 503.1484375 c 0
 396.452148438 528.081054688 388.801757812 545.930664062 373.501953125 556.698242188 c 0
 357.069335938 568.03125 332.418945312 573.698242188 299.551757812 573.698242188 c 0
 277.452148438 573.698242188 256.34375 567.46484375 236.2265625 554.998046875 c 0
 216.110351562 542.53125 200.384765625 528.6484375 189.051757812 513.34765625 c 0
 183.384765625 505.415039062 177.435546875 498.756835938 171.202148438 493.374023438 c 0
 164.96875 487.991210938 158.452148438 485.015625 151.65234375 484.44921875 c 0
 149.384765625 484.44921875 146.834960938 484.166015625 144.001953125 483.598632812 c 0
 138.334960938 483.598632812 128.985351562 486.431640625 115.952148438 492.098632812 c 0
 103.485351562 498.8984375 95.5517578125 508.532226562 92.15234375 520.999023438 c 0
 91.5849609375 524.3984375 91.3017578125 527.515625 91.3017578125 530.348632812 c 0
 91.3017578125 539.982421875 94.4189453125 551.598632812 100.65234375 565.19921875 c 0
 106.884765625 577.098632812 115.952148438 588.857421875 127.8515625 600.473632812 c 0
 139.751953125 612.090820312 153.3515625 622.999023438 168.65234375 633.19921875 c 0
 185.084960938 643.3984375 204.634765625 651.473632812 227.301757812 657.423828125 c 0
 249.96875 663.374023438 272.918945312 666.348632812 296.15234375 666.348632812 c 0
 365.8515625 666.348632812 417.985351562 651.8984375 452.551757812 622.999023438 c 0
 486.551757812 594.098632812 503.551757812 550.749023438 503.551757812 492.94921875 c 0
 503.551757812 445.348632812 490.801757812 406.815429688 465.301757812 377.348632812 c 0
 446.6015625 356.381835938 412.6015625 333.431640625 363.301757812 308.499023438 c 0
 350.834960938 302.265625 329.301757812 292.065429688 298.702148438 277.8984375 c 0
 273.202148438 265.999023438 251.952148438 251.407226562 234.952148438 234.124023438 c 0
 217.952148438 216.840820312 205.485351562 199.1328125 197.551757812 181 c 0
 191.319335938 165.700195312 187.069335938 149.266601562 184.801757812 131.700195312 c 1
 213.4609375 130.2421875 240.87109375 129.513671875 267.032226562 129.513671875 c 0
 271.389648438 129.513671875 275.712890625 129.534179688 280.000976562 129.575195312 c 0
 310.034179688 129.857421875 333.267578125 130.283203125 349.700195312 130.849609375 c 0
 366.700195312 131.982421875 401.55078125 134.533203125 454.25 138.5 c 1xb0
EndSplineSet
Validated: 1
EndChar

StartChar: three
Encoding: 51 51 19
Width: 548
VWidth: 902
GlyphClass: 2
Flags: W
HStem: 31.9346 91.8145<221.493 367.931> 312.449 106.25<191.537 340.757> 573.399 92.6514<218.583 364.776>
VStem: 384.477 107.947<456.205 555.338> 405.725 105.4<158.827 272.805>
LayerCount: 2
Fore
SplineSet
501.775390625 289.923828125 m 0xf0
 508.0078125 271.506835938 511.125 249.829101562 511.125 224.896484375 c 0
 511.125 165.962890625 492.141601562 118.930664062 454.174804688 83.796875 c 0
 415.696289062 49.2216796875 360.478515625 31.9345703125 288.521484375 31.9345703125 c 0
 287.360351562 31.9345703125 286.1953125 31.939453125 285.025390625 31.9482421875 c 0
 261.791992188 31.9482421875 238.841796875 35.0654296875 216.174804688 41.2978515625 c 0
 193.5078125 47.53125 174.3828125 55.4638671875 158.799804688 65.09765625 c 0
 143.216796875 74.73046875 129.474609375 85.4970703125 117.575195312 97.3974609375 c 0
 105.674804688 109.296875 96.75 121.055664062 90.7998046875 132.671875 c 0
 84.849609375 144.2890625 81.875 155.197265625 81.875 165.397460938 c 0
 81.875 168.796875 82.4423828125 172.197265625 83.5751953125 175.59765625 c 0
 86.408203125 189.764648438 94.0576171875 199.680664062 106.525390625 205.34765625 c 0
 115.591796875 209.880859375 124.091796875 212.1484375 132.025390625 212.1484375 c 0
 149.025390625 212.1484375 164.325195312 203.081054688 177.924804688 184.948242188 c 0
 190.391601562 168.514648438 206.541992188 154.20703125 226.375 142.0234375 c 0
 246.208007812 129.840820312 267.174804688 123.749023438 289.275390625 123.749023438 c 0
 323.841796875 123.749023438 351.891601562 132.107421875 373.424804688 148.82421875 c 0
 394.958007812 165.541015625 405.724609375 186.6484375 405.724609375 212.1484375 c 0xe8
 405.724609375 228.58203125 402.891601562 242.607421875 397.224609375 254.223632812 c 0
 391.557617188 265.840820312 382.6328125 276.041015625 370.450195312 284.82421875 c 0
 358.266601562 293.607421875 340.984375 300.407226562 318.600585938 305.223632812 c 0
 296.217773438 310.041015625 268.875976562 312.44921875 236.576171875 312.44921875 c 0
 220.142578125 312.44921875 206.54296875 318.116210938 195.775390625 329.44921875 c 0
 184.442382812 340.782226562 178.775390625 353.532226562 178.775390625 367.69921875 c 0
 178.775390625 381.866210938 182.743164062 393.765625 190.67578125 403.3984375 c 0
 199.743164062 413.598632812 212.775390625 418.69921875 229.775390625 418.69921875 c 0
 279.642578125 418.69921875 318.459960938 426.916015625 346.2265625 443.348632812 c 0
 371.7265625 458.6484375 384.4765625 480.749023438 384.4765625 509.6484375 c 2
 384.4765625 512.19921875 l 1
 384.4765625 515.598632812 l 2
 384.4765625 534.866210938 376.543945312 549.033203125 360.676757812 558.099609375 c 0
 341.9765625 568.299804688 314.776367188 573.399414062 279.076171875 573.399414062 c 0
 268.309570312 573.399414062 256.692382812 571.700195312 244.225585938 568.299804688 c 0
 240.826171875 567.166992188 236.859375 565.041992188 232.326171875 561.924804688 c 0
 227.79296875 558.807617188 224.250976562 556.2578125 221.701171875 554.274414062 c 0
 219.150390625 552.291992188 215.750976562 549.033203125 211.500976562 544.500976562 c 0
 207.250976562 539.967773438 204.275390625 536.567382812 202.576171875 534.30078125 c 0
 199.17578125 523.533203125 196.05859375 519.56640625 193.225585938 522.399414062 c 1
 181.892578125 507.666992188 170.275390625 498.883789062 158.375976562 496.05078125 c 0
 154.975585938 494.91796875 151.29296875 494.350585938 147.326171875 494.350585938 c 0
 138.826171875 494.350585938 130.04296875 496.900390625 120.975585938 502.000976562 c 0
 108.508789062 508.233398438 100.859375 518.150390625 98.025390625 531.750976562 c 0
 97.458984375 535.150390625 97.17578125 538.55078125 97.17578125 541.950195312 c 0
 97.17578125 552.150390625 100.008789062 563.200195312 105.67578125 575.100585938 c 0
 117.576171875 599.467773438 135.993164062 620.150390625 160.92578125 637.150390625 c 0
 173.958984375 646.217773438 190.391601562 653.30078125 210.224609375 658.400390625 c 0
 230.057617188 663.500976562 251.590820312 666.05078125 274.82421875 666.05078125 c 0
 349.624023438 666.05078125 404.874023438 652.16796875 440.57421875 624.400390625 c 0
 475.140625 596.633789062 492.423828125 556.116210938 492.423828125 502.849609375 c 2
 492.423828125 499.450195312 l 1
 492.423828125 496.899414062 l 2
 492.423828125 481.033203125 490.015625 466.158203125 485.19921875 452.274414062 c 0
 480.381835938 438.391601562 473.865234375 426.633789062 465.6484375 417.000976562 c 0
 457.431640625 407.3671875 447.65625 398.8671875 436.323242188 391.500976562 c 0
 424.990234375 384.133789062 413.373046875 378.466796875 401.473632812 374.5 c 1
 410.540039062 371.666992188 418.756835938 368.833984375 426.124023438 366.000976562 c 0
 443.69140625 358.633789062 459.1328125 348.716796875 472.450195312 336.25 c 0
 485.766601562 323.783203125 495.541992188 308.340820312 501.775390625 289.923828125 c 0xf0
EndSplineSet
Validated: 1
EndChar

StartChar: four
Encoding: 52 52 20
Width: 548
VWidth: 902
GlyphClass: 2
Flags: W
HStem: 238.799 76.501<186.683 358.198 444.05 501.992>
VStem: 352.25 75.6494<392.344 553.299> 358.198 92.6514<44.0773 237.95> 358.198 85.002<315.3 551.981>
LayerCount: 2
Fore
SplineSet
449.149414062 102.799804688 m 0x90
 450.283203125 96 450.849609375 89.7666015625 450.849609375 84.099609375 c 0
 450.849609375 72.7666015625 448.583007812 62.849609375 444.049804688 54.349609375 c 0
 436.682617188 40.1826171875 425.916015625 33.099609375 411.749023438 33.099609375 c 0
 399.848632812 33.099609375 388.090820312 37.4921875 376.473632812 46.275390625 c 0
 364.857421875 55.0576171875 358.764648438 64.265625 358.198242188 73.8994140625 c 0xa0
 357.630859375 80.69921875 357.348632812 91.4658203125 357.348632812 106.19921875 c 2
 357.348632812 170.798828125 l 2
 357.348632812 194.032226562 357.630859375 216.69921875 358.198242188 238.798828125 c 1x90
 319.948242188 238.798828125 l 2
 236.081054688 238.798828125 176.864257812 235.116210938 142.296875 227.749023438 c 0
 138.330078125 226.616210938 134.080078125 226.19140625 129.546875 226.473632812 c 0
 125.014648438 226.756835938 120.481445312 227.46484375 115.948242188 228.598632812 c 0
 108.015625 231.431640625 101.640625 235.823242188 96.8232421875 241.7734375 c 0
 92.005859375 247.723632812 88.3232421875 254.5234375 85.7734375 262.172851562 c 0
 83.2236328125 269.823242188 81.9482421875 277.615234375 81.9482421875 285.547851562 c 0
 81.9482421875 294.615234375 83.365234375 303.115234375 86.1982421875 311.047851562 c 0
 91.865234375 327.481445312 107.165039062 353.40625 132.098632812 388.823242188 c 0
 157.03125 424.240234375 189.8984375 468.297851562 230.698242188 520.998046875 c 0
 266.96484375 567.46484375 295.865234375 605.432617188 317.3984375 634.899414062 c 0
 325.331054688 645.666015625 334.3984375 654.024414062 344.598632812 659.973632812 c 0
 354.797851562 665.923828125 364.71484375 668.899414062 374.348632812 668.899414062 c 2
 380.297851562 668.899414062 l 2
 390.498046875 668.899414062 399.848632812 666.916015625 408.348632812 662.94921875 c 0
 419.115234375 657.282226562 425.631835938 647.649414062 427.899414062 634.048828125 c 2
 427.899414062 633.19921875 l 1xc0
 431.298828125 613.366210938 434.131835938 583.19140625 436.399414062 542.673828125 c 0
 438.666015625 502.157226562 440.083007812 467.732421875 440.649414062 439.399414062 c 0
 441.216796875 397.465820312 442.06640625 355.81640625 443.200195312 314.44921875 c 1
 451.700195312 313.881835938 461.049804688 313.598632812 471.25 313.598632812 c 0
 485.982421875 313.598632812 496.325195312 310.340820312 502.274414062 303.82421875 c 0
 508.224609375 297.307617188 511.482421875 288.94921875 512.049804688 278.749023438 c 2
 512.049804688 277.900390625 l 2
 512.049804688 266 509.216796875 256.650390625 503.549804688 249.849609375 c 0
 496.75 241.349609375 485.982421875 237.099609375 471.25 237.099609375 c 0
 461.6171875 237.099609375 452.549804688 237.3828125 444.049804688 237.950195312 c 1
 445.182617188 159.182617188 446.8828125 114.1328125 449.149414062 102.799804688 c 0x90
300.399414062 315.299804688 m 2
 358.198242188 315.299804688 l 1x90
 358.198242188 413.333007812 356.216796875 492.666015625 352.25 553.298828125 c 1xc0
 271.783203125 451.866210938 216.25 371.682617188 185.649414062 312.75 c 1
 217.3828125 314.450195312 255.6328125 315.299804688 300.399414062 315.299804688 c 2
EndSplineSet
Validated: 1
EndChar

StartChar: five
Encoding: 53 53 21
Width: 548
VWidth: 902
GlyphClass: 2
Flags: W
HStem: 36.748 92.6504<202.488 349.991> 398.848 96.0859<233.151 386.054> 567.146 88.3984<186.424 466.402>
VStem: 82.7246 101.149<448.516 564.595> 414.223 105.401<199.306 369.924>
LayerCount: 2
Fore
SplineSet
86.974609375 528.899414062 m 0
 88.107421875 546.465820312 88.669921875 559.493164062 88.669921875 567.993164062 c 1
 82.9560546875 577.342773438 80.099609375 588.12109375 80.099609375 600.327148438 c 0
 80.099609375 611.431640625 80.5498046875 631.234375 97.1708984375 646.193359375 c 0
 105.103515625 653.560546875 114.170898438 657.243164062 124.37109375 657.243164062 c 0
 145.337890625 657.243164062 198.037109375 656.676757812 282.470703125 655.543945312 c 0
 368.037109375 654.41015625 431.220703125 653.84375 472.020507812 653.84375 c 0
 482.787109375 653.84375 491.5703125 649.310546875 498.37109375 640.243164062 c 0
 506.87109375 628.91015625 511.12109375 615.02734375 511.12109375 598.594726562 c 0
 511.12109375 581.594726562 506.303710938 570.26171875 496.670898438 564.594726562 c 0
 493.837890625 562.89453125 491.004882812 561.477539062 488.171875 560.344726562 c 0
 485.338867188 559.2109375 481.513671875 558.502929688 476.696289062 558.219726562 c 0
 471.879882812 557.9375 468.479492188 557.794921875 466.49609375 557.794921875 c 0
 464.513671875 557.794921875 461.396484375 557.9375 457.146484375 558.219726562 c 0
 452.896484375 558.502929688 450.204101562 558.645507812 449.071289062 558.645507812 c 1
 441.138671875 558.645507812 426.405273438 559.778320312 404.872070312 562.044921875 c 0
 382.205078125 563.745117188 362.23046875 565.020507812 344.947265625 565.870117188 c 0
 327.6640625 566.719726562 304.431640625 567.145507812 275.248046875 567.145507812 c 0
 246.065429688 567.145507812 216.45703125 566.294921875 186.423828125 564.594726562 c 1
 184.610351562 530.59765625 183.704101562 507.478515625 183.704101562 495.23828125 c 0
 183.704101562 492.176757812 183.760742188 489.795898438 183.874023438 488.094726562 c 0
 183.874023438 477.895507812 183.732421875 470.669921875 183.44921875 466.419921875 c 0
 183.166015625 462.169921875 183.307617188 456.078125 183.875 448.145507812 c 1
 199.174804688 459.478515625 217.591796875 469.395507812 239.125 477.895507812 c 0
 268.874023438 489.25390625 302.237304688 494.93359375 339.215820312 494.93359375 c 0
 340.9765625 494.93359375 342.747070312 494.920898438 344.524414062 494.895507812 c 0
 373.9921875 494.895507812 400.341796875 490.078125 423.575195312 480.4453125 c 0
 445.107421875 470.8125 462.815429688 457.354492188 476.69921875 440.071289062 c 0
 490.58203125 422.788085938 501.20703125 402.955078125 508.57421875 380.572265625 c 0
 515.940429688 358.188476562 519.624023438 333.963867188 519.624023438 307.896484375 c 0
 519.624023438 265.963867188 514.241210938 227.85546875 503.473632812 193.572265625 c 0
 492.70703125 159.290039062 477.264648438 130.672851562 457.1484375 107.72265625 c 0
 437.03125 84.7724609375 411.956054688 67.34765625 381.922851562 55.447265625 c 0
 351.323242188 42.98046875 318.172851562 36.748046875 282.47265625 36.748046875 c 0
 254.139648438 36.748046875 227.790039062 39.5810546875 203.422851562 45.248046875 c 0
 179.623046875 50.9150390625 160.356445312 58.28125 145.623046875 67.3486328125 c 0
 130.889648438 76.4150390625 118.422851562 86.33203125 108.22265625 97.099609375 c 0
 98.0234375 107.866210938 89.5234375 119.19921875 82.72265625 131.099609375 c 0
 76.490234375 144.69921875 73.373046875 156.31640625 73.373046875 165.94921875 c 0
 73.373046875 169.349609375 73.9404296875 172.749023438 75.0732421875 176.149414062 c 0
 77.90625 188.616210938 85.8388671875 198.249023438 98.8720703125 205.049804688 c 0
 105.671875 207.8828125 111.197265625 209.865234375 115.447265625 210.998046875 c 0
 119.697265625 212.131835938 123.379882812 212.698242188 126.497070312 212.698242188 c 0
 129.614257812 212.698242188 132.022460938 212.415039062 133.72265625 211.848632812 c 0
 141.088867188 211.28125 147.889648438 208.165039062 154.122070312 202.498046875 c 0
 159.22265625 197.96484375 164.60546875 191.731445312 170.272460938 183.798828125 c 0
 195.772460938 147.53125 230.055664062 129.3984375 273.122070312 129.3984375 c 0
 316.189453125 129.3984375 350.189453125 144.131835938 375.122070312 173.598632812 c 0
 401.189453125 204.198242188 414.22265625 245.565429688 414.22265625 297.698242188 c 0
 414.22265625 329.431640625 406.2890625 354.364257812 390.421875 372.498046875 c 0
 375.689453125 390.064453125 352.456054688 398.84765625 320.72265625 398.84765625 c 0
 305.990234375 398.84765625 290.407226562 397.147460938 273.973632812 393.748046875 c 0
 266.041015625 392.047851562 254.991210938 388.081054688 240.82421875 381.84765625 c 0
 237.423828125 380.147460938 233.032226562 377.314453125 227.649414062 373.34765625 c 0
 222.265625 369.380859375 218.723632812 366.547851562 217.024414062 364.84765625 c 0
 207.390625 356.915039062 199.458007812 350.114257812 193.224609375 344.447265625 c 0
 180.19140625 333.680664062 165.174804688 327.447265625 148.174804688 325.748046875 c 2
 142.224609375 325.748046875 l 2
 134.291992188 325.748046875 126.641601562 327.447265625 119.274414062 330.84765625 c 0
 107.375 335.947265625 98.3076171875 346.71484375 92.0751953125 363.147460938 c 0
 86.974609375 377.314453125 83.857421875 394.881835938 82.724609375 415.848632812 c 0
 82.44140625 420.381835938 82.2998046875 424.915039062 82.2998046875 429.44921875 c 0
 82.2998046875 433.982421875 82.44140625 438.515625 82.724609375 443.049804688 c 0
 82.724609375 462.8828125 84.1416015625 491.499023438 86.974609375 528.899414062 c 0
EndSplineSet
Validated: 1
EndChar

StartChar: six
Encoding: 54 54 22
Width: 548
VWidth: 903
GlyphClass: 2
Flags: W
HStem: 34.9199 91.7969<229.535 359.105> 376.618 96.9014<224.897 388.991>
VStem: 71.751 98.5996<191.193 332.616> 417.7 104.551<187.652 347.737>
LayerCount: 2
Fore
SplineSet
509.5 360.471679688 m 0
 518 333.837890625 522.250976562 302.953125 522.250976562 267.819335938 c 0
 522.250976562 235.51953125 516.583984375 205.203125 505.250976562 176.870117188 c 0
 483.151367188 119.069335938 444.618164062 77.703125 389.651367188 52.76953125 c 0
 362.0078125 40.8447265625 332.55078125 34.8828125 301.278320312 34.8828125 c 0
 299.856445312 34.8828125 298.430664062 34.8955078125 297.000976562 34.919921875 c 0
 257.333984375 34.919921875 222.201171875 41.7197265625 191.600585938 55.3193359375 c 0
 162.701171875 69.486328125 139.609375 89.3193359375 122.326171875 114.819335938 c 0
 105.04296875 140.319335938 92.29296875 169.927734375 84.076171875 203.64453125 c 0
 75.859375 237.361328125 71.7509765625 274.336914062 71.7509765625 314.569335938 c 0
 71.7509765625 365.569335938 76.708984375 411.044921875 86.6259765625 450.995117188 c 0
 96.54296875 490.944335938 109.859375 524.377929688 126.577148438 551.294921875 c 0
 143.293945312 578.211914062 164.401367188 600.736328125 189.901367188 618.870117188 c 0
 216.53515625 637.569335938 245.434570312 651.736328125 276.6015625 661.370117188 c 0
 307.768554688 671.002929688 342.051757812 677.235351562 379.452148438 680.069335938 c 2
 388.801757812 680.069335938 l 2
 401.834960938 680.069335938 413.16796875 677.801757812 422.80078125 673.268554688 c 0
 435.833984375 667.036132812 443.484375 657.119140625 445.750976562 643.518554688 c 2
 445.750976562 640.119140625 l 2
 445.750976562 631.619140625 441.500976562 622.8359375 433.000976562 613.768554688 c 0
 423.93359375 604.702148438 413.451171875 598.46875 401.55078125 595.069335938 c 0
 394.750976562 593.369140625 384.267578125 591.244140625 370.100585938 588.694335938 c 0
 355.93359375 586.143554688 344.034179688 583.735351562 334.401367188 581.46875 c 0
 324.767578125 579.202148438 313.717773438 575.801757812 301.250976562 571.268554688 c 0
 276.318359375 562.202148438 251.100585938 544.918945312 225.600585938 519.418945312 c 0
 212.568359375 505.819335938 200.66796875 487.40234375 189.901367188 464.168945312 c 0
 184.80078125 452.268554688 180.267578125 441.21875 176.30078125 431.018554688 c 1
 191.600585938 441.786132812 208.883789062 450.286132812 228.151367188 456.518554688 c 0
 259.883789062 467.286132812 295.583984375 472.953125 335.250976562 473.51953125 c 0
 365.284179688 473.51953125 391.916992188 469.552734375 415.150390625 461.620117188 c 0
 437.25 453.686523438 456.375 441.50390625 472.525390625 425.0703125 c 0
 488.674804688 408.637695312 501 387.104492188 509.5 360.471679688 c 0
254.500976562 134.369140625 m 0
 267.534179688 129.268554688 281.416992188 126.716796875 296.150390625 126.716796875 c 2
 297.850585938 126.716796875 l 1
 298.700195312 126.716796875 l 2
 318.533203125 126.716796875 337.799804688 133.234375 356.5 146.267578125 c 0
 375.200195312 159.299804688 390.075195312 175.875 401.125 195.9921875 c 0
 412.174804688 216.109375 417.700195312 236.651367188 417.700195312 257.618164062 c 0
 417.700195312 306.3515625 408.350585938 338.651367188 389.650390625 354.517578125 c 0
 380.017578125 362.451171875 369.109375 368.118164062 356.92578125 371.517578125 c 0
 344.743164062 374.91796875 329.30078125 376.618164062 310.600585938 376.618164062 c 0
 281.701171875 376.618164062 254.784179688 370.243164062 229.850585938 357.493164062 c 0
 204.91796875 344.743164062 184.80078125 328.451171875 169.500976562 308.618164062 c 1
 169.500976562 287.084960938 169.784179688 269.235351562 170.350585938 255.068359375 c 0
 172.618164062 231.267578125 180.834960938 208.03515625 195.001953125 185.368164062 c 0
 202.369140625 174.03515625 210.869140625 163.9765625 220.501953125 155.194335938 c 0
 230.134765625 146.411132812 241.467773438 139.46875 254.500976562 134.369140625 c 0
EndSplineSet
Validated: 1
EndChar

StartChar: seven
Encoding: 55 55 23
Width: 548
VWidth: 901
GlyphClass: 2
Flags: W
HStem: 562.675 96.0508<115.722 394.749>
LayerCount: 2
Fore
SplineSet
235.799804688 562.674804688 m 0
 179.69921875 561.541992188 143.431640625 558.994140625 126.999023438 555.02734375 c 0
 123.598632812 553.89453125 119.7734375 553.327148438 115.5234375 553.327148438 c 0
 111.2734375 553.327148438 106.881835938 554.177734375 102.348632812 555.877929688 c 0
 94.982421875 558.7109375 89.3154296875 562.9609375 85.34765625 568.627929688 c 0
 77.4150390625 578.827148438 73.1650390625 590.444335938 72.59765625 603.477539062 c 1
 72.59765625 597.810546875 72.59765625 598.09375 72.59765625 604.327148438 c 0
 72.59765625 616.2265625 75.998046875 626.143554688 82.7978515625 634.077148438 c 0
 89.59765625 642.009765625 101.21484375 647.392578125 117.6484375 650.225585938 c 0
 148.248046875 655.892578125 199.53125 658.725585938 271.498046875 658.725585938 c 0
 300.96484375 658.725585938 341.482421875 657.592773438 393.048828125 655.326171875 c 0
 441.782226562 653.625976562 467.282226562 652.776367188 469.548828125 652.776367188 c 0
 476.916015625 652.776367188 484.140625 651.217773438 491.223632812 648.100585938 c 0
 498.306640625 644.984375 504.96484375 640.026367188 511.198242188 633.225585938 c 0
 517.430664062 625.859375 520.831054688 616.225585938 521.3984375 604.326171875 c 0
 521.3984375 594.125976562 518.28125 582.79296875 512.047851562 570.326171875 c 0
 504.115234375 553.326171875 489.665039062 528.250976562 468.698242188 495.100585938 c 0
 447.731445312 461.951171875 425.630859375 428.092773438 402.3984375 393.526367188 c 0
 378.03125 358.958984375 348.28125 312.916992188 313.1484375 255.400390625 c 0
 278.014648438 197.8828125 244.865234375 139.090820312 213.698242188 79.0244140625 c 0
 205.764648438 62.5908203125 194.71484375 50.408203125 180.547851562 42.474609375 c 0
 169.78125 35.6748046875 159.581054688 32.275390625 149.948242188 32.275390625 c 0
 146.547851562 32.275390625 143.1484375 32.55859375 139.748046875 33.125 c 0
 124.448242188 36.525390625 113.680664062 45.025390625 107.448242188 58.625 c 0
 104.615234375 64.8583984375 103.198242188 71.5166015625 103.198242188 78.599609375 c 0
 103.198242188 85.6826171875 105.180664062 93.474609375 109.1484375 101.974609375 c 0
 138.047851562 158.641601562 170.065429688 215.024414062 205.198242188 271.124023438 c 0
 241.46484375 327.224609375 271.357421875 371.70703125 294.874023438 404.57421875 c 0
 318.390625 437.44140625 339.07421875 467.7578125 356.923828125 495.525390625 c 0
 374.7734375 523.291992188 387.381835938 545.674804688 394.749023438 562.674804688 c 1
 370.3828125 563.241210938 344.953125 563.524414062 318.461914062 563.524414062 c 0
 291.970703125 563.524414062 264.416015625 563.241210938 235.799804688 562.674804688 c 0
EndSplineSet
Validated: 1
EndChar

StartChar: eight
Encoding: 56 56 24
Width: 548
VWidth: 901
GlyphClass: 2
Flags: W
HStem: 27.9492 93.5<209.543 375.659> 580.449 81.6016<226.274 350.757>
VStem: 66.5732 94.3525<164.875 280.772> 89.5234 102.853<458.86 548.025> 389.575 99.4502<455.871 543.569> 426.976 99.4482<166.506 285.924>
LayerCount: 2
Fore
SplineSet
227.225585938 134.19921875 m 0xe4
 247.05859375 125.69921875 268.30859375 121.44921875 290.975585938 121.44921875 c 0
 306.842773438 121.44921875 322.850585938 123.715820312 339.000976562 128.249023438 c 0
 355.150390625 132.782226562 369.883789062 139.298828125 383.200195312 147.798828125 c 0
 396.517578125 156.298828125 407.142578125 167.06640625 415.075195312 180.099609375 c 0
 423.008789062 193.131835938 426.975585938 207.298828125 426.975585938 222.599609375 c 0
 426.975585938 231.099609375 426.125976562 239.032226562 424.42578125 246.399414062 c 0
 422.725585938 253.765625 419.325195312 262.265625 414.225585938 271.899414062 c 0
 409.125976562 281.532226562 402.04296875 290.599609375 392.975585938 299.099609375 c 0
 383.908203125 307.599609375 371.30078125 316.381835938 355.150390625 325.44921875 c 0
 339.000976562 334.515625 319.875976562 342.733398438 297.775390625 350.099609375 c 1
 256.975585938 339.900390625 223.825195312 322.6171875 198.325195312 298.25 c 0
 173.392578125 273.8828125 160.92578125 247.81640625 160.92578125 220.048828125 c 0
 160.92578125 201.349609375 166.875976562 184.349609375 178.775390625 169.048828125 c 0
 191.80859375 153.749023438 207.958984375 142.131835938 227.225585938 134.19921875 c 0xe4
220.848632812 554.524414062 m 0
 201.866210938 537.241210938 192.375976562 518.682617188 192.375976562 498.849609375 c 0
 192.375976562 482.983398438 200.592773438 468.81640625 217.025390625 456.349609375 c 0
 234.025390625 443.31640625 262.642578125 429.999023438 302.875976562 416.399414062 c 1
 326.108398438 425.465820312 346.3671875 437.366210938 363.649414062 452.099609375 c 0
 380.932617188 466.83203125 389.575195312 479.58203125 389.575195312 490.349609375 c 0xd8
 389.575195312 504.515625 385.182617188 518.399414062 376.399414062 531.999023438 c 0
 367.6171875 545.599609375 355.291992188 557.07421875 339.424804688 566.423828125 c 0
 323.557617188 575.774414062 306.840820312 580.44921875 289.274414062 580.44921875 c 2
 287.57421875 580.44921875 l 2
 262.07421875 580.44921875 239.83203125 571.807617188 220.848632812 554.524414062 c 0
523.450195312 260.849609375 m 0
 525.432617188 250.650390625 526.423828125 239.881835938 526.423828125 228.548828125 c 0
 526.423828125 209.849609375 523.874023438 191.432617188 518.774414062 173.298828125 c 0
 513.673828125 155.166015625 505.173828125 137.173828125 493.274414062 119.32421875 c 0
 481.374023438 101.474609375 466.640625 86.0322265625 449.07421875 72.9990234375 c 0
 431.506835938 59.9658203125 408.415039062 49.19921875 379.797851562 40.69921875 c 0
 351.181640625 32.19921875 320.014648438 27.94921875 286.296875 27.94921875 c 0
 252.580078125 27.94921875 222.405273438 31.916015625 195.772460938 39.849609375 c 0
 170.272460938 47.7822265625 149.73046875 58.1240234375 134.147460938 70.8740234375 c 0
 118.564453125 83.6240234375 105.53125 98.640625 95.0478515625 115.923828125 c 0
 84.5654296875 133.20703125 77.1982421875 150.631835938 72.9482421875 168.19921875 c 0
 68.6982421875 185.765625 66.5732421875 204.182617188 66.5732421875 223.450195312 c 0xe4
 66.5732421875 242.716796875 71.6728515625 263.541992188 81.873046875 285.924804688 c 0
 92.0732421875 308.307617188 107.08984375 329.1328125 126.922851562 348.400390625 c 0
 140.5234375 362 155.255859375 372.766601562 171.123046875 380.700195312 c 1
 148.456054688 393.733398438 130.323242188 409.31640625 116.72265625 427.44921875 c 0
 98.58984375 451.249023438 89.5234375 475.616210938 89.5234375 500.548828125 c 0
 89.5234375 507.916015625 90.08984375 515.56640625 91.22265625 523.499023438 c 0
 92.3564453125 531.432617188 94.7646484375 540.782226562 98.447265625 551.548828125 c 0
 102.129882812 562.31640625 106.805664062 572.657226562 112.47265625 582.57421875 c 0
 118.139648438 592.491210938 125.931640625 602.408203125 135.84765625 612.325195312 c 0
 145.764648438 622.2421875 156.95703125 630.600585938 169.423828125 637.400390625 c 0
 183.590820312 644.767578125 200.874023438 650.717773438 221.274414062 655.250976562 c 0
 241.673828125 659.784179688 264.056640625 662.05078125 288.423828125 662.05078125 c 0
 312.791015625 662.05078125 335.173828125 659.784179688 355.57421875 655.250976562 c 0
 375.973632812 650.717773438 393.256835938 645.05078125 407.423828125 638.250976562 c 0
 421.590820312 630.883789062 433.6328125 622.2421875 443.549804688 612.325195312 c 0
 453.466796875 602.408203125 461.258789062 592.491210938 466.92578125 582.57421875 c 0
 472.592773438 572.657226562 477.125976562 562.173828125 480.525390625 551.124023438 c 0
 483.92578125 540.07421875 486.192382812 530.44140625 487.325195312 522.224609375 c 0
 488.458984375 514.006835938 489.025390625 505.932617188 489.025390625 497.999023438 c 0
 489.025390625 490.06640625 488.033203125 482.557617188 486.05078125 475.474609375 c 0
 484.067382812 468.391601562 481.659179688 462.016601562 478.826171875 456.349609375 c 0
 475.993164062 450.682617188 472.025390625 444.875 466.92578125 438.924804688 c 0
 461.825195312 432.974609375 457.151367188 428.016601562 452.901367188 424.049804688 c 0
 448.651367188 420.083007812 443.268554688 415.549804688 436.750976562 410.450195312 c 0
 430.234375 405.349609375 424.9921875 401.666992188 421.025390625 399.400390625 c 0
 417.05859375 397.1328125 411.958984375 393.733398438 405.725585938 389.200195312 c 1
 421.592773438 382.400390625 435.475585938 374.75 447.375976562 366.25 c 0
 463.80859375 354.916992188 476.983398438 343.442382812 486.900390625 331.825195312 c 0
 496.817382812 320.208007812 504.892578125 308.025390625 511.125976562 295.275390625 c 0
 517.358398438 282.525390625 521.466796875 271.049804688 523.450195312 260.849609375 c 0
EndSplineSet
Validated: 1
EndChar

StartChar: nine
Encoding: 57 57 25
Width: 548
VWidth: 903
GlyphClass: 2
Flags: W
HStem: 243.252 96.0537<217.068 383.156> 589.205 92.6445<230.537 364.664>
VStem: 71.75 103.701<381.195 533.164> 425.352 96.8975<373.882 521.272>
LayerCount: 2
Fore
SplineSet
192.450195312 525.454101562 m 0
 181.1171875 506.1875 175.451171875 486.356445312 175.451171875 465.956054688 c 0
 175.451171875 381.5234375 215.400390625 339.305664062 295.299804688 339.305664062 c 0
 320.799804688 339.305664062 345.451171875 344.40625 369.251953125 354.606445312 c 0
 393.051757812 364.805664062 411.751953125 377.838867188 425.3515625 393.706054688 c 1
 425.3515625 401.356445312 l 2
 425.3515625 416.65625 424.501953125 436.7734375 422.801757812 461.706054688 c 0
 420.534179688 485.505859375 412.317382812 508.739257812 398.150390625 531.40625 c 0
 390.784179688 542.739257812 382.42578125 552.796875 373.076171875 561.580078125 c 0
 363.725585938 570.36328125 352.392578125 577.163085938 339.076171875 581.98046875 c 0
 325.758789062 586.796875 312.016601562 589.205078125 297.849609375 589.205078125 c 2
 295.299804688 589.205078125 l 2
 274.900390625 589.205078125 255.4921875 583.397460938 237.075195312 571.780273438 c 0
 218.658203125 560.163085938 203.783203125 544.721679688 192.450195312 525.454101562 c 0
192.450195312 35 m 0
 189.6171875 35 186.784179688 34.7216796875 183.951171875 34.154296875 c 0
 171.483398438 34.154296875 160.43359375 36.7041015625 150.80078125 41.8046875 c 0
 137.767578125 48.037109375 130.400390625 57.9541015625 128.701171875 71.5546875 c 0
 128.701171875 72.6875 128.41796875 73.537109375 127.850585938 74.1044921875 c 0
 127.850585938 83.171875 132.243164062 92.0966796875 141.025390625 100.879882812 c 0
 149.80859375 109.662109375 159.583984375 115.754882812 170.350585938 119.154296875 c 0
 177.150390625 120.854492188 188.342773438 123.12109375 203.92578125 125.954101562 c 0
 219.508789062 128.787109375 233.250976562 131.620117188 245.150390625 134.454101562 c 0
 257.05078125 137.287109375 270.083984375 140.969726562 284.250976562 145.502929688 c 0
 314.284179688 155.703125 340.633789062 171.852539062 363.30078125 193.953125 c 0
 378.034179688 209.252929688 391.350585938 226.819335938 403.250976562 246.65234375 c 0
 407.784179688 254.5859375 411.750976562 262.518554688 415.150390625 270.452148438 c 1
 402.68359375 263.65234375 389.083984375 258.268554688 374.350585938 254.301757812 c 0
 346.583984375 247.501953125 312.30078125 243.819335938 271.500976562 243.251953125 c 0
 242.600585938 243.251953125 215.118164062 249.202148438 189.05078125 261.1015625 c 0
 164.118164062 273.001953125 143.29296875 288.869140625 126.576171875 308.702148438 c 0
 109.858398438 328.53515625 96.5419921875 351.342773438 86.625 377.125976562 c 0
 76.7080078125 402.909179688 71.75 429.1171875 71.75 455.75 c 0
 71.75 488.05078125 77.275390625 518.225585938 88.3251953125 546.275390625 c 0
 99.375 574.325195312 114.391601562 598.267578125 133.375 618.100585938 c 0
 152.358398438 637.93359375 176.015625 653.516601562 204.348632812 664.849609375 c 0
 233.249023438 676.182617188 263.848632812 681.849609375 296.149414062 681.849609375 c 0
 376.048828125 681.849609375 434.131835938 654.649414062 470.399414062 600.249023438 c 0
 504.399414062 549.249023438 521.682617188 477.282226562 522.249023438 384.349609375 c 0
 522.249023438 335.616210938 516.58203125 292.549804688 505.249023438 255.149414062 c 0
 493.916015625 217.749023438 478.7578125 186.157226562 459.775390625 160.374023438 c 0
 440.791992188 134.591796875 417.416992188 112.633789062 389.650390625 94.5 c 0
 360.75 76.3671875 330.0078125 62.625 297.424804688 53.275390625 c 0
 264.841796875 43.92578125 229.849609375 37.8330078125 192.450195312 35 c 0
EndSplineSet
Validated: 1
EndChar

StartChar: colon
Encoding: 58 58 26
Width: 548
VWidth: 887
GlyphClass: 2
Flags: W
HStem: 60.5264 153<244.427 347.751> 288.326 152.149<256.681 343.963>
VStem: 231.55 131.75<76.6232 199.31 307.22 427.652>
LayerCount: 2
Fore
SplineSet
360.75 380.975585938 m 0
 360.75 364.541992188 358.200195312 347.543945312 353.099609375 329.9765625 c 0
 349.700195312 315.809570312 342.049804688 305.04296875 330.150390625 297.67578125 c 0
 319.950195312 291.443359375 309.75 288.326171875 299.549804688 288.326171875 c 2
 297 288.326171875 l 2
 280 289.458984375 266.400390625 292.859375 256.200195312 298.526367188 c 0
 242.033203125 307.026367188 234.099609375 319.776367188 232.400390625 336.776367188 c 1
 231.266601562 346.975585938 230.700195312 357.17578125 230.700195312 367.375976562 c 0
 230.700195312 378.142578125 230.983398438 388.059570312 231.549804688 397.126953125 c 0
 232.1171875 406.193359375 234.950195312 414.126953125 240.049804688 420.926757812 c 0
 245.150390625 427.16015625 251.3828125 431.693359375 258.75 434.526367188 c 0
 266.1171875 437.359375 272.633789062 439.05859375 278.30078125 439.625976562 c 0
 283.967773438 440.193359375 288.217773438 440.475585938 291.05078125 440.475585938 c 0
 300.68359375 440.475585938 308.900390625 439.909179688 315.701171875 438.776367188 c 0
 321.93359375 437.642578125 328.166992188 435.375976562 334.400390625 431.975585938 c 0
 341.200195312 428.576171875 347.150390625 423.475585938 352.25 416.67578125 c 0
 356.783203125 409.875976562 359.333007812 401.943359375 359.900390625 392.875976562 c 0
 360.466796875 388.909179688 360.75 384.942382812 360.75 380.975585938 c 0
363.299804688 142.9765625 m 0
 363.299804688 129.376953125 361.317382812 115.494140625 357.350585938 101.327148438 c 0
 353.951171875 87.16015625 345.16796875 76.6767578125 331.000976562 69.876953125 c 0
 319.100585938 64.2099609375 307.767578125 61.0927734375 297.000976562 60.5263671875 c 0
 282.833984375 60.5263671875 268.951171875 64.7763671875 255.350585938 73.2763671875 c 0
 241.750976562 81.7763671875 234.383789062 93.67578125 233.250976562 108.975585938 c 0
 232.68359375 124.842773438 232.1171875 133.91015625 231.549804688 136.176757812 c 0
 231.549804688 138.443359375 231.833007812 143.543945312 232.400390625 151.4765625 c 0
 232.966796875 159.41015625 233.534179688 165.642578125 234.100585938 170.17578125 c 0
 234.100585938 179.243164062 236.650390625 187.17578125 241.750976562 193.975585938 c 0
 246.850585938 200.776367188 253.650390625 205.30859375 262.150390625 207.576171875 c 0
 273.484375 211.54296875 284.534179688 213.526367188 295.30078125 213.526367188 c 0
 305.500976562 213.526367188 314.567382812 212.392578125 322.500976562 210.125976562 c 0
 330.43359375 207.859375 338.3671875 202.758789062 346.299804688 194.826171875 c 0
 354.233398438 187.458984375 359.049804688 178.109375 360.75 166.776367188 c 0
 362.450195312 158.842773438 363.299804688 150.91015625 363.299804688 142.9765625 c 0
EndSplineSet
Validated: 1
EndChar

StartChar: semicolon
Encoding: 59 59 27
Width: 548
VWidth: 864
GlyphClass: 2
Flags: W
HStem: 229.675 153.001<270.933 369.562>
VStem: 256.197 130.049<246.048 371.193>
LayerCount: 2
Fore
SplineSet
386.24609375 323.174804688 m 2
 386.24609375 306.7421875 383.6953125 289.458984375 378.595703125 271.326171875 c 0
 375.1953125 257.159179688 367.545898438 246.391601562 355.645507812 239.025390625 c 0
 345.4453125 232.791992188 335.245117188 229.674804688 325.045898438 229.674804688 c 0
 317.112304688 229.674804688 308.329101562 231.375 298.696289062 234.775390625 c 0
 289.063476562 238.174804688 280.280273438 243.275390625 272.346679688 250.075195312 c 0
 263.846679688 258.0078125 259.030273438 267.358398438 257.897460938 278.125 c 1
 256.763671875 288.325195312 256.197265625 298.80859375 256.197265625 309.575195312 c 0
 256.197265625 320.341796875 256.48046875 329.974609375 257.046875 338.474609375 c 0
 257.614257812 347.541992188 260.447265625 355.474609375 265.546875 362.275390625 c 0
 270.647460938 369.075195312 276.879882812 373.608398438 284.247070312 375.875 c 0
 296.713867188 379.841796875 308.614257812 382.109375 319.947265625 382.67578125 c 0
 328.447265625 382.67578125 335.530273438 381.826171875 341.197265625 380.125976562 c 0
 347.4296875 378.993164062 353.947265625 376.725585938 360.747070312 373.326171875 c 0
 367.546875 369.92578125 373.213867188 365.109375 377.747070312 358.875976562 c 0
 382.280273438 351.508789062 385.11328125 343.291992188 386.24609375 334.224609375 c 2
 386.24609375 323.174804688 l 2
369.245117188 81.775390625 m 2
 369.24609375 76.6748046875 l 2
 367.545898438 57.974609375 349.12890625 -16.5419921875 313.99609375 -146.875 c 0
 310.029296875 -161.041992188 302.662109375 -171.525390625 291.895507812 -178.325195312 c 0
 282.262695312 -184.557617188 272.62890625 -187.674804688 262.99609375 -187.674804688 c 0
 248.263671875 -187.674804688 234.946289062 -183.424804688 223.045898438 -174.924804688 c 0
 212.818359375 -167.388671875 207.704101562 -157.294921875 207.704101562 -144.64453125 c 0
 207.704101562 -128.515625 216.631835938 -82.0458984375 224.74609375 -41.4736328125 c 0
 236.079101562 14.6259765625 245.146484375 56.55859375 251.946289062 84.326171875 c 0
 254.212890625 93.958984375 257.330078125 102.17578125 261.296875 108.975585938 c 0
 265.830078125 115.776367188 270.9296875 120.026367188 276.596679688 121.725585938 c 0
 284.530273438 124.55859375 292.1796875 126.258789062 299.546875 126.826171875 c 0
 302.379882812 126.826171875 305.212890625 126.54296875 308.045898438 125.975585938 c 0
 319.946289062 125.975585938 332.12890625 123.142578125 344.596679688 117.475585938 c 0
 352.529296875 114.076171875 358.762695312 108.692382812 363.295898438 101.326171875 c 0
 367.262695312 95.6591796875 369.245117188 89.1416015625 369.245117188 81.775390625 c 2
EndSplineSet
Validated: 1
EndChar

StartChar: less
Encoding: 60 60 28
Width: 548
VWidth: 902
GlyphClass: 2
Flags: W
LayerCount: 2
Fore
SplineSet
463.599609375 31.25 m 0
 454.533203125 31.25 444.333007812 33.2373046875 433 37.2041015625 c 0
 417.700195312 41.7373046875 399.283203125 51.9375 377.75 67.8046875 c 0
 356.216796875 83.671875 333.266601562 102.37109375 308.900390625 123.904296875 c 0
 284.533203125 145.4375 260.450195312 167.254882812 236.650390625 189.354492188 c 0
 212.849609375 211.454101562 187.916992188 234.12109375 161.849609375 257.354492188 c 0
 135.783203125 280.587890625 113.682617188 299.004882812 95.5498046875 312.604492188 c 0
 86.4833984375 319.404296875 80.25 328.754882812 76.849609375 340.654296875 c 0
 75.716796875 345.754882812 75.150390625 351.421875 75.150390625 357.654296875 c 0
 75.150390625 363.321289062 76 369.271484375 77.7001953125 375.504882812 c 0
 81.099609375 387.404296875 87.3330078125 395.904296875 96.400390625 401.004882812 c 0
 128.1328125 424.8046875 165.81640625 454.5546875 209.44921875 490.254882812 c 0
 252.515625 526.521484375 292.182617188 559.104492188 328.450195312 588.004882812 c 0
 364.716796875 617.471679688 397.299804688 640.704101562 426.200195312 657.704101562 c 0
 437.533203125 665.071289062 448.866210938 668.754882812 460.19921875 668.754882812 c 0
 468.69921875 668.754882812 476.06640625 666.771484375 482.298828125 662.8046875 c 0
 494.765625 655.4375 503.833007812 645.520507812 509.5 633.053710938 c 0
 512.333007812 627.38671875 513.75 621.153320312 513.75 614.353515625 c 0
 513.75 607.553710938 511.766601562 600.470703125 507.799804688 593.103515625 c 0
 501 581.770507812 487.1171875 569.020507812 466.150390625 554.853515625 c 0
 434.983398438 532.75390625 389.650390625 498.470703125 330.150390625 452.00390625 c 0
 270.650390625 405.537109375 230.416992188 374.370117188 209.450195312 358.502929688 c 1
 228.716796875 343.203125 250.817382812 324.219726562 275.75 301.552734375 c 0
 301.25 278.885742188 324.200195312 257.918945312 344.599609375 238.65234375 c 0
 365 219.384765625 387.099609375 199.551757812 410.900390625 179.15234375 c 0
 434.700195312 158.751953125 455.666992188 142.884765625 473.799804688 131.551757812 c 0
 492.5 119.65234375 505.25 108.319335938 512.049804688 97.5517578125 c 0
 516.583007812 90.751953125 518.849609375 83.6689453125 518.849609375 76.3017578125 c 0
 518.849609375 70.634765625 517.716796875 64.9677734375 515.450195312 59.30078125 c 0
 508.083007812 43.4345703125 493.349609375 34.3671875 471.25 32.1005859375 c 0
 468.983398438 31.533203125 466.432617188 31.25 463.599609375 31.25 c 0
EndSplineSet
Validated: 1
EndChar

StartChar: equal
Encoding: 61 61 29
Width: 548
VWidth: 908
GlyphClass: 2
Flags: W
HStem: 257.95 90.9502<137.627 458.177> 427.95 90.0996<139.381 458.178>
LayerCount: 2
Fore
SplineSet
423.650390625 518.049804688 m 0
 440.083007812 518.049804688 451.700195312 514.083007812 458.5 506.150390625 c 0
 465.299804688 498.216796875 469.266601562 488.299804688 470.400390625 476.400390625 c 2
 470.400390625 475.549804688 l 2
 470.400390625 469.317382812 469.833007812 463.650390625 468.700195312 458.549804688 c 0
 467.56640625 453.450195312 465.299804688 448.349609375 461.900390625 443.25 c 0
 458.5 438.150390625 453.1171875 433.900390625 445.75 430.5 c 0
 440.650390625 428.233398438 435.266601562 427.3828125 429.599609375 427.950195312 c 2
 422.799804688 427.950195312 l 2
 402.400390625 428.516601562 381.432617188 428.799804688 359.900390625 428.799804688 c 2
 266.400390625 426.25 l 2
 226.733398438 425.1171875 197.549804688 424.549804688 178.849609375 424.549804688 c 0
 162.416992188 424.549804688 149.099609375 428.799804688 138.900390625 437.299804688 c 0
 128.700195312 445.799804688 123.599609375 456.567382812 123.599609375 469.599609375 c 2
 123.599609375 472.150390625 l 2
 123.599609375 484.049804688 127.56640625 494.817382812 135.5 504.450195312 c 0
 144 513.516601562 156.182617188 518.049804688 172.049804688 518.049804688 c 2
 175.450195312 518.049804688 l 2
 209.109375 517.030273438 245.930664062 516.520507812 285.913085938 516.520507812 c 0
 312.5703125 516.520507812 340.631835938 516.747070312 370.099609375 517.200195312 c 0
 399.56640625 517.766601562 417.416992188 518.049804688 423.650390625 518.049804688 c 0
429.599609375 261.349609375 m 2
 422.799804688 261.349609375 l 2
 409.766601562 261.916992188 397.8671875 262.200195312 387.099609375 262.200195312 c 0
 363.299804688 262.200195312 326.75 261.6328125 277.450195312 260.5 c 0
 228.150390625 258.799804688 194.716796875 257.950195312 177.150390625 257.950195312 c 0
 159.583007812 257.950195312 146.265625 262.483398438 137.19921875 271.549804688 c 0
 128.131835938 280.6171875 123.598632812 291.666992188 123.598632812 304.700195312 c 2
 123.598632812 306.400390625 l 2
 123.598632812 318.299804688 128.131835938 328.5 137.19921875 337 c 0
 146.265625 344.932617188 159.015625 348.900390625 175.44921875 348.900390625 c 2
 190.749023438 348.900390625 l 2
 202.84375 348.7109375 216.19921875 348.616210938 230.815429688 348.616210938 c 0
 260.025390625 348.616210938 294.26953125 348.994140625 333.548828125 349.749023438 c 2
 423.649414062 351.44921875 l 2
 440.08203125 351.44921875 451.69921875 347.482421875 458.499023438 339.548828125 c 0
 465.298828125 331.616210938 469.265625 321.69921875 470.399414062 309.798828125 c 2
 470.399414062 308.94921875 l 2
 470.399414062 302.715820312 469.83203125 297.333007812 468.69921875 292.799804688 c 0
 467.56640625 287.700195312 465.298828125 282.599609375 461.899414062 277.5 c 0
 458.499023438 271.833007812 453.116210938 267.299804688 445.749023438 263.900390625 c 0
 441.215820312 262.200195312 435.833007812 261.349609375 429.599609375 261.349609375 c 2
EndSplineSet
Validated: 1
EndChar

StartChar: greater
Encoding: 62 62 30
Width: 548
VWidth: 903
GlyphClass: 2
Flags: W
LayerCount: 2
Fore
SplineSet
133.799804688 38.25 m 0
 125.8671875 38.25 118.498046875 40.2294921875 111.698242188 44.1962890625 c 0
 105.46484375 48.1630859375 99.7978515625 52.6962890625 94.6982421875 57.796875 c 0
 90.1650390625 62.896484375 86.765625 68.5634765625 84.498046875 74.796875 c 0
 81.6650390625 80.4638671875 79.96484375 86.4130859375 79.3984375 92.646484375 c 0
 79.3984375 99.4462890625 81.6650390625 106.529296875 86.1982421875 113.896484375 c 0
 92.998046875 125.229492188 106.598632812 137.979492188 126.998046875 152.146484375 c 0
 158.165039062 174.247070312 203.782226562 208.529296875 263.848632812 254.997070312 c 0
 323.348632812 301.463867188 363.58203125 332.630859375 384.548828125 348.497070312 c 1
 365.282226562 363.797851562 342.899414062 382.780273438 317.399414062 405.447265625 c 0
 291.899414062 428.114257812 269.232421875 449.081054688 249.399414062 468.348632812 c 0
 228.999023438 487.615234375 206.899414062 507.448242188 183.098632812 527.848632812 c 0
 159.298828125 548.248046875 138.33203125 564.115234375 120.19921875 575.448242188 c 0
 101.499023438 587.348632812 88.7490234375 598.681640625 81.94921875 609.448242188 c 0
 77.416015625 616.248046875 75.1494140625 623.615234375 75.1494140625 631.547851562 c 0
 75.1494140625 637.21484375 76.2822265625 642.598632812 78.548828125 647.698242188 c 0
 85.916015625 663.565429688 100.649414062 672.631835938 122.749023438 674.899414062 c 0
 125.58203125 675.465820312 128.131835938 675.749023438 130.399414062 675.749023438 c 0
 139.465820312 675.749023438 149.666015625 673.765625 160.999023438 669.798828125 c 0
 176.298828125 665.265625 194.715820312 655.06640625 216.249023438 639.19921875 c 0
 237.782226562 623.33203125 260.732421875 604.631835938 285.098632812 583.098632812 c 0
 309.465820312 561.56640625 333.548828125 539.749023438 357.348632812 517.649414062 c 0
 381.149414062 495.548828125 406.08203125 472.881835938 432.149414062 449.649414062 c 0
 458.215820312 426.416015625 480.31640625 408.283203125 498.44921875 395.25 c 0
 507.515625 388.450195312 513.749023438 378.81640625 517.149414062 366.349609375 c 0
 518.282226562 361.25 518.848632812 355.583007812 518.848632812 349.349609375 c 0
 518.848632812 343.682617188 517.999023438 337.733398438 516.298828125 331.5 c 0
 512.899414062 319.599609375 506.666015625 311.099609375 497.598632812 306 c 0
 465.866210938 282.766601562 428.182617188 253.016601562 384.549804688 216.75 c 0
 341.482421875 180.483398438 301.81640625 147.900390625 265.548828125 119 c 0
 229.282226562 90.099609375 196.69921875 66.8671875 167.798828125 49.2998046875 c 0
 156.465820312 41.9326171875 145.1328125 38.25 133.799804688 38.25 c 0
EndSplineSet
Validated: 1
EndChar

StartChar: question
Encoding: 63 63 31
Width: 548
VWidth: 903
GlyphClass: 2
Flags: W
HStem: 31.0029 151.302<224.707 331.998> 584.355 92.709<243.857 361.37>
VStem: 198.402 158.951<57.1695 156.658> 226.452 107.097<235.433 326.936> 377.782 106.217<461.381 567.451>
LayerCount: 2
Fore
SplineSet
285.950195312 223.955078125 m 0xd8
 280.849609375 223.955078125 275.469726562 224.520507812 269.802734375 225.653320312 c 0
 241.469726562 233.020507812 227.01953125 250.586914062 226.452148438 278.354492188 c 0
 226.452148438 286.287109375 227.869140625 294.787109375 230.702148438 303.854492188 c 0
 234.668945312 320.287109375 240.619140625 335.586914062 248.552734375 349.75390625 c 0
 256.485351562 363.920898438 265.268554688 376.104492188 274.901367188 386.3046875 c 0
 283.96875 396.50390625 293.6015625 405.854492188 303.801757812 414.354492188 c 0
 314.001953125 423.420898438 323.634765625 431.637695312 332.701171875 439.004882812 c 0
 341.768554688 446.372070312 349.701171875 454.022460938 356.501953125 461.955078125 c 0
 370.688476562 477.234375 377.782226562 493.038085938 377.782226562 509.3671875 c 0
 377.782226562 524.568359375 376.392578125 551.442382812 356.500976562 567.35546875 c 0
 341.896484375 578.713867188 320.838867188 584.393554688 293.326171875 584.393554688 c 0
 292.015625 584.393554688 290.690429688 584.380859375 289.350585938 584.35546875 c 0
 282.55078125 584.35546875 276.034179688 582.938476562 269.80078125 580.10546875 c 0
 263.000976562 576.705078125 256.767578125 573.022460938 251.100585938 569.0546875 c 0
 246.000976562 565.087890625 240.333984375 559.420898438 234.100585938 552.0546875 c 0
 227.868164062 544.6875 223.05078125 538.454101562 219.650390625 533.354492188 c 0
 216.250976562 528.25390625 211.717773438 522.021484375 206.05078125 514.654296875 c 0
 200.951171875 506.720703125 195.284179688 500.204101562 189.05078125 495.104492188 c 0
 183.383789062 490.00390625 177.150390625 486.887695312 170.350585938 485.75390625 c 2
 162.701171875 485.75390625 l 2
 159.868164062 485.75390625 156.467773438 486.321289062 152.500976562 487.454101562 c 0
 148.534179688 488.586914062 142.8671875 490.5703125 135.5 493.403320312 c 0
 123.033203125 500.203125 115.099609375 509.836914062 111.700195312 522.303710938 c 2
 110 532.502929688 l 2
 110 542.13671875 113.1171875 553.752929688 119.349609375 567.353515625 c 0
 125.583007812 579.8203125 133.515625 591.720703125 143.149414062 603.053710938 c 0
 152.782226562 614.953125 164.399414062 626.5703125 177.999023438 637.903320312 c 0
 191.598632812 649.803710938 207.749023438 659.436523438 226.44921875 666.803710938 c 0
 243.8125 673.643554688 262.153320312 677.064453125 281.471679688 677.064453125 c 0
 282.958007812 677.064453125 284.451171875 677.043945312 285.94921875 677.002929688 c 0
 349.982421875 677.002929688 398.999023438 661.986328125 432.999023438 631.953125 c 0
 466.999023438 601.919921875 483.999023438 556.870117188 483.999023438 496.803710938 c 0
 483.999023438 480.370117188 481.166015625 465.353515625 475.499023438 451.752929688 c 0
 470.399414062 438.153320312 463.598632812 426.252929688 455.098632812 416.053710938 c 0
 446.598632812 406.419921875 437.249023438 397.637695312 427.048828125 389.704101562 c 2
 396.44921875 365.904296875 l 2
 386.249023438 357.970703125 376.899414062 350.038085938 368.399414062 342.10546875 c 0
 359.899414062 334.171875 352.532226562 324.254882812 346.298828125 312.35546875 c 0
 340.06640625 301.022460938 335.81640625 288.272460938 333.548828125 274.10546875 c 0
 330.715820312 257.10546875 324.483398438 244.072265625 314.849609375 235.004882812 c 0
 307.483398438 227.637695312 297.849609375 223.955078125 285.950195312 223.955078125 c 0xd8
271.501953125 31.0029296875 m 2
 251.668945312 31.0029296875 234.952148438 37.802734375 221.352539062 51.40234375 c 0
 206.052734375 67.26953125 198.40234375 85.6865234375 198.40234375 106.653320312 c 0
 198.40234375 127.620117188 206.619140625 145.1875 223.052734375 159.354492188 c 0
 240.619140625 174.654296875 260.736328125 182.3046875 283.403320312 182.3046875 c 0
 304.370117188 182.3046875 321.653320312 175.50390625 335.252929688 161.904296875 c 0
 349.986328125 147.170898438 357.353515625 129.604492188 357.353515625 109.204101562 c 0xe8
 357.353515625 88.2373046875 350.270507812 70.669921875 336.103515625 56.5029296875 c 0
 321.936523438 42.3369140625 303.51953125 33.8369140625 280.852539062 31.0029296875 c 2
 271.501953125 31.0029296875 l 2
EndSplineSet
Validated: 1
EndChar

StartChar: at
Encoding: 64 64 32
Width: 548
VWidth: 892
GlyphClass: 2
Flags: W
HStem: -77.7207 93.5<236.072 375.053> 132.23 89.249<263.644 317.687> 356.63 85.8506<271.537 360.428> 553.83 96.8984<254.51 380.698>
VStem: 67.5 94.3467<113.872 419.334> 172.05 85.8486<223.19 344.153> 326.749 89.0801<226.031 329.915> 444.048 82.4512<206.652 462.493>
LayerCount: 2
Fore
SplineSet
359.049804688 168.775390625 m 1
 342.6171875 144.408203125 319.099609375 132.23046875 288.5 132.23046875 c 0
 251.666992188 132.23046875 223.049804688 143.84765625 202.650390625 167.080078125 c 0
 182.25 190.313476562 172.049804688 224.880859375 172.049804688 270.780273438 c 0
 172.049804688 293.447265625 174.599609375 314.130859375 179.700195312 332.830078125 c 0
 184.799804688 352.09765625 191.599609375 368.530273438 200.099609375 382.130859375 c 0
 209.166992188 395.73046875 219.650390625 407.34765625 231.549804688 416.98046875 c 0
 253.083007812 433.98046875 278.299804688 442.48046875 307.200195312 442.48046875 c 0
 324.766601562 442.48046875 342.049804688 439.36328125 359.049804688 433.130859375 c 0
 373.783203125 427.463867188 385.400390625 419.530273438 393.900390625 409.330078125 c 0
 400.700195312 401.397460938 404.099609375 393.747070312 404.099609375 386.380859375 c 0
 404.099609375 382.4140625 402.966796875 378.1640625 400.700195312 373.630859375 c 0
 398.432617188 369.09765625 395.31640625 364.84765625 391.348632812 360.880859375 c 0
 387.381835938 356.9140625 382.848632812 354.080078125 377.749023438 352.380859375 c 0
 370.381835938 350.11328125 364.71484375 348.98046875 360.748046875 348.98046875 c 0
 353.948242188 348.98046875 345.731445312 350.11328125 336.098632812 352.380859375 c 0
 333.265625 352.947265625 329.015625 354.080078125 323.348632812 355.780273438 c 0
 317.115234375 356.9140625 311.165039062 357.196289062 305.498046875 356.629882812 c 0
 299.831054688 356.0625 294.1640625 354.080078125 288.497070312 350.6796875 c 0
 282.830078125 347.279296875 277.73046875 342.747070312 273.197265625 337.080078125 c 0
 268.6640625 331.413085938 264.981445312 323.762695312 262.1484375 314.129882812 c 0
 259.315429688 304.497070312 257.8984375 293.446289062 257.8984375 280.979492188 c 0
 257.8984375 274.1796875 258.46484375 267.663085938 259.598632812 261.4296875 c 0
 260.165039062 255.196289062 261.58203125 248.6796875 263.848632812 241.879882812 c 0
 268.381835938 228.279296875 275.749023438 221.479492188 285.94921875 221.479492188 c 0
 292.182617188 221.479492188 297.848632812 222.61328125 302.94921875 224.879882812 c 0
 308.048828125 227.146484375 312.015625 231.11328125 314.848632812 236.780273438 c 0
 321.649414062 249.247070312 325.616210938 270.780273438 326.749023438 301.380859375 c 0
 327.31640625 314.98046875 336.666015625 325.463867188 354.798828125 332.830078125 c 0
 364.369140625 336.859375 373.04296875 338.874023438 380.822265625 338.874023438 c 0
 381.794921875 338.874023438 382.75390625 338.842773438 383.69921875 338.779296875 c 0
 390.499023438 338.779296875 396.44921875 337.9296875 401.548828125 336.229492188 c 0
 412.881835938 331.696289062 418.83203125 323.479492188 419.399414062 311.580078125 c 0
 419.399414062 310.446289062 419.116210938 309.313476562 418.548828125 308.180664062 c 0
 416.735351562 292.315429688 415.829101562 278.444335938 415.829101562 266.567382812 c 0
 415.829101562 263.596679688 415.885742188 260.750976562 415.999023438 258.030273438 c 0
 415.999023438 242.1640625 417.416015625 229.130859375 420.249023438 218.930664062 c 0
 421.381835938 214.963867188 422.515625 212.130859375 423.6484375 210.430664062 c 0
 425.348632812 207.59765625 427.615234375 206.180664062 430.448242188 206.180664062 c 0
 431.581054688 207.313476562 432.71484375 209.013671875 433.84765625 211.280273438 c 0
 436.680664062 218.080078125 438.947265625 226.86328125 440.647460938 237.630859375 c 0
 442.9140625 258.030273438 444.047851562 276.73046875 444.047851562 293.73046875 c 0
 444.047851562 322.063476562 442.630859375 348.4140625 439.797851562 372.780273438 c 0
 437.530273438 396.580078125 434.413085938 416.98046875 430.446289062 433.98046875 c 0
 426.479492188 450.98046875 421.663085938 465.997070312 415.99609375 479.030273438 c 0
 409.762695312 492.630859375 404.379882812 503.397460938 399.846679688 511.330078125 c 0
 394.747070312 519.263671875 388.513671875 526.063476562 381.146484375 531.73046875 c 0
 373.779296875 537.397460938 367.546875 541.647460938 362.446289062 544.48046875 c 0
 357.346679688 547.313476562 351.396484375 549.296875 344.596679688 550.4296875 c 0
 337.796875 552.129882812 332.413085938 552.979492188 328.446289062 552.979492188 c 0
 325.046875 552.979492188 320.513671875 553.262695312 314.846679688 553.830078125 c 0
 294.446289062 553.830078125 275.1796875 547.3125 257.046875 534.279296875 c 0
 238.913085938 521.247070312 222.763671875 502.546875 208.596679688 478.1796875 c 0
 194.4296875 453.8125 183.096679688 423.49609375 174.596679688 387.228515625 c 0
 166.096679688 350.961914062 161.846679688 311.01171875 161.846679688 267.37890625 c 0
 161.846679688 229.412109375 164.6796875 195.412109375 170.346679688 165.37890625 c 0
 176.013671875 135.345703125 183.380859375 111.262695312 192.447265625 93.1298828125 c 0
 201.514648438 74.9970703125 211.997070312 59.9794921875 223.897460938 48.080078125 c 0
 235.797851562 36.1796875 247.4140625 27.6796875 258.747070312 22.580078125 c 0
 270.080078125 18.046875 282.547851562 15.779296875 296.147460938 15.779296875 c 0
 309.747070312 15.779296875 322.21484375 17.1962890625 333.547851562 20.029296875 c 0
 344.880859375 22.86328125 354.23046875 25.9794921875 361.59765625 29.3798828125 c 0
 368.96484375 32.779296875 375.764648438 37.5966796875 381.997070312 43.830078125 c 0
 388.797851562 50.0625 394.180664062 56.0126953125 398.147460938 61.6796875 c 0
 402.114257812 67.3466796875 406.647460938 74.146484375 411.747070312 82.080078125 c 0
 414.014648438 86.61328125 415.997070312 90.0126953125 417.697265625 92.279296875 c 0
 419.397460938 94.546875 421.6640625 97.3798828125 424.497070312 100.779296875 c 0
 426.764648438 104.1796875 429.03125 107.012695312 431.297851562 109.279296875 c 0
 433.565429688 110.979492188 436.3984375 112.6796875 439.797851562 114.379882812 c 0
 443.198242188 116.080078125 447.165039062 116.9296875 451.698242188 116.9296875 c 0
 455.665039062 116.9296875 459.915039062 116.080078125 464.448242188 114.379882812 c 0
 470.115234375 112.11328125 474.932617188 109.279296875 478.899414062 105.879882812 c 0
 482.866210938 102.479492188 485.983398438 98.2294921875 488.25 93.1298828125 c 0
 490.516601562 88.5966796875 491.3671875 83.779296875 490.799804688 78.6796875 c 0
 490.799804688 69.046875 488.25 57.4296875 483.150390625 43.830078125 c 0
 479.75 35.330078125 476.6328125 27.962890625 473.799804688 21.7294921875 c 0
 470.400390625 15.4970703125 465.8671875 7.8466796875 460.200195312 -1.220703125 c 0
 454.533203125 -10.287109375 448.299804688 -18.220703125 441.5 -25.0205078125 c 0
 434.700195312 -31.8203125 426.483398438 -38.6201171875 416.849609375 -45.419921875 c 0
 406.650390625 -52.220703125 395.599609375 -58.169921875 383.700195312 -63.2705078125 c 0
 371.799804688 -67.8037109375 358.200195312 -71.203125 342.900390625 -73.470703125 c 0
 327.599609375 -76.3037109375 311.733398438 -77.720703125 295.299804688 -77.720703125 c 2
 290.200195312 -77.720703125 l 2
 258.466796875 -77.720703125 229 -69.787109375 201.799804688 -53.919921875 c 0
 174.033203125 -38.0537109375 150.233398438 -16.5205078125 130.400390625 10.6796875 c 0
 110.56640625 37.8798828125 95.2666015625 71.029296875 84.5 110.129882812 c 0
 73.1669921875 149.229492188 67.5 191.446289062 67.5 236.779296875 c 0
 67.5 287.212890625 71.466796875 334.24609375 79.400390625 377.87890625 c 0
 87.3330078125 421.51171875 98.3828125 460.044921875 112.549804688 493.478515625 c 0
 127.283203125 526.344726562 144.56640625 554.677734375 164.399414062 578.478515625 c 0
 184.232421875 602.278320312 206.33203125 620.127929688 230.69921875 632.028320312 c 0
 255.06640625 643.927734375 281.1328125 650.161132812 308.900390625 650.728515625 c 0
 328.733398438 650.728515625 346.583007812 649.028320312 362.450195312 645.627929688 c 0
 378.8828125 642.794921875 394.75 637.6953125 410.049804688 630.328125 c 0
 425.349609375 622.39453125 438.950195312 612.1953125 450.849609375 599.728515625 c 0
 462.75 587.260742188 473.516601562 571.677734375 483.150390625 552.978515625 c 0
 492.783203125 534.278320312 500.715820312 512.4609375 506.94921875 487.528320312 c 0
 519.982421875 435.39453125 526.499023438 370.228515625 526.499023438 292.028320312 c 0
 526.499023438 248.9609375 520.265625 210.994140625 507.798828125 178.126953125 c 0
 500.999023438 160.560546875 491.08203125 146.393554688 478.048828125 135.625976562 c 0
 465.015625 124.859375 449.432617188 119.192382812 431.299804688 118.625976562 c 0
 405.233398438 118.625976562 385.400390625 127.408203125 371.799804688 144.975585938 c 0
 366.700195312 151.775390625 362.450195312 159.708984375 359.049804688 168.775390625 c 1
EndSplineSet
Validated: 1
EndChar

StartChar: A
Encoding: 65 65 33
Width: 548
VWidth: 903
GlyphClass: 2
Flags: W
HStem: 267.275 78.1982<244.053 376.896>
LayerCount: 2
Fore
SplineSet
241.745117188 336.124023438 m 1
 291.045898438 341.223632812 336.095703125 344.340820312 376.895507812 345.473632812 c 1
 334.395507812 537.57421875 l 1
 310.028320312 496.20703125 279.145507812 429.057617188 241.745117188 336.124023438 c 1
146.549804688 95.5751953125 m 0
 140.31640625 75.1748046875 130.6796875 61.57421875 117.646484375 54.7744140625 c 0
 110.279296875 50.8076171875 103.196289062 48.826171875 96.396484375 48.826171875 c 0
 89.5966796875 48.826171875 83.0791015625 50.2412109375 76.8466796875 53.07421875 c 0
 66.646484375 57.607421875 59.279296875 64.6904296875 54.74609375 74.3232421875 c 0
 51.3466796875 81.6904296875 49.646484375 89.765625 49.646484375 98.5478515625 c 0
 49.646484375 107.331054688 50.779296875 116.823242188 53.0458984375 127.0234375 c 0
 56.4462890625 144.58984375 72.029296875 185.390625 99.7958984375 249.422851562 c 1
 91.86328125 256.790039062 87.330078125 265.857421875 86.197265625 276.624023438 c 2
 86.197265625 278.32421875 l 2
 86.197265625 287.95703125 91.013671875 297.024414062 100.647460938 305.524414062 c 0
 108.580078125 312.890625 118.497070312 318.557617188 130.397460938 322.525390625 c 1
 203.497070312 477.791992188 260.1640625 581.775390625 300.397460938 634.474609375 c 0
 310.030273438 646.375 319.096679688 655.158203125 327.596679688 660.825195312 c 0
 336.096679688 667.057617188 345.73046875 670.174804688 356.497070312 670.174804688 c 2
 363.296875 670.174804688 l 2
 374.629882812 670.174804688 384.830078125 667.625 393.897460938 662.525390625 c 0
 406.364257812 655.724609375 414.013671875 644.958007812 416.846679688 630.224609375 c 0
 429.314453125 562.224609375 449.713867188 466.174804688 478.046875 342.075195312 c 0
 493.9140625 272.94140625 506.380859375 222.083984375 515.448242188 189.500976562 c 0
 524.514648438 156.91796875 531.314453125 136.942382812 535.84765625 129.576171875 c 0
 541.514648438 119.375976562 544.34765625 109.743164062 544.34765625 100.67578125 c 2
 544.34765625 95.5751953125 l 2
 543.21484375 85.375 539.672851562 76.5927734375 533.72265625 69.2255859375 c 0
 527.772460938 61.8583984375 520.831054688 56.4736328125 512.897460938 53.07421875 c 0
 503.264648438 50.2412109375 497.032226562 48.826171875 494.19921875 48.826171875 c 0
 486.83203125 48.826171875 479.46484375 50.8076171875 472.09765625 54.7744140625 c 0
 459.064453125 61.5751953125 448.58203125 74.892578125 440.6484375 94.7255859375 c 0
 432.715820312 112.858398438 417.69921875 170.375976562 395.598632812 267.275390625 c 1
 324.765625 264.442382812 260.732421875 258.775390625 203.5 250.275390625 c 1
 184.232421875 205.508789062 165.25 153.94140625 146.549804688 95.5751953125 c 0
EndSplineSet
Validated: 1
EndChar

StartChar: B
Encoding: 66 66 34
Width: 548
VWidth: 901
GlyphClass: 2
Flags: W
HStem: 43.2471 76.6309<216.564 250.869> 293.703 81.9814<175.45 346.419> 565.703 88.3994<179.303 347.36>
VStem: 70.0498 102.851<121.248 293.703 377.002 560.653> 388.801 101.15<414.582 528.804> 420.25 105.401<182.073 247.902>
LayerCount: 2
Fore
SplineSet
72.599609375 86.2998046875 m 2xf4
 73.7333984375 102.733398438 74.5830078125 130.786132812 75.150390625 170.453125 c 0
 75.150390625 244.686523438 73.4501953125 326.853515625 70.0498046875 416.953125 c 1
 68.9169921875 453.786132812 68.349609375 478.578125 68.349609375 491.328125 c 0
 68.349609375 504.078125 68.775390625 521.078125 69.625 542.328125 c 0
 70.474609375 563.578125 70.900390625 578.453125 70.900390625 586.953125 c 0
 71.466796875 604.520507812 76.708984375 617.978515625 86.6259765625 627.328125 c 0
 96.54296875 636.678710938 108.868164062 641.353515625 123.600585938 641.353515625 c 2
 126.151367188 641.353515625 l 1
 141.451171875 645.88671875 160.43359375 649.286132812 183.100585938 651.553710938 c 0
 192.16796875 652.686523438 201.942382812 653.39453125 212.42578125 653.677734375 c 0
 222.909179688 653.9609375 230.984375 654.102539062 236.651367188 654.102539062 c 2
 255.350585938 654.102539062 l 1
 265.55078125 654.102539062 l 2
 309.18359375 654.102539062 348.284179688 647.01953125 382.850585938 632.852539062 c 0
 416.850585938 618.120117188 442.91796875 597.15234375 461.05078125 569.953125 c 0
 480.317382812 541.620117188 489.951171875 508.469726562 489.951171875 470.502929688 c 0xf8
 489.951171875 438.203125 482.017578125 410.15234375 466.151367188 386.352539062 c 0
 453.68359375 368.219726562 438.100585938 353.76953125 419.401367188 343.002929688 c 1
 431.868164062 337.3359375 444.05078125 330.818359375 455.951171875 323.452148438 c 0
 475.217773438 310.985351562 491.651367188 296.818359375 505.250976562 280.951171875 c 0
 518.850585938 265.083984375 525.651367188 249.500976562 525.651367188 234.201171875 c 2
 525.651367188 233.350585938 l 2
 525.651367188 211.250976562 519.842773438 189.434570312 508.225585938 167.901367188 c 0
 496.609375 146.368164062 479.891601562 126.67578125 458.075195312 108.826171875 c 0
 436.2578125 90.9755859375 407.215820312 75.818359375 370.94921875 63.3505859375 c 0
 334.682617188 50.8837890625 294.732421875 42.951171875 251.099609375 39.55078125 c 1
 246.171875 42.0146484375 241.190429688 43.2470703125 236.15625 43.2470703125 c 0
 229.611328125 43.2470703125 222.975585938 41.1650390625 216.249023438 37.0009765625 c 1
 186.782226562 34.734375 168.649414062 33.3173828125 161.849609375 32.75 c 0
 154.482421875 32.18359375 147.682617188 31.900390625 141.44921875 31.900390625 c 0
 135.215820312 31.900390625 128.983398438 32.466796875 122.75 33.6005859375 c 2
 121.049804688 33.6005859375 l 2
 106.8828125 33.6005859375 94.9833984375 38.4169921875 85.349609375 48.0498046875 c 0
 76.849609375 56.5498046875 72.599609375 67.6005859375 72.599609375 81.2001953125 c 2
 72.599609375 86.2998046875 l 2xf4
172.900390625 394.00390625 m 2
 172.900390625 377.001953125 l 1
 197.833007812 376.434570312 220.5 376.009765625 240.900390625 375.7265625 c 0
 242.938476562 375.698242188 244.948242188 375.684570312 246.926757812 375.684570312 c 0
 264.752929688 375.684570312 280.168945312 376.83203125 293.174804688 379.126953125 c 0
 307.625 381.676757812 319.666992188 384.934570312 329.299804688 388.90234375 c 0
 338.93359375 392.869140625 347.43359375 397.685546875 354.799804688 403.352539062 c 0
 362.166992188 409.01953125 367.833984375 414.686523438 371.80078125 420.353515625 c 0
 375.767578125 426.020507812 379.026367188 432.395507812 381.576171875 439.478515625 c 0
 384.125976562 446.561523438 385.967773438 452.936523438 387.100585938 458.603515625 c 0
 388.234375 464.270507812 388.80078125 470.220703125 388.80078125 476.453125 c 0
 388.80078125 488.920898438 385.967773438 500.395507812 380.30078125 510.87890625 c 0
 374.633789062 521.361328125 367.409179688 530.00390625 358.625976562 536.803710938 c 0
 349.842773438 543.603515625 339.78515625 549.270507812 328.452148438 553.803710938 c 0
 309.327148438 561.772460938 289.20703125 565.756835938 268.08984375 565.756835938 c 0
 266.681640625 565.756835938 265.268554688 565.739257812 263.8515625 565.703125 c 0
 234.384765625 565.703125 205.767578125 563.153320312 178.000976562 558.053710938 c 1
 177.43359375 547.853515625 176.8671875 532.553710938 176.299804688 512.153320312 c 0
 174.033203125 470.786132812 172.900390625 431.403320312 172.900390625 394.00390625 c 2
407.924804688 192.126953125 m 0
 416.141601562 202.610351562 420.25 212.104492188 420.25 220.604492188 c 0xf4
 420.25 225.137695312 417.416992188 230.520507812 411.75 236.75390625 c 0
 406.083007812 242.986328125 397.016601562 249.64453125 384.548828125 256.727539062 c 0
 372.08203125 263.810546875 354.232421875 270.752929688 330.999023438 277.552734375 c 0
 307.766601562 284.352539062 281.1328125 289.735351562 251.099609375 293.703125 c 1
 175.450195312 293.703125 l 1
 177.716796875 215.502929688 179.700195312 157.419921875 181.400390625 119.453125 c 1
 187.6328125 119.453125 196.700195312 119.594726562 208.599609375 119.877929688 c 0
 220.5 120.161132812 230.700195312 120.5859375 239.200195312 121.15234375 c 0
 266.400390625 122.286132812 291.900390625 126.536132812 315.700195312 133.90234375 c 0
 339.5 141.26953125 358.766601562 150.194335938 373.5 160.677734375 c 0
 388.233398438 171.161132812 399.708007812 181.643554688 407.924804688 192.126953125 c 0
EndSplineSet
Validated: 1
EndChar

StartChar: C
Encoding: 67 67 35
Width: 548
VWidth: 903
GlyphClass: 2
Flags: W
HStem: 26.9014 96.9014<217.605 383.381> 473.155 209.945<436.203 518.629> 570.055 89.2461<315.154 429.066>
VStem: 57.3008 105.4<183.225 378.686> 427.902 107.949<489.399 549.739>
LayerCount: 2
Fore
SplineSet
529.049804688 641.450195312 m 0xd8
 534.150390625 619.350585938 536.702148438 595.837890625 536.702148438 570.905273438 c 0
 536.702148438 553.905273438 536.418945312 543.705078125 535.8515625 540.3046875 c 0
 535.8515625 526.138671875 530.751953125 511.830078125 520.551757812 497.379882812 c 0
 510.3515625 482.9296875 499.301757812 475.138671875 487.40234375 474.004882812 c 0
 485.134765625 473.438476562 482.584960938 473.155273438 479.751953125 473.155273438 c 0xd8
 469.551757812 473.155273438 459.3515625 476.5546875 449.15234375 483.35546875 c 0
 434.985351562 492.421875 427.90234375 504.60546875 427.90234375 519.905273438 c 0
 427.90234375 523.872070312 428.46875 534.072265625 429.6015625 550.504882812 c 1
 421.668945312 555.60546875 416.568359375 558.721679688 414.301757812 559.85546875 c 0
 412.03515625 560.98828125 408.91796875 562.688476562 404.951171875 564.955078125 c 0
 397.583984375 568.35546875 390.216796875 570.0546875 382.850585938 570.0546875 c 0
 365.850585938 570.0546875 347.150390625 564.955078125 326.75 554.754882812 c 0
 306.350585938 544.5546875 286.517578125 529.6796875 267.25 510.129882812 c 0
 247.983398438 490.580078125 230.55859375 468.197265625 214.975585938 442.98046875 c 0
 199.392578125 417.763671875 186.784179688 389.146484375 177.151367188 357.12890625 c 0
 167.517578125 325.112304688 162.701171875 292.954101562 162.701171875 260.654296875 c 0
 162.701171875 237.987304688 167.80078125 216.170898438 178.000976562 195.203125 c 0
 188.201171875 174.236328125 202.225585938 157.094726562 220.076171875 143.77734375 c 0
 237.92578125 130.4609375 256.484375 123.802734375 275.750976562 123.802734375 c 0
 295.017578125 123.802734375 313.717773438 125.64453125 331.850585938 129.328125 c 0
 349.984375 133.010742188 366.276367188 137.685546875 380.725585938 143.352539062 c 0
 395.17578125 149.01953125 407.642578125 154.828125 418.125976562 160.77734375 c 0
 428.609375 166.727539062 437.817382812 172.819335938 445.75 179.052734375 c 0
 453.68359375 184.719726562 460.766601562 188.969726562 466.999023438 191.802734375 c 0
 473.799804688 195.203125 481.307617188 196.90234375 489.524414062 196.90234375 c 0
 497.741210938 196.90234375 505.533203125 194.352539062 512.900390625 189.252929688 c 0
 525.3671875 179.619140625 531.600585938 168.14453125 531.600585938 154.828125 c 0
 531.600585938 141.510742188 524.517578125 126.918945312 510.350585938 111.051757812 c 0
 461.049804688 54.9521484375 382.283203125 26.9013671875 274.049804688 26.9013671875 c 2
 265.549804688 26.9013671875 l 2
 238.916992188 26.9013671875 213.984375 30.869140625 190.750976562 38.8017578125 c 0
 167.517578125 46.7353515625 147.967773438 57.642578125 132.100585938 71.5263671875 c 0
 116.234375 85.4091796875 102.633789062 101.133789062 91.30078125 118.701171875 c 0
 79.9677734375 136.267578125 71.4677734375 154.826171875 65.80078125 174.375976562 c 0
 60.1337890625 193.92578125 57.30078125 213.618164062 57.30078125 233.451171875 c 0
 57.30078125 274.250976562 61.693359375 313.776367188 70.4755859375 352.026367188 c 0
 79.2587890625 390.276367188 91.017578125 424.701171875 105.75 455.30078125 c 0
 120.483398438 485.901367188 137.766601562 514.234375 157.599609375 540.30078125 c 0
 179.1328125 566.368164062 201.799804688 587.901367188 225.599609375 604.901367188 c 0
 249.399414062 621.901367188 274.33203125 635.217773438 300.399414062 644.850585938 c 0
 326.466796875 654.484375 351.68359375 659.30078125 376.049804688 659.30078125 c 0xb8
 395.8828125 659.30078125 414.299804688 657.600585938 431.299804688 654.201171875 c 1
 434.700195312 660.43359375 438.950195312 665.817382812 444.049804688 670.350585938 c 0
 451.983398438 677.150390625 460.766601562 681.1171875 470.399414062 682.25 c 0
 474.366210938 682.817382812 476.6328125 683.100585938 477.200195312 683.100585938 c 2
 478.049804688 683.100585938 l 2
 487.1171875 683.100585938 496.466796875 680.267578125 506.100585938 674.600585938 c 0
 518 666.666992188 525.650390625 655.6171875 529.049804688 641.450195312 c 0xd8
EndSplineSet
Validated: 1
EndChar

StartChar: D
Encoding: 68 68 36
Width: 548
VWidth: 901
GlyphClass: 2
Flags: W
HStem: 24.875 93.498<175.237 379.547>
VStem: 55.0488 103.255<138.841 143.022 144.199 361.635 494.887 572.757> 436.36 101.993<187.987 388.972>
LayerCount: 2
Fore
SplineSet
59.8046875 103.924804688 m 2
 60.9384765625 123.192382812 61.5087890625 153.506835938 61.5087890625 194.873046875 c 0
 61.5087890625 269.673828125 59.80859375 358.356445312 56.408203125 460.923828125 c 1
 55.841796875 491.5234375 55.4169921875 511.78125 55.1337890625 521.698242188 c 0
 55.0771484375 523.680664062 55.048828125 525.866210938 55.048828125 528.255859375 c 0
 55.048828125 537.822265625 55.501953125 550.653320312 56.408203125 566.749023438 c 0
 57.5419921875 586.866210938 58.1083984375 599.19140625 58.1083984375 603.724609375 c 1
 58.67578125 621.291015625 63.775390625 634.608398438 73.408203125 643.674804688 c 0
 83.0419921875 653.307617188 95.224609375 658.125 109.958007812 658.125 c 0
 129.224609375 658.125 154.724609375 655.291992188 186.458007812 649.625 c 0
 206.291015625 646.224609375 226.548828125 641.549804688 247.231445312 635.599609375 c 0
 267.915039062 629.650390625 290.297851562 621.291992188 314.380859375 610.525390625 c 0
 338.463867188 599.7578125 361.272460938 587.432617188 382.8046875 573.549804688 c 0
 404.337890625 559.666992188 425.021484375 541.958984375 444.854492188 520.42578125 c 0
 463.5546875 499.458984375 479.846679688 476.3671875 493.729492188 451.150390625 c 0
 507.612304688 425.932617188 518.520507812 396.182617188 526.453125 361.900390625 c 0
 534.38671875 327.6171875 538.353515625 290.641601562 538.353515625 250.974609375 c 0
 538.353515625 231.141601562 535.520507812 210.7421875 529.853515625 189.775390625 c 0
 524.186523438 168.807617188 515.686523438 148.69140625 504.353515625 129.423828125 c 0
 493.020507812 110.157226562 479.5625 92.732421875 463.979492188 77.1494140625 c 0
 448.396484375 61.56640625 428.98828125 48.9580078125 405.754882812 39.3251953125 c 0
 381.955078125 29.6923828125 356.73828125 24.875 330.10546875 24.875 c 2
 321.60546875 24.875 l 2
 293.837890625 24.875 265.788085938 26.150390625 237.455078125 28.7001953125 c 0
 209.122070312 31.25 186.455078125 34.224609375 169.455078125 37.625 c 0
 152.455078125 41.025390625 138.4296875 44.1416015625 127.379882812 46.974609375 c 0
 116.330078125 49.8076171875 109.671875 51.224609375 107.405273438 51.224609375 c 0
 93.23828125 51.224609375 81.337890625 56.0419921875 71.705078125 65.6748046875 c 0
 63.736328125 73.6435546875 59.751953125 83.6044921875 59.751953125 95.556640625 c 0
 59.751953125 96.3544921875 59.76953125 97.16015625 59.8046875 97.974609375 c 2
 59.8046875 103.924804688 l 2
239.583007812 124.322265625 m 0
 265.366210938 120.35546875 295.259765625 118.373046875 329.259765625 118.373046875 c 0
 343.993164062 118.373046875 358.018554688 123.190429688 371.334960938 132.823242188 c 0
 384.65234375 142.456054688 395.985351562 155.064453125 405.334960938 170.647460938 c 0
 414.685546875 186.23046875 422.193359375 203.655273438 427.860351562 222.922851562 c 0
 433.52734375 242.189453125 436.360351562 260.889648438 436.360351562 279.022460938 c 0
 436.360351562 381.58984375 391.02734375 460.072265625 300.360351562 514.47265625 c 0
 268.060546875 533.739257812 221.02734375 553.572265625 159.259765625 573.97265625 c 1
 158.623046875 548.048828125 158.303710938 521.6875 158.303710938 494.88671875 c 0
 158.303710938 450.216796875 159.189453125 404.328125 160.959960938 357.22265625 c 0
 162.092773438 332.85546875 163.2265625 297.297851562 164.359375 250.547851562 c 0
 165.4921875 203.797851562 166.625 167.955078125 167.758789062 143.022460938 c 1
 189.858398438 134.522460938 213.80078125 128.2890625 239.583007812 124.322265625 c 0
EndSplineSet
Validated: 1
EndChar

StartChar: E
Encoding: 69 69 37
Width: 548
VWidth: 901
GlyphClass: 2
Flags: W
HStem: 34.2998 95.2012<174.419 466.992> 46.2002 97.75<227.961 515.93> 307.151 92.6494<170.382 342.865> 322.451 90.1006<171.913 504.522> 552.8 91.7998<174.798 518.125>
VStem: 65.8311 105.401<132.211 307.151 399.801 546.301>
LayerCount: 2
Fore
SplineSet
122.780273438 649.700195312 m 2x8c
 136.947265625 649.700195312 148.852539062 645.166015625 158.485351562 636.099609375 c 1
 207.21875 641.765625 269.833007812 644.599609375 346.333007812 644.599609375 c 0
 366.166015625 644.599609375 384.584960938 644.31640625 401.584960938 643.749023438 c 0
 436.71875 642.616210938 464.201171875 640.916015625 484.034179688 638.649414062 c 0
 499.901367188 636.94921875 511.376953125 632.557617188 518.459960938 625.474609375 c 0
 525.54296875 618.390625 529.3671875 608.899414062 529.934570312 596.999023438 c 0
 529.934570312 590.765625 529.2265625 584.958007812 527.809570312 579.575195312 c 0
 526.392578125 574.192382812 524.267578125 569.234375 521.434570312 564.701171875 c 0
 518.034179688 559.034179688 512.651367188 554.784179688 505.284179688 551.951171875 c 0
 500.184570312 549.68359375 494.801757812 548.55078125 489.134765625 548.55078125 c 0
 486.8671875 548.55078125 484.600585938 548.833984375 482.333984375 549.400390625 c 0
 449.75390625 551.76171875 415.796875 552.94140625 380.461914062 552.94140625 c 0
 373.391601562 552.94140625 366.264648438 552.89453125 359.083984375 552.799804688 c 2
 313.18359375 552.799804688 l 2
 259.350585938 551.666992188 212.600585938 548.833984375 172.93359375 544.30078125 c 1
 170.666992188 495.000976562 169.534179688 446.833984375 169.534179688 399.80078125 c 1xac
 213.166992188 400.368164062 272.099609375 402.634765625 346.333007812 406.6015625 c 0
 419.432617188 410.568359375 460.515625 412.551757812 469.58203125 412.551757812 c 0
 486.015625 412.551757812 497.774414062 408.584960938 504.857421875 400.651367188 c 0
 511.940429688 392.71875 515.482421875 382.801757812 515.482421875 370.901367188 c 0
 515.482421875 357.301757812 512.649414062 346.53515625 506.982421875 338.6015625 c 0
 499.048828125 328.401367188 486.58203125 323.018554688 469.58203125 322.451171875 c 0x1c
 459.381835938 322.451171875 415.46484375 320.184570312 337.83203125 315.651367188 c 0
 258.499023438 310.551757812 202.681640625 307.71875 170.381835938 307.151367188 c 1
 170.94921875 292.984375 171.232421875 279.243164062 171.232421875 265.92578125 c 2
 171.232421875 223.850585938 l 2
 171.798828125 185.883789062 172.931640625 159.534179688 174.631835938 144.80078125 c 0
 175.19921875 139.701171875 175.765625 135.451171875 176.333007812 132.05078125 c 0
 187.666015625 130.350585938 204.524414062 129.500976562 226.907226562 129.500976562 c 0xac
 249.290039062 129.500976562 277.482421875 130.067382812 311.482421875 131.201171875 c 0
 390.815429688 134.034179688 440.681640625 137.716796875 461.08203125 142.25 c 0
 469.58203125 143.3828125 477.374023438 143.950195312 484.45703125 143.950195312 c 0
 491.540039062 143.950195312 497.7734375 142.533203125 503.15625 139.700195312 c 0
 508.5390625 136.8671875 512.931640625 133.891601562 516.331054688 130.775390625 c 0
 519.731445312 127.658203125 522.422851562 123.833007812 524.40625 119.299804688 c 0
 526.389648438 114.766601562 527.806640625 110.799804688 528.65625 107.400390625 c 0
 529.505859375 104 529.934570312 100.317382812 529.934570312 96.349609375 c 0
 529.934570312 82.75 525.3984375 70.849609375 516.331054688 60.650390625 c 0
 507.831054688 51.0166015625 495.931640625 45.9169921875 480.630859375 45.349609375 c 1
 476.098632812 52.716796875 471.565429688 53 467.032226562 46.2001953125 c 1
 464.482421875 46.2001953125 l 2x4c
 451.44921875 46.2001953125 426.798828125 45.0673828125 390.532226562 42.7998046875 c 0
 353.131835938 40.533203125 315.024414062 38.5498046875 276.20703125 36.849609375 c 0
 237.390625 35.150390625 208.065429688 34.2998046875 188.232421875 34.2998046875 c 0
 168.96484375 34.2998046875 153.098632812 34.8671875 140.630859375 36 c 0
 124.764648438 37.1328125 109.463867188 44.5 94.7314453125 58.099609375 c 0
 79.998046875 71.7001953125 71.498046875 87.849609375 69.2314453125 106.549804688 c 0
 67.53125 120.150390625 66.3984375 143.950195312 65.8310546875 177.950195312 c 0
 65.8310546875 209.1171875 66.1142578125 240.424804688 66.681640625 271.875 c 0
 67.248046875 303.325195312 67.53125 329.958007812 67.53125 351.775390625 c 0
 67.53125 373.591796875 66.9638671875 404.049804688 65.8310546875 443.150390625 c 0
 65.2646484375 476.016601562 64.8388671875 497.974609375 64.556640625 509.025390625 c 0
 64.5 511.233398438 64.4716796875 513.62890625 64.4716796875 516.211914062 c 0
 64.4716796875 526.547851562 64.9248046875 539.877929688 65.8310546875 556.200195312 c 0
 66.9638671875 576.599609375 67.53125 589.349609375 67.53125 594.450195312 c 2
 67.53125 595.299804688 l 2
 68.0986328125 612.8671875 73.1982421875 626.325195312 82.8310546875 635.674804688 c 0
 92.4638671875 645.025390625 104.647460938 649.700195312 119.380859375 649.700195312 c 2
 122.780273438 649.700195312 l 2x8c
EndSplineSet
Validated: 1
EndChar

StartChar: F
Encoding: 70 70 38
Width: 548
VWidth: 901
GlyphClass: 2
Flags: W
HStem: 310.372 85.4258<457.092 487.517> 318.448 90.5264<170.35 479.763> 559.425 92.7344<176.272 517.187>
VStem: 65.7998 103.486<85.5457 316.219 405.575 552.625> 69.2002 108.799<48.9484 311.167>
LayerCount: 2
Fore
SplineSet
123.599609375 659.724609375 m 0x70
 138.333007812 659.724609375 150.233398438 654.907226562 159.299804688 645.274414062 c 1
 225.087890625 649.864257812 289.26953125 652.159179688 351.84375 652.159179688 c 0
 358.798828125 652.159179688 365.734375 652.130859375 372.650390625 652.07421875 c 0
 417.983398438 652.07421875 455.099609375 650.94140625 484 648.673828125 c 0
 499.8671875 647.541015625 511.341796875 643.291015625 518.424804688 635.923828125 c 0
 525.5078125 628.556640625 529.333007812 618.923828125 529.900390625 607.024414062 c 2
 529.900390625 606.173828125 l 2
 529.900390625 593.140625 525.791992188 581.807617188 517.575195312 572.174804688 c 0
 509.358398438 562.541992188 497.033203125 557.724609375 480.599609375 557.724609375 c 2
 478.900390625 557.724609375 l 2
 455.525390625 559 431.03515625 559.637695312 405.430664062 559.637695312 c 0
 396.89453125 559.637695312 388.234375 559.56640625 379.450195312 559.424804688 c 0
 313.716796875 559.424804688 244.8671875 557.158203125 172.900390625 552.625 c 1
 172.333007812 544.125 171.765625 531.091796875 171.19921875 513.524414062 c 0
 169.923828125 488.451171875 169.286132812 464.651367188 169.286132812 442.126953125 c 0
 169.286132812 434.618164062 169.357421875 427.250976562 169.499023438 420.024414062 c 2
 169.499023438 405.575195312 l 1
 192.732421875 407.841796875 217.94921875 408.974609375 245.149414062 408.974609375 c 0x70
 252.515625 408.974609375 259.8828125 408.69140625 267.25 408.125 c 0
 308.049804688 407.557617188 344.8828125 406.140625 377.75 403.874023438 c 0
 411.182617188 401.607421875 436.2578125 398.915039062 452.974609375 395.797851562 c 0
 469.692382812 392.681640625 481.30859375 387.864257812 487.826171875 381.34765625 c 0
 494.342773438 374.830078125 498.16796875 365.905273438 499.30078125 354.572265625 c 0
 499.30078125 342.671875 496.467773438 332.189453125 490.80078125 323.122070312 c 0
 486.833984375 317.455078125 481.166992188 313.205078125 473.799804688 310.372070312 c 0xb0
 468.700195312 308.671875 463.033203125 307.822265625 456.799804688 307.822265625 c 2
 450.849609375 307.822265625 l 2
 433.283203125 310.655273438 407.783203125 313.205078125 374.349609375 315.47265625 c 0
 342.612304688 317.487304688 309.98046875 318.495117188 276.451171875 318.495117188 c 0
 272.264648438 318.495117188 268.064453125 318.479492188 263.849609375 318.448242188 c 0
 225.8828125 318.165039062 194.715820312 316.889648438 170.349609375 314.623046875 c 1
 173.182617188 240.956054688 175.732421875 163.323242188 177.999023438 81.7236328125 c 0
 176.298828125 66.4228515625 168.932617188 54.5234375 155.899414062 46.0234375 c 0
 144.56640625 38.08984375 132.381835938 33.83984375 119.349609375 33.2734375 c 0
 118.215820312 33.2734375 117.3671875 33.556640625 116.799804688 34.123046875 c 0
 102.6328125 34.123046875 90.7333984375 38.9404296875 81.099609375 48.5732421875 c 0
 73.1318359375 56.5419921875 69.146484375 66.7509765625 69.146484375 79.2021484375 c 0
 69.146484375 80.0322265625 69.1650390625 80.873046875 69.2001953125 81.7236328125 c 2
 69.2001953125 86.8232421875 l 2x68
 70.3330078125 104.390625 70.900390625 133.857421875 70.900390625 175.223632812 c 0
 70.900390625 253.423828125 69.2001953125 340.124023438 65.7998046875 435.32421875 c 0
 64.6669921875 472.157226562 64.099609375 496.94921875 64.099609375 509.69921875 c 0
 64.099609375 522.44921875 64.525390625 539.44921875 65.375 560.69921875 c 0
 66.224609375 581.94921875 66.9326171875 596.541015625 67.5 604.473632812 c 0
 68.0673828125 622.041015625 73.1669921875 635.357421875 82.7998046875 644.424804688 c 0
 92.4326171875 654.057617188 104.616210938 658.875 119.349609375 658.875 c 0
 121.616210938 659.44140625 123.033203125 659.724609375 123.599609375 659.724609375 c 0x70
EndSplineSet
Validated: 1
EndChar

StartChar: G
Encoding: 71 71 39
Width: 548
VWidth: 901
GlyphClass: 2
Flags: W
HStem: 25.6299 96.8975<216.28 330.579> 578.13 89.249<314.574 443.475>
VStem: 55.6045 105.398<182.086 381.419>
LayerCount: 2
Fore
SplineSet
334.400390625 38.3759765625 m 0
 311.733398438 29.8759765625 289.071289062 25.6298828125 266.404296875 25.6298828125 c 0
 238.637695312 25.6298828125 212.854492188 29.5966796875 189.0546875 37.5302734375 c 0
 165.821289062 45.462890625 146.413085938 56.37109375 130.830078125 70.25390625 c 0
 115.247070312 84.13671875 101.647460938 99.8623046875 90.0302734375 117.428710938 c 0
 78.4130859375 134.99609375 69.771484375 153.553710938 64.1044921875 173.103515625 c 0
 58.4375 192.654296875 55.6044921875 212.345703125 55.6044921875 232.178710938 c 0
 55.6044921875 273.545898438 59.9970703125 313.779296875 68.779296875 352.87890625 c 0
 77.5625 391.978515625 89.3203125 427.112304688 104.053710938 458.279296875 c 0
 118.787109375 489.446289062 136.0703125 518.345703125 155.903320312 544.978515625 c 0
 177.436523438 571.045898438 200.244140625 593.00390625 224.327148438 610.853515625 c 0
 248.41015625 628.704101562 273.202148438 642.446289062 298.702148438 652.079101562 c 0
 324.76953125 662.279296875 350.551757812 667.37890625 376.051757812 667.37890625 c 0
 401.551757812 667.37890625 430.168945312 661.711914062 461.90234375 650.37890625 c 0
 492.501953125 639.045898438 512.619140625 628.5625 522.251953125 618.9296875 c 0
 532.452148438 608.729492188 537.834960938 596.546875 538.40234375 582.379882812 c 0
 538.40234375 575.580078125 536.985351562 568.212890625 534.15234375 560.280273438 c 0
 530.751953125 550.080078125 523.384765625 542.712890625 512.051757812 538.1796875 c 0
 506.384765625 535.913085938 500.71875 534.780273438 495.051757812 534.780273438 c 0
 488.818359375 534.780273438 483.435546875 535.629882812 478.90234375 537.330078125 c 0
 474.369140625 539.030273438 465.869140625 543.5625 453.40234375 550.9296875 c 0
 440.935546875 558.296875 428.185546875 564.671875 415.15234375 570.0546875 c 0
 402.119140625 575.4375 390.786132812 578.129882812 381.153320312 578.129882812 c 0
 364.153320312 578.129882812 345.453125 572.887695312 325.052734375 562.405273438 c 0
 304.653320312 551.921875 284.9609375 536.622070312 265.977539062 516.504882812 c 0
 246.995117188 496.387695312 229.5703125 473.295898438 213.703125 447.228515625 c 0
 197.8359375 421.162109375 185.0859375 391.6953125 175.453125 358.828125 c 0
 165.8203125 325.9609375 161.002929688 293.094726562 161.002929688 260.227539062 c 0
 161.002929688 237.560546875 166.102539062 215.602539062 176.302734375 194.352539062 c 0
 186.502929688 173.102539062 200.528320312 155.819335938 218.377929688 142.501953125 c 0
 236.227539062 129.185546875 255.0703125 122.52734375 274.903320312 122.52734375 c 0
 287.936523438 122.52734375 301.252929688 126.352539062 314.852539062 134.001953125 c 0
 328.453125 141.65234375 341.203125 151.709960938 353.102539062 164.177734375 c 0
 365.002929688 176.64453125 376.3359375 190.811523438 387.102539062 206.677734375 c 0
 403.536132812 231.044921875 416.569335938 255.978515625 426.202148438 281.478515625 c 1
 393.334960938 279.778320312 360.185546875 276.802734375 326.751953125 272.552734375 c 0
 293.319335938 268.302734375 270.0859375 263.061523438 257.052734375 256.828125 c 0
 250.252929688 253.427734375 243.453125 251.728515625 236.653320312 251.728515625 c 0
 229.852539062 251.728515625 223.052734375 253.7109375 216.252929688 257.677734375 c 0
 203.786132812 264.478515625 196.418945312 274.111328125 194.15234375 286.578125 c 0
 193.584960938 289.411132812 193.301757812 292.244140625 193.301757812 295.077148438 c 0
 193.301757812 306.977539062 198.119140625 317.744140625 207.751953125 327.376953125 c 0
 214.551757812 334.177734375 223.90234375 340.126953125 235.801757812 345.227539062 c 0
 254.501953125 353.727539062 293.03515625 359.959960938 351.40234375 363.927734375 c 0
 393.334960938 366.760742188 428.46875 368.177734375 456.801757812 368.177734375 c 2
 484.8515625 368.177734375 l 2
 501.284179688 367.043945312 513.184570312 363.64453125 520.551757812 357.977539062 c 0
 530.184570312 350.610351562 535.000976562 338.993164062 535.000976562 323.126953125 c 0
 535.000976562 306.126953125 528.768554688 293.943359375 516.301757812 286.576171875 c 0
 516.301757812 284.876953125 515.734375 281.4765625 514.6015625 276.376953125 c 0
 514.034179688 273.54296875 513.467773438 268.7265625 512.900390625 261.926757812 c 0
 510.067382812 237.559570312 498.734375 206.392578125 478.901367188 168.42578125 c 0
 469.268554688 150.858398438 457.368164062 133.575195312 443.201171875 116.575195312 c 0
 428.46875 99.5751953125 412.318359375 84.41796875 394.750976562 71.1005859375 c 0
 377.184570312 57.7841796875 357.067382812 46.8759765625 334.400390625 38.3759765625 c 0
EndSplineSet
Validated: 1
EndChar

StartChar: H
Encoding: 72 72 40
Width: 548
VWidth: 901
GlyphClass: 2
Flags: W
HStem: 317.102 73.1035<184.797 388.81>
VStem: 78.5479 104.55<48.8747 317.102 390.205 604.958> 405.799 108.801<45.2183 341.512> 412.598 105.685<54.4858 341.751 408.929 643.898>
LayerCount: 2
Fore
SplineSet
73.4482421875 79.9501953125 m 2xe0
 73.4482421875 86.7548828125 l 2
 74.5810546875 102.0546875 75.1484375 140.021484375 75.1484375 200.654296875 c 0
 75.1484375 235.221679688 75.8564453125 277.296875 77.2734375 326.879882812 c 0
 78.6904296875 376.462890625 79.3984375 406.212890625 79.3984375 416.129882812 c 2
 79.3984375 445.879882812 l 2
 79.3984375 455.796875 79.255859375 472.37109375 78.97265625 495.604492188 c 0
 78.6904296875 518.837890625 78.5478515625 534.279296875 78.5478515625 541.9296875 c 0
 78.5478515625 549.579101562 78.6904296875 557.37109375 78.97265625 565.3046875 c 0
 79.255859375 573.237304688 79.3984375 578.0546875 79.3984375 579.754882812 c 0
 79.3984375 581.454101562 79.5400390625 583.721679688 79.8232421875 586.5546875 c 0
 80.1064453125 589.387695312 80.248046875 592.079101562 80.248046875 594.629882812 c 2
 80.248046875 601.4296875 l 1
 80.248046875 604.404296875 l 2
 80.8154296875 621.971679688 86.1982421875 635.286132812 96.3984375 644.352539062 c 0
 106.03125 653.986328125 118.213867188 658.802734375 132.947265625 658.802734375 c 2
 135.497070312 658.802734375 l 2
 149.09765625 658.802734375 160.713867188 654.8359375 170.34765625 646.90234375 c 0
 181.680664062 637.8359375 187.629882812 623.955078125 188.197265625 605.254882812 c 0
 188.197265625 599.022460938 187.34765625 586.555664062 185.647460938 567.85546875 c 0
 183.947265625 549.155273438 183.09765625 532.296875 183.09765625 517.280273438 c 0
 183.09765625 502.263671875 183.379882812 481.155273438 183.947265625 453.955078125 c 0
 184.514648438 426.754882812 184.796875 405.504882812 184.796875 390.205078125 c 1
 234.09765625 391.337890625 294.1640625 396.438476562 364.997070312 405.504882812 c 0
 385.963867188 408.337890625 401.831054688 410.321289062 412.59765625 411.454101562 c 0
 412.59765625 413.721679688 412.456054688 417.546875 412.172851562 422.9296875 c 0
 411.889648438 428.3125 411.607421875 440.920898438 411.32421875 460.75390625 c 0
 411.041015625 480.586914062 410.899414062 496.028320312 410.899414062 507.079101562 c 0
 410.899414062 518.12890625 411.323242188 535.553710938 412.172851562 559.353515625 c 0
 413.0234375 583.153320312 413.732421875 597.603515625 414.298828125 602.704101562 c 0
 414.866210938 620.836914062 419.965820312 634.719726562 429.598632812 644.352539062 c 0
 439.798828125 653.986328125 451.982421875 658.802734375 466.149414062 658.802734375 c 2
 468.69921875 658.802734375 l 2
 482.866210938 658.802734375 494.765625 654.8359375 504.399414062 646.90234375 c 0
 515.166015625 637.8359375 520.548828125 624.518554688 520.548828125 606.952148438 c 0
 520.548828125 596.184570312 520.265625 574.65234375 519.69921875 542.3515625 c 0
 519.131835938 502.684570312 518.70703125 467.126953125 518.423828125 435.676757812 c 0
 518.330078125 425.204101562 518.282226562 415.453125 518.282226562 406.42578125 c 0xd0
 518.282226562 388.34375 518.471679688 373.161132812 518.849609375 360.876953125 c 0
 519.416992188 342.459960938 519.69921875 325.318359375 519.69921875 309.451171875 c 0
 519.69921875 278.284179688 518.849609375 238.4765625 517.149414062 190.026367188 c 0
 515.450195312 141.576171875 514.599609375 107.717773438 514.599609375 88.451171875 c 2
 514.599609375 81.6513671875 l 2
 512.899414062 66.3515625 506.099609375 54.451171875 494.200195312 45.951171875 c 0
 482.8671875 38.0185546875 470.399414062 33.7685546875 456.799804688 33.201171875 c 0
 455.666992188 33.201171875 454.81640625 33.484375 454.25 34.05078125 c 0
 440.083007812 34.05078125 428.465820312 38.8681640625 419.399414062 48.5009765625 c 0
 410.33203125 57.0009765625 405.798828125 68.333984375 405.798828125 82.5009765625 c 2
 405.798828125 88.451171875 l 1
 411.465820312 159.8515625 414.298828125 239.184570312 414.298828125 326.451171875 c 2
 414.298828125 341.750976562 l 1
 395.598632812 340.05078125 359.473632812 335.659179688 305.923828125 328.576171875 c 0
 252.374023438 321.493164062 211.149414062 317.66796875 182.249023438 317.1015625 c 1
 182.249023438 309.451171875 l 2
 180.548828125 281.118164062 179.69921875 248.250976562 179.69921875 210.8515625 c 0
 179.69921875 173.451171875 180.548828125 130.66796875 182.249023438 82.5009765625 c 0
 180.548828125 66.6337890625 173.181640625 54.451171875 160.149414062 45.951171875 c 0
 148.815429688 38.0185546875 136.6328125 33.7685546875 123.599609375 33.201171875 c 0
 122.466796875 33.201171875 121.6171875 33.484375 121.049804688 34.05078125 c 0
 106.8828125 34.05078125 94.982421875 38.8681640625 85.349609375 48.5009765625 c 0
 77.4169921875 56.4345703125 73.4482421875 66.9169921875 73.4482421875 79.9501953125 c 2xe0
EndSplineSet
Validated: 1
EndChar

StartChar: I
Encoding: 73 73 41
Width: 548
VWidth: 902
GlyphClass: 2
Flags: W
HStem: 42.8486 87.5498<78.1291 238.046 352.25 480.6 483.151 518.939> 562.198 93.501<84.5168 241.752>
VStem: 239.202 116.448<131.248 560.499>
LayerCount: 2
Fore
SplineSet
194.150390625 42 m 1
 156.75 40.8671875 130.967773438 40.2978515625 116.80078125 40.2978515625 c 0
 99.80078125 40.2978515625 86.767578125 43.9814453125 77.701171875 51.34765625 c 0
 68.0673828125 58.71484375 63.2509765625 68.34765625 63.2509765625 80.248046875 c 2
 63.2509765625 82.7978515625 l 2
 63.2509765625 94.130859375 67.359375 104.047851562 75.576171875 112.547851562 c 0
 83.79296875 121.047851562 96.6845703125 125.581054688 114.251953125 126.1484375 c 0
 136.918945312 127.28125 177.71875 128.4140625 236.651367188 129.546875 c 1
 240.618164062 188.48046875 242.6015625 249.680664062 242.6015625 313.147460938 c 0
 242.6015625 346.580078125 242.03515625 380.580078125 240.901367188 415.147460938 c 0
 239.768554688 439.514648438 239.202148438 465.864257812 239.202148438 494.197265625 c 2
 239.202148438 512.046875 l 2
 239.202148438 517.713867188 239.626953125 526.356445312 240.4765625 537.97265625 c 0
 241.327148438 549.58984375 241.751953125 557.665039062 241.751953125 562.198242188 c 1
 208.884765625 562.764648438 184.517578125 563.047851562 168.650390625 563.047851562 c 0
 153.91796875 563.047851562 138.900390625 562.764648438 123.600585938 562.198242188 c 2
 121.900390625 562.198242188 l 2
 106.034179688 562.198242188 93.42578125 566.165039062 84.076171875 574.09765625 c 0
 74.7255859375 582.03125 69.767578125 592.797851562 69.201171875 606.3984375 c 2
 69.201171875 608.09765625 l 2
 69.201171875 619.998046875 73.5927734375 630.481445312 82.3759765625 639.547851562 c 0
 91.1591796875 648.615234375 104.333984375 653.431640625 121.900390625 653.999023438 c 0
 170.633789062 655.131835938 217.383789062 655.69921875 262.150390625 655.69921875 c 0
 351.118164062 655.69921875 423.932617188 653.149414062 480.599609375 648.048828125 c 0
 493.6328125 646.916015625 504.118164062 643.232421875 512.05078125 637 c 0
 522.817382812 629.06640625 528.484375 618.016601562 529.051757812 603.849609375 c 2
 529.051757812 603 l 2
 529.051757812 590.533203125 525.368164062 578.916015625 518.001953125 568.149414062 c 0
 514.03515625 561.916015625 508.368164062 557.098632812 501.000976562 553.69921875 c 0
 496.467773438 551.431640625 491.368164062 550.298828125 485.701171875 550.298828125 c 0
 482.868164062 550.298828125 479.467773438 550.866210938 475.500976562 551.999023438 c 0
 459.633789062 554.265625 420.534179688 557.098632812 358.201171875 560.499023438 c 1
 358.201171875 554.265625 357.633789062 542.932617188 356.500976562 526.5 c 0
 355.93359375 510.6328125 355.650390625 498.307617188 355.650390625 489.524414062 c 2
 355.650390625 463.599609375 l 2
 355.650390625 430.166992188 355.93359375 402.541992188 356.500976562 380.724609375 c 0
 357.067382812 358.908203125 357.350585938 336.666015625 357.350585938 313.999023438 c 0
 357.350585938 291.33203125 356.642578125 259.315429688 355.225585938 217.948242188 c 0
 353.80859375 176.581054688 352.817382812 147.681640625 352.25 131.248046875 c 1
 376.049804688 131.248046875 395.599609375 130.96484375 410.900390625 130.3984375 c 2
 480.599609375 130.3984375 l 1
 480.599609375 134.931640625 480.8828125 134.931640625 481.450195312 130.3984375 c 1
 481.450195312 134.931640625 481.732421875 134.931640625 482.298828125 130.3984375 c 1
 482.298828125 134.931640625 482.583007812 134.931640625 483.150390625 130.3984375 c 1
 483.150390625 134.931640625 483.432617188 134.931640625 484 130.3984375 c 1
 500.432617188 130.3984375 512.19140625 126.573242188 519.274414062 118.922851562 c 0
 526.357421875 111.2734375 530.182617188 101.78125 530.749023438 90.4482421875 c 2
 530.749023438 89.5986328125 l 2
 530.749023438 83.931640625 530.184570312 78.548828125 529.051757812 73.44921875 c 0
 527.918945312 68.3486328125 525.932617188 63.2490234375 523.099609375 58.1494140625 c 0
 519.1328125 51.916015625 513.465820312 47.666015625 506.099609375 45.3994140625 c 0
 501.56640625 43.69921875 497.31640625 42.8486328125 493.349609375 42.8486328125 c 2
 482.298828125 42.8486328125 l 2
 466.999023438 45.1162109375 441.499023438 46.2490234375 405.798828125 46.2490234375 c 0
 368.399414062 46.2490234375 334.682617188 45.9658203125 304.649414062 45.3994140625 c 1
 289.301757812 47.7607421875 273.953125 48.94140625 258.60546875 48.94140625 c 0
 194.150390625 42 l 1
EndSplineSet
Validated: 1
EndChar

StartChar: J
Encoding: 74 74 42
Width: 548
VWidth: 900
GlyphClass: 2
Flags: W
HStem: 20.875 107.099<202.165 283.692> 560.623 93.502<88.3288 294.452 397.3 488.968>
VStem: 61.1279 97.3242<174.058 270.348> 294.239 103.061<129.043 359.62 360.434 557.226>
LayerCount: 2
Fore
SplineSet
401.549804688 235.075195312 m 0
 391.916992188 136.474609375 371.802734375 73.0078125 341.203125 44.6748046875 c 0
 324.76953125 28.8076171875 305.219726562 20.875 282.552734375 20.875 c 0
 259.885742188 20.875 237.927734375 24.5576171875 216.677734375 31.9248046875 c 0
 195.427734375 39.2919921875 177.15234375 48.6416015625 161.852539062 59.974609375 c 0
 147.120117188 71.875 133.661132812 84.7666015625 121.478515625 98.650390625 c 0
 109.295898438 112.533203125 99.095703125 126.275390625 90.87890625 139.875 c 0
 82.6611328125 153.474609375 76.14453125 165.942382812 71.328125 177.275390625 c 0
 66.5107421875 188.608398438 63.5361328125 197.674804688 62.40234375 204.474609375 c 0
 60.703125 210.708007812 60.27734375 217.650390625 61.1279296875 225.299804688 c 0
 61.9775390625 232.950195312 63.2529296875 240.174804688 64.953125 246.974609375 c 0
 67.2197265625 254.908203125 71.7529296875 261.991210938 78.552734375 268.224609375 c 0
 85.3525390625 274.45703125 94.1357421875 278.423828125 104.90234375 280.124023438 c 0
 108.302734375 280.69140625 111.703125 280.974609375 115.102539062 280.974609375 c 0
 126.435546875 280.974609375 136.068359375 277.57421875 144.001953125 270.774414062 c 0
 153.634765625 261.70703125 158.452148438 250.08984375 158.452148438 235.923828125 c 0
 158.452148438 222.323242188 162.985351562 206.173828125 172.051757812 187.473632812 c 0
 177.71875 176.706054688 184.518554688 167.073242188 192.452148438 158.573242188 c 0
 200.384765625 150.073242188 211.15234375 142.848632812 224.751953125 136.8984375 c 0
 238.3515625 130.948242188 253.65234375 127.973632812 270.65234375 127.973632812 c 0
 271.21875 127.973632812 271.786132812 128.256835938 272.352539062 128.823242188 c 0
 276.319335938 131.65625 280.002929688 138.173828125 283.40234375 148.373046875 c 0
 291.3359375 172.740234375 295.869140625 209.573242188 297.001953125 258.873046875 c 2
 297.001953125 260.573242188 l 1
 297.001953125 277.998046875 l 2
 297.001953125 288.481445312 296.71875 316.673828125 296.15234375 362.573242188 c 0
 294.876953125 413.572265625 294.239257812 463.455078125 294.239257812 512.221679688 c 0
 294.239257812 528.479492188 294.310546875 544.61328125 294.452148438 560.623046875 c 1
 262.435546875 561.473632812 232.47265625 561.8984375 204.564453125 561.8984375 c 0
 176.65625 561.8984375 150.801757812 561.473632812 127.001953125 560.623046875 c 2
 125.301757812 560.623046875 l 2
 109.434570312 560.623046875 96.9677734375 564.58984375 87.9013671875 572.5234375 c 0
 78.833984375 580.456054688 74.017578125 591.223632812 73.4501953125 604.823242188 c 0
 73.4501953125 605.390625 73.1669921875 605.95703125 72.6005859375 606.524414062 c 0
 72.6005859375 618.423828125 77.1328125 628.907226562 86.2001953125 637.974609375 c 0
 95.267578125 647.041015625 108.583984375 651.858398438 126.151367188 652.424804688 c 0
 175.451171875 653.557617188 222.201171875 654.125 266.401367188 654.125 c 0
 354.80078125 654.125 427.333984375 651.575195312 484.000976562 646.474609375 c 0
 497.034179688 645.341796875 507.517578125 641.659179688 515.450195312 635.42578125 c 0
 526.216796875 627.493164062 532.166992188 616.16015625 533.299804688 601.426757812 c 0
 533.299804688 588.959960938 529.6171875 577.342773438 522.25 566.576171875 c 0
 518.283203125 560.342773438 512.333007812 555.525390625 504.400390625 552.125976562 c 0
 499.8671875 549.859375 494.767578125 548.725585938 489.100585938 548.725585938 c 0
 486.267578125 548.725585938 483.150390625 549.29296875 479.75 550.42578125 c 0
 462.18359375 553.258789062 434.700195312 555.525390625 397.299804688 557.225585938 c 1
 397.299804688 543.05859375 399.283203125 493.475585938 403.25 408.475585938 c 0
 404.157226562 389.88671875 404.610351562 373.655273438 404.610351562 359.782226562 c 0
 404.610351562 356.31640625 404.58203125 352.997070312 404.525390625 349.826171875 c 0
 404.2421875 333.958984375 404.100585938 324.041992188 404.100585938 320.075195312 c 0
 404.100585938 284.375 403.25 256.041992188 401.549804688 235.075195312 c 0
EndSplineSet
Validated: 1
EndChar

StartChar: K
Encoding: 75 75 43
Width: 548
VWidth: 901
GlyphClass: 2
Flags: W
VStem: 72.6162 99.4492<114.256 282.326 437.024 647.424>
LayerCount: 2
Fore
SplineSet
121.065429688 33.275390625 m 0
 119.931640625 33.275390625 118.799804688 33.55859375 117.666992188 34.1259765625 c 0
 103.5 34.1259765625 91.8828125 37.80859375 82.81640625 45.17578125 c 0
 74.31640625 51.9755859375 70.06640625 61.04296875 70.06640625 72.3759765625 c 0
 70.06640625 74.642578125 70.3486328125 76.91015625 70.916015625 79.1767578125 c 0
 72.048828125 97.3095703125 72.6162109375 127.342773438 72.6162109375 169.275390625 c 0
 72.6162109375 250.30859375 70.916015625 339.841796875 67.515625 437.875 c 0
 66.3828125 474.141601562 65.81640625 498.791992188 65.81640625 511.825195312 c 0
 65.81640625 524.858398438 66.3828125 543.275390625 67.515625 567.075195312 c 0
 68.6494140625 591.442382812 69.2158203125 606.7421875 69.2158203125 612.974609375 c 1
 69.783203125 627.708007812 74.8828125 639.325195312 84.515625 647.825195312 c 0
 93.5068359375 655.228515625 104.717773438 658.930664062 118.151367188 658.930664062 c 0
 119.111328125 658.930664062 120.08203125 658.912109375 121.065429688 658.874023438 c 2
 123.615234375 658.874023438 l 2
 137.21484375 658.874023438 149.115234375 655.756835938 159.315429688 649.524414062 c 0
 170.108398438 642.5078125 175.504882812 631.895507812 175.504882812 617.68359375 c 0
 175.504882812 605.494140625 174.963867188 577.376953125 173.764648438 534.774414062 c 0
 172.630859375 495.107421875 171.78125 462.524414062 171.213867188 437.024414062 c 1
 192.181640625 454.024414062 222.213867188 478.390625 261.314453125 510.124023438 c 0
 345.181640625 585.491210938 394.764648438 629.408203125 410.064453125 641.875 c 0
 419.697265625 649.2421875 429.047851562 654.341796875 438.114257812 657.174804688 c 0
 443.78125 658.875 448.598632812 659.724609375 452.565429688 659.724609375 c 0
 456.532226562 659.724609375 460.21484375 659.442382812 463.615234375 658.875 c 0
 470.982421875 657.174804688 477.499023438 653.775390625 483.166015625 648.674804688 c 0
 491.098632812 641.875 495.06640625 634.5078125 495.06640625 626.575195312 c 0
 495.06640625 611.275390625 488.833007812 594.841796875 476.366210938 577.275390625 c 0
 467.866210938 566.5078125 437.265625 535.625 384.56640625 484.625 c 1
 330.166015625 437.025390625 282.283203125 395.658203125 240.916015625 360.525390625 c 1
 262.44921875 340.125 296.732421875 309.807617188 343.765625 269.575195312 c 0
 390.797851562 231.608398438 431.598632812 197.325195312 466.165039062 166.724609375 c 0
 485.431640625 148.025390625 499.598632812 133.291992188 508.666015625 122.525390625 c 0
 518.298828125 109.4921875 523.965820312 100.424804688 525.666015625 95.3251953125 c 0
 527.932617188 87.9580078125 528.783203125 80.875 528.215820312 74.0751953125 c 0
 528.215820312 69.5419921875 527.366210938 65.0087890625 525.666015625 60.4755859375 c 0
 521.69921875 52.54296875 515.181640625 46.3095703125 506.115234375 41.7763671875 c 0
 493.751953125 36.625 485.369140625 34.0498046875 480.966796875 34.0498046875 c 0
 480.526367188 34.0498046875 480.125976562 34.0751953125 479.765625 34.126953125 c 2
 478.915039062 34.126953125 l 2
 463.615234375 34.126953125 449.165039062 41.2099609375 435.565429688 55.376953125 c 0
 429.8984375 62.1767578125 408.365234375 81.7265625 370.96484375 114.026367188 c 0
 333.565429688 145.759765625 292.765625 180.892578125 248.565429688 219.42578125 c 0
 216.83203125 244.359375 191.33203125 265.326171875 172.065429688 282.326171875 c 1
 179.71484375 73.2255859375 l 2
 178.015625 60.7587890625 170.6484375 50.841796875 157.615234375 43.474609375 c 0
 146.848632812 36.6748046875 134.665039062 33.275390625 121.065429688 33.275390625 c 0
EndSplineSet
Validated: 1
EndChar

StartChar: L
Encoding: 76 76 44
Width: 548
VWidth: 901
GlyphClass: 2
Flags: W
HStem: 39.0762 99.4463<174.604 175.441 176.292 441.638>
VStem: 65.7939 108.797<133.423 322.191> 90.7266 100.868<164.67 637.46>
LayerCount: 2
Fore
SplineSet
180.544921875 229.475585938 m 0xa0
 177.145507812 188.674804688 175.158203125 156.655273438 174.590820312 133.422851562 c 1
 174.874023438 136.822265625 175.158203125 138.522460938 175.44140625 138.522460938 c 0
 176.291992188 133.422851562 l 1
 225.024414062 133.422851562 281.974609375 136.255859375 347.141601562 141.922851562 c 0
 411.174804688 147.58984375 453.391601562 153.256835938 473.791992188 158.923828125 c 0
 476.965820312 159.830078125 480.139648438 160.283203125 483.313476562 160.283203125 c 0
 485.692382812 160.198242188 l 0
 489.659179688 159.915039062 493.626953125 158.923828125 497.59375 157.223632812 c 0
 504.959960938 154.390625 511.193359375 149.857421875 516.29296875 143.624023438 c 0
 520.260742188 137.95703125 523.09375 132.0078125 524.79296875 125.774414062 c 0
 527.060546875 118.974609375 528.193359375 113.024414062 528.193359375 107.923828125 c 0
 528.193359375 94.8916015625 524.79296875 84.408203125 517.993164062 76.4755859375 c 0
 511.193359375 68.5419921875 499.576171875 63.1591796875 483.143554688 60.326171875 c 0
 444.04296875 52.958984375 381.8515625 47.576171875 296.568359375 44.17578125 c 0
 211.28515625 40.7763671875 150.227539062 39.076171875 113.39453125 39.076171875 c 0
 99.2275390625 39.076171875 87.3271484375 43.892578125 77.6943359375 53.5263671875 c 0
 69.7255859375 61.494140625 65.7412109375 71.7041015625 65.7412109375 84.1552734375 c 0
 65.7412109375 84.9853515625 65.7587890625 85.8251953125 65.7939453125 86.67578125 c 2
 65.7939453125 94.326171875 l 2xc0
 65.7939453125 97.7255859375 69.052734375 128.609375 75.5693359375 186.975585938 c 0
 82.0859375 245.342773438 86.7607421875 301.443359375 89.5947265625 355.276367188 c 0
 90.349609375 366.228515625 90.7265625 378.817382812 90.7265625 393.04296875 c 0
 90.7265625 400.161132812 90.6328125 407.688476562 90.443359375 415.625976562 c 0
 90.443359375 436.592773438 89.876953125 496.943359375 88.7431640625 596.67578125 c 2
 88.7431640625 597.526367188 l 2
 89.310546875 615.092773438 94.552734375 628.55078125 104.469726562 637.901367188 c 0
 114.385742188 647.250976562 126.427734375 651.92578125 140.594726562 651.92578125 c 2
 143.145507812 651.92578125 l 2
 156.745117188 651.92578125 168.927734375 647.958984375 179.6953125 640.026367188 c 0
 191.053710938 631.37109375 196.733398438 618.844726562 196.733398438 602.4453125 c 0
 196.733398438 601.775390625 196.725585938 577.740234375 195.844726562 535.475585938 c 0
 194.711914062 498.642578125 193.294921875 464.075195312 191.594726562 431.775390625 c 0
 189.895507812 396.075195312 188.478515625 360.375 187.344726562 324.674804688 c 0
 186.211914062 302.0078125 183.9453125 270.275390625 180.544921875 229.475585938 c 0xa0
EndSplineSet
Validated: 1
EndChar

StartChar: M
Encoding: 77 77 45
Width: 548
VWidth: 902
GlyphClass: 2
Flags: W
VStem: 50.4961 91.7998<66.1749 360.8> 415.149 128.35<86.0938 480.495>
LayerCount: 2
Fore
SplineSet
142.295898438 106.494140625 m 2
 142.295898438 97.1435546875 l 2
 142.295898438 81.84375 137.763671875 69.09375 128.696289062 58.8935546875 c 0
 118.49609375 48.6943359375 106.313476562 43.59375 92.146484375 43.59375 c 2
 91.2958984375 43.59375 l 2
 85.0634765625 43.59375 79.396484375 44.7265625 74.2958984375 46.994140625 c 0
 66.9296875 50.3935546875 60.9794921875 56.626953125 56.4462890625 65.6943359375 c 0
 52.4794921875 75.8935546875 50.49609375 89.494140625 50.49609375 106.494140625 c 0
 50.49609375 113.861328125 51.3466796875 126.043945312 53.0458984375 143.043945312 c 0
 54.74609375 159.4765625 56.7294921875 181.293945312 58.99609375 208.494140625 c 0
 61.8291015625 237.393554688 64.9462890625 271.676757812 68.3466796875 311.34375 c 0
 71.74609375 351.577148438 74.2958984375 383.309570312 75.99609375 406.54296875 c 0
 83.36328125 488.143554688 89.8798828125 544.526367188 95.546875 575.693359375 c 0
 99.513671875 595.526367188 103.763671875 609.409179688 108.296875 617.341796875 c 0
 115.096679688 629.2421875 125.580078125 638.025390625 139.747070312 643.692382812 c 0
 151.647460938 648.225585938 163.546875 650.493164062 175.447265625 650.493164062 c 2
 180.546875 650.493164062 l 2
 194.713867188 650.493164062 206.331054688 648.508789062 215.3984375 644.541992188 c 0
 227.865234375 639.442382812 236.365234375 630.942382812 240.8984375 619.041992188 c 0
 248.264648438 594.109375 256.198242188 553.026367188 264.698242188 495.79296875 c 0
 273.198242188 438.559570312 282.264648438 373.110351562 291.8984375 299.443359375 c 0
 294.165039062 283.009765625 295.865234375 268.27734375 296.998046875 255.244140625 c 1
 300.96484375 296.043945312 304.931640625 334.010742188 308.8984375 369.143554688 c 0
 314.565429688 416.176757812 322.215820312 463.209960938 331.848632812 510.243164062 c 0
 341.481445312 557.276367188 349.69921875 593.541992188 356.499023438 619.041992188 c 0
 359.33203125 627.541992188 365.848632812 634.625976562 376.048828125 640.29296875 c 0
 385.116210938 645.393554688 394.749023438 648.509765625 404.94921875 649.643554688 c 0
 411.181640625 650.776367188 416.423828125 651.201171875 420.673828125 650.91796875 c 0
 424.923828125 650.634765625 428.465820312 650.493164062 431.298828125 650.493164062 c 2
 433.848632812 650.493164062 l 1
 447.0234375 650.493164062 l 2
 450.70703125 650.493164062 455.665039062 649.643554688 461.8984375 647.943359375 c 0
 468.130859375 646.809570312 473.373046875 645.110351562 477.623046875 642.842773438 c 0
 481.873046875 640.576171875 485.981445312 637.17578125 489.948242188 632.643554688 c 0
 493.915039062 627.54296875 496.46484375 621.592773438 497.59765625 614.79296875 c 0
 499.865234375 597.79296875 506.381835938 515.342773438 517.1484375 367.443359375 c 0
 527.916015625 220.110351562 535.565429688 136.809570312 540.098632812 117.54296875 c 0
 542.366210938 106.209960938 543.499023438 95.7265625 543.499023438 86.09375 c 0
 543.499023438 78.1611328125 541.798828125 71.361328125 538.3984375 65.6943359375 c 0
 533.866210938 57.7607421875 526.215820312 52.09375 515.44921875 48.6943359375 c 0
 509.215820312 46.994140625 502.69921875 46.001953125 495.8984375 45.71875 c 0
 489.098632812 45.435546875 482.015625 46.994140625 474.6484375 50.3935546875 c 0
 461.616210938 56.060546875 451.982421875 67.677734375 445.75 85.2451171875 c 0
 434.416992188 119.245117188 424.216796875 250.995117188 415.149414062 480.495117188 c 1
 407.782226562 436.861328125 402.682617188 395.495117188 399.849609375 356.39453125 c 0
 394.182617188 291.794921875 386.532226562 230.594726562 376.899414062 172.794921875 c 0
 367.266601562 114.995117188 359.616210938 79.578125 353.94921875 66.544921875 c 0
 345.44921875 52.9443359375 325.049804688 46.14453125 292.75 46.14453125 c 2
 288.5 46.14453125 l 2
 276.599609375 46.14453125 266.116210938 47.8447265625 257.049804688 51.2451171875 c 0
 246.282226562 55.2119140625 239.482421875 60.87890625 236.649414062 68.2451171875 c 0
 229.282226562 95.4453125 217.099609375 157.495117188 200.099609375 254.395507812 c 0
 188.766601562 320.6953125 178 385.012695312 167.799804688 447.345703125 c 1
 166.666992188 436.012695312 165.25 415.612304688 163.549804688 386.145507812 c 2
 160.149414062 341.095703125 l 1
 155.049804688 267.145507812 l 2
 153.349609375 243.912109375 151.366210938 219.545898438 149.099609375 194.045898438 c 0
 147.399414062 174.778320312 145.416992188 154.662109375 143.149414062 133.694335938 c 0
 142.583007812 121.794921875 142.295898438 112.7265625 142.295898438 106.494140625 c 2
EndSplineSet
Validated: 1
EndChar

StartChar: N
Encoding: 78 78 46
Width: 548
VWidth: 901
GlyphClass: 2
Flags: W
VStem: 66.5752 91.7998<57.3814 464.925> 435.758 90.665<211.052 610.117>
LayerCount: 2
Fore
SplineSet
162.625 464.924804688 m 1
 163.7578125 439.424804688 164.325195312 418.177734375 164.325195312 401.177734375 c 0
 164.325195312 383.044921875 164.041992188 357.544921875 163.474609375 324.677734375 c 0
 162.908203125 292.944335938 162.057617188 253.844726562 160.924804688 207.377929688 c 0
 159.224609375 160.911132812 158.375 131.443359375 158.375 118.9765625 c 2
 158.375 96.02734375 l 1
 158.375 89.2265625 l 2
 158.375 73.9267578125 153.841796875 62.02734375 144.774414062 53.52734375 c 0
 135.141601562 45.59375 123.524414062 41.626953125 109.924804688 41.626953125 c 0
 92.357421875 41.626953125 80.4580078125 46.7265625 74.224609375 56.9267578125 c 0
 69.125 66.5595703125 66.5751953125 80.443359375 66.5751953125 98.576171875 c 0
 66.5751953125 109.909179688 67.4248046875 153.826171875 69.125 230.326171875 c 0
 71.9580078125 348.193359375 73.375 429.225585938 73.375 473.42578125 c 0
 73.375 517.059570312 72.8076171875 557.291992188 71.6748046875 594.125 c 2
 71.6748046875 601.775390625 l 2
 71.6748046875 610.275390625 73.091796875 617.924804688 75.9248046875 624.725585938 c 0
 80.4580078125 632.658203125 86.69140625 638.325195312 94.6240234375 641.725585938 c 0
 105.95703125 647.958007812 118.70703125 651.075195312 132.874023438 651.075195312 c 0
 135.70703125 651.075195312 138.82421875 650.791992188 142.223632812 650.225585938 c 0
 154.69140625 650.225585938 165.458007812 648.2421875 174.524414062 644.275390625 c 0
 186.9921875 639.174804688 195.774414062 630.674804688 200.875 618.775390625 c 0
 213.908203125 582.5078125 249.325195312 515.358398438 307.125 417.325195312 c 0
 356.424804688 334.591796875 398.924804688 265.458984375 434.625 209.92578125 c 1
 435.379882812 242.407226562 435.7578125 281.55859375 435.7578125 327.380859375 c 0
 435.7578125 350.309570312 435.663085938 374.907226562 435.473632812 401.17578125 c 0
 434.340820312 501.475585938 431.791015625 567.776367188 427.82421875 600.076171875 c 0
 427.256835938 603.475585938 426.973632812 606.875976562 426.973632812 610.276367188 c 0
 426.973632812 620.475585938 430.657226562 629.54296875 438.024414062 637.475585938 c 0
 447.090820312 646.54296875 458.991210938 651.076171875 473.723632812 651.076171875 c 0
 487.32421875 651.076171875 498.374023438 648.809570312 506.874023438 644.276367188 c 0
 511.407226562 642.008789062 514.524414062 638.609375 516.223632812 634.076171875 c 0
 517.923828125 629.54296875 519.340820312 625.576171875 520.473632812 622.17578125 c 0
 521.607421875 618.208984375 522.740234375 612.258789062 523.873046875 604.326171875 c 0
 525.573242188 594.693359375 526.422851562 549.360351562 526.422851562 468.327148438 c 2
 526.422851562 432.626953125 l 2
 526.422851562 361.793945312 525.573242188 288.693359375 523.873046875 213.327148438 c 0
 522.740234375 164.59375 520.756835938 128.327148438 517.923828125 104.52734375 c 0
 515.657226562 81.8603515625 513.107421875 67.41015625 510.274414062 61.1767578125 c 0
 502.340820312 47.5771484375 483.357421875 40.494140625 453.325195312 39.9267578125 c 2
 449.924804688 39.9267578125 l 2
 439.158203125 39.9267578125 429.524414062 41.91015625 421.024414062 45.876953125 c 0
 410.825195312 50.41015625 404.024414062 56.0771484375 400.625 62.876953125 c 0
 394.958007812 74.2099609375 380.224609375 99.142578125 356.424804688 137.67578125 c 0
 331.4921875 177.909179688 306.841796875 216.442382812 282.474609375 253.275390625 c 0
 256.974609375 295.208007812 230.057617188 341.958007812 201.724609375 393.525390625 c 0
 186.424804688 419.025390625 173.391601562 442.825195312 162.625 464.924804688 c 1
EndSplineSet
Validated: 1
EndChar

StartChar: O
Encoding: 79 79 47
Width: 548
VWidth: 902
GlyphClass: 2
Flags: W
HStem: 31.6543 91.7998<213.338 352.666> 572.256 90.0957<242.234 371.924>
VStem: 68.3555 102.85<176.648 476.162> 423.654 102.054<196.161 515.156>
LayerCount: 2
Fore
SplineSet
230.705078125 131.955078125 m 0
 240.904296875 126.288085938 252.521484375 123.454101562 265.5546875 123.454101562 c 0
 297.854492188 123.454101562 326.471679688 130.538085938 351.404296875 144.704101562 c 0
 364.4375 151.504882812 376.0546875 160.99609375 386.254882812 173.1796875 c 0
 396.455078125 185.362304688 404.387695312 199.387695312 410.0546875 215.254882812 c 0
 412.321289062 221.487304688 414.729492188 237.212890625 417.279296875 262.4296875 c 0
 419.830078125 287.646484375 421.955078125 317.821289062 423.654296875 352.954101562 c 0
 423.938476562 358.0546875 424.080078125 363.154296875 424.080078125 368.254882812 c 0
 424.080078125 373.354492188 423.938476562 378.454101562 423.654296875 383.5546875 c 0
 423.654296875 407.921875 422.521484375 432.288085938 420.254882812 456.655273438 c 0
 416.854492188 490.088867188 404.671875 517.85546875 383.705078125 539.955078125 c 0
 363.3046875 561.48828125 338.229492188 572.255859375 308.479492188 572.255859375 c 0
 278.729492188 572.255859375 253.654296875 562.622070312 233.254882812 543.35546875 c 0
 212.288085938 522.955078125 196.98828125 494.622070312 187.354492188 458.35546875 c 0
 176.587890625 417.555664062 171.205078125 370.805664062 171.205078125 318.10546875 c 0
 171.205078125 285.23828125 172.904296875 256.338867188 176.3046875 231.405273438 c 0
 178.571289062 217.23828125 182.254882812 203.213867188 187.354492188 189.330078125 c 0
 192.455078125 175.447265625 198.404296875 163.830078125 205.205078125 154.48046875 c 0
 212.004882812 145.130859375 220.504882812 137.622070312 230.705078125 131.955078125 c 0
521.404296875 460.05078125 m 0
 524.2734375 424.668945312 525.708007812 389.647460938 525.708007812 354.984375 c 0
 525.708007812 328.024414062 524.83984375 301.282226562 523.104492188 274.755859375 c 0
 520.837890625 241.322265625 516.87109375 215.5390625 511.204101562 197.40625 c 0
 503.836914062 170.7734375 494.487304688 147.823242188 483.154296875 128.556640625 c 0
 471.821289062 109.2890625 459.212890625 93.421875 445.330078125 80.955078125 c 0
 431.446289062 68.48828125 414.588867188 58.5712890625 394.755859375 51.2041015625 c 0
 374.922851562 43.837890625 354.947265625 38.7373046875 334.831054688 35.904296875 c 0
 314.713867188 33.0712890625 291.622070312 31.654296875 265.5546875 31.654296875 c 0
 225.321289062 32.2216796875 189.338867188 42.98828125 157.60546875 63.955078125 c 0
 128.138671875 85.48828125 105.755859375 113.821289062 90.4560546875 148.954101562 c 0
 75.72265625 182.954101562 68.35546875 219.788085938 68.35546875 259.454101562 c 2
 68.35546875 263.704101562 l 1
 68.35546875 278.154296875 l 2
 68.35546875 303.087890625 68.4970703125 322.920898438 68.7802734375 337.653320312 c 0
 69.0634765625 352.38671875 70.0556640625 372.219726562 71.755859375 397.153320312 c 0
 75.1552734375 445.885742188 85.072265625 491.21875 101.505859375 533.15234375 c 1
 101.505859375 534.000976562 l 1
 116.805664062 571.967773438 143.438476562 602.8515625 181.405273438 626.651367188 c 0
 222.206054688 650.451171875 268.388671875 662.3515625 319.956054688 662.3515625 c 0
 346.022460938 662.3515625 370.956054688 657.534179688 394.755859375 647.901367188 c 0
 418.555664062 638.833984375 439.23828125 625.942382812 456.805664062 609.225585938 c 0
 474.372070312 592.508789062 488.822265625 571.400390625 500.155273438 545.900390625 c 0
 511.48828125 520.400390625 518.571289062 491.783203125 521.404296875 460.05078125 c 0
EndSplineSet
Validated: 1
EndChar

StartChar: P
Encoding: 80 80 48
Width: 548
VWidth: 901
GlyphClass: 2
Flags: W
HStem: 237.2 90.0303<186.923 364.852> 566.153 90.0996<190.006 379.327>
VStem: 84.4951 99.4502<79.2502 244 330.923 561.434> 88.7461 110.499<49.7263 242.485> 419.396 98.5957<379.586 529.548>
LayerCount: 2
Fore
SplineSet
193.29296875 144.55078125 m 0xe8
 197.259765625 103.75 199.245117188 81.9365234375 199.245117188 79.103515625 c 0
 199.245117188 64.9365234375 192.162109375 54.169921875 177.995117188 46.802734375 c 0
 166.662109375 39.435546875 154.478515625 35.7529296875 141.446289062 35.7529296875 c 0
 125.579101562 35.7529296875 112.545898438 40.2861328125 102.345703125 49.3525390625 c 0
 93.279296875 57.2861328125 88.74609375 67.76953125 88.74609375 80.8017578125 c 0
 88.74609375 83.0693359375 89.029296875 86.751953125 89.595703125 91.8525390625 c 0
 90.1630859375 99.78515625 90.4462890625 113.384765625 90.4462890625 132.65234375 c 0
 90.4462890625 164.384765625 89.87890625 208.018554688 88.74609375 263.55078125 c 0xd8
 86.478515625 357.618164062 85.0615234375 413.435546875 84.4951171875 431.001953125 c 0
 84.3056640625 445.931640625 84.2119140625 461.208007812 84.2119140625 476.831054688 c 0
 84.2119140625 508.053710938 84.5888671875 540.66015625 85.34375 574.65234375 c 1
 84.77734375 570.119140625 84.2099609375 570.685546875 83.6435546875 576.352539062 c 1
 83.6435546875 571.8203125 83.3603515625 571.8203125 82.79296875 576.352539062 c 0
 77.693359375 583.719726562 75.4267578125 591.086914062 75.9931640625 598.454101562 c 2
 75.9931640625 605.25390625 l 2
 77.693359375 613.75390625 81.66015625 621.403320312 87.8935546875 628.204101562 c 0
 94.1259765625 635.00390625 101.209960938 639.25390625 109.142578125 640.954101562 c 0
 130.109375 645.486328125 161.276367188 649.169921875 202.643554688 652.002929688 c 0
 246.276367188 654.8359375 276.875976562 656.252929688 294.443359375 656.252929688 c 0
 338.643554688 656.252929688 378.026367188 649.453125 412.59375 635.852539062 c 0
 444.326171875 621.685546875 469.684570312 600.293945312 488.66796875 571.676757812 c 0
 507.650390625 543.060546875 517.42578125 509.202148438 517.9921875 470.102539062 c 1
 517.9921875 438.369140625 512.609375 408.194335938 501.842773438 379.577148438 c 0
 491.075195312 350.959960938 476.342773438 326.16796875 457.642578125 305.201171875 c 0
 438.942382812 284.234375 414.859375 267.517578125 385.392578125 255.05078125 c 0
 356.666015625 243.125976562 325.865234375 237.163085938 292.990234375 237.163085938 c 0
 291.495117188 237.163085938 289.99609375 237.17578125 288.4921875 237.200195312 c 0
 247.125976562 237.200195312 212.842773438 239.467773438 185.642578125 244 c 1
 187.342773438 211.700195312 189.892578125 178.55078125 193.29296875 144.55078125 c 0xe8
183.094726562 335.803710938 m 1
 203.354492188 330.08984375 226.712890625 327.23046875 253.163085938 327.23046875 c 0
 255.56640625 327.23046875 257.995117188 327.25390625 260.450195312 327.30078125 c 0
 277.450195312 327.30078125 293.033203125 328.434570312 307.200195312 330.701171875 c 0
 321.3671875 332.967773438 333.549804688 335.80078125 343.75 339.201171875 c 0
 353.950195312 342.6015625 362.875 347.134765625 370.525390625 352.80078125 c 0
 378.174804688 358.467773438 384.692382812 364.134765625 390.075195312 369.801757812 c 0
 395.458007812 375.46875 399.991210938 382.126953125 403.673828125 389.77734375 c 0
 407.357421875 397.426757812 410.190429688 404.369140625 412.173828125 410.602539062 c 0
 414.15625 416.834960938 415.71484375 424.342773438 416.84765625 433.125976562 c 0
 417.98046875 441.909179688 418.688476562 449.134765625 418.971679688 454.80078125 c 0
 419.254882812 460.467773438 419.396484375 466.985351562 419.396484375 474.352539062 c 0
 419.396484375 488.518554688 416.563476562 500.986328125 410.896484375 511.752929688 c 0
 405.229492188 522.51953125 398.146484375 531.162109375 389.646484375 537.678710938 c 0
 381.146484375 544.1953125 371.088867188 549.720703125 359.471679688 554.25390625 c 0
 347.854492188 558.787109375 336.663085938 561.903320312 325.895507812 563.603515625 c 0
 315.12890625 565.303710938 304.645507812 566.153320312 294.446289062 566.153320312 c 0
 274.61328125 566.153320312 239.196289062 564.170898438 188.196289062 560.204101562 c 1
 185.928710938 492.204101562 184.51171875 446.586914062 183.9453125 423.353515625 c 0xe8
 183.377929688 392.186523438 183.094726562 363.00390625 183.094726562 335.803710938 c 1
EndSplineSet
Validated: 1
EndChar

StartChar: Q
Encoding: 81 81 49
Width: 548
VWidth: 887
GlyphClass: 2
Flags: W
HStem: 558.15 90.0996<238.012 368.986>
VStem: 64.0977 102.809<166.567 458.332> 244.297 90.1006<149.54 216.819> 422.797 100.424<147.301 493.138>
LayerCount: 2
Fore
SplineSet
504.399414062 -135.450195312 m 0
 497.033203125 -139.983398438 489.09765625 -142.25 480.59765625 -142.25 c 0
 476.630859375 -142.25 472.09765625 -141.682617188 466.998046875 -140.549804688 c 0
 453.96484375 -137.150390625 443.482421875 -130.067382812 435.548828125 -119.299804688 c 0
 426.482421875 -108.533203125 411.889648438 -89.5498046875 391.7734375 -62.349609375 c 0
 371.65625 -35.150390625 352.248046875 -7.6669921875 333.547851562 20.099609375 c 1
 318.815429688 18.400390625 302.948242188 17.5498046875 285.948242188 17.5498046875 c 0
 257.047851562 17.5498046875 230.415039062 21.7998046875 206.047851562 30.2998046875 c 0
 181.680664062 38.2333984375 161.28125 49.56640625 144.84765625 64.298828125 c 0
 128.415039062 79.0322265625 114.248046875 96.0322265625 102.34765625 115.298828125 c 0
 79.6806640625 152.69921875 67.2138671875 197.465820312 64.947265625 249.599609375 c 0
 64.3798828125 264.33203125 64.09765625 278.499023438 64.09765625 292.099609375 c 0
 64.09765625 381.06640625 75.7138671875 455.583007812 98.947265625 515.650390625 c 1
 114.247070312 553.6171875 141.1640625 585.349609375 179.697265625 610.849609375 c 0
 220.497070312 635.783203125 266.114257812 648.25 316.546875 648.25 c 0
 370.379882812 648.25 415.430664062 632.099609375 451.697265625 599.799804688 c 0
 469.264648438 583.932617188 483.856445312 562.825195312 495.47265625 536.474609375 c 0
 507.08984375 510.125 514.881835938 479.950195312 518.848632812 445.950195312 c 0
 521.762695312 419.72265625 523.220703125 389.748046875 523.220703125 356.02734375 c 0
 523.220703125 350.40625 523.1796875 344.6796875 523.098632812 338.849609375 c 0
 523.098632812 266.8828125 519.416015625 213.333007812 512.048828125 178.200195312 c 0
 500.1484375 120.400390625 473.798828125 77.900390625 432.999023438 50.7001953125 c 1
 451.131835938 25.7666015625 473.232421875 -2.849609375 499.298828125 -35.150390625 c 0
 515.166015625 -54.9833984375 523.098632812 -65.1826171875 523.098632812 -65.75 c 0
 527.631835938 -72.5498046875 529.8984375 -79.6328125 529.8984375 -87 c 0
 529.8984375 -89.2666015625 529.616210938 -91.25 529.048828125 -92.9501953125 c 0
 527.916015625 -101.450195312 525.083007812 -109.666992188 520.549804688 -117.599609375 c 0
 515.450195312 -125.533203125 510.06640625 -131.483398438 504.399414062 -135.450195312 c 0
253.6484375 134.849609375 m 0
 247.415039062 149.583007812 244.296875 162.900390625 244.296875 174.799804688 c 0
 244.296875 192.932617188 251.6640625 207.099609375 266.397460938 217.299804688 c 0
 274.897460938 223.533203125 283.963867188 226.932617188 293.59765625 227.5 c 0
 301.530273438 227.5 309.180664062 224.950195312 316.546875 219.849609375 c 0
 323.9140625 214.75 329.864257812 206.817382812 334.397460938 196.049804688 c 0
 344.030273438 171.1171875 357.629882812 144.200195312 375.197265625 115.299804688 c 1
 393.897460938 130.033203125 406.647460938 151.849609375 413.447265625 180.75 c 0
 415.147460938 188.682617188 416.989257812 205.400390625 418.97265625 230.900390625 c 0
 420.955078125 256.400390625 422.23046875 288.416992188 422.796875 326.950195312 c 2
 422.796875 340.549804688 l 2
 422.796875 373.983398438 420.814453125 406 416.84765625 436.599609375 c 0
 411.747070312 474.567382812 399.280273438 504.599609375 379.447265625 526.700195312 c 0
 360.180664062 547.666992188 335.388671875 558.150390625 305.071289062 558.150390625 c 0
 274.754882812 558.150390625 249.396484375 548.233398438 228.99609375 528.400390625 c 0
 208.029296875 508 192.729492188 478.817382812 183.096679688 440.849609375 c 0
 172.303710938 399.295898438 166.90625 355.942382812 166.90625 310.790039062 c 0
 166.90625 308.53125 166.919921875 306.267578125 166.947265625 304 c 0
 166.947265625 287 167.514648438 269.432617188 168.647460938 251.299804688 c 1
 170.9140625 220.1328125 177.430664062 192.224609375 188.198242188 167.575195312 c 0
 198.96484375 142.924804688 212.84765625 123.516601562 229.84765625 109.349609375 c 0
 244.014648438 98.0166015625 259.59765625 91.5 276.59765625 89.7998046875 c 1
 266.3984375 107.932617188 258.748046875 122.950195312 253.6484375 134.849609375 c 0
EndSplineSet
Validated: 1
EndChar

